<?xml version="1.0" standalone="no"?>
<!DOCTYPE svg PUBLIC "-//W3C//DTD SVG 1.1//EN" "http://www.w3.org/Graphics/SVG/1.1/DTD/svg11.dtd" >
<svg xmlns="http://www.w3.org/2000/svg" xmlns:xlink="http://www.w3.org/1999/xlink" version="1.1">
<metadata>
Created by FontForge 20170731 at Fri May  5 14:18:46 2017
 By Aleksey,,,
Copyright 2014 Indian Type Foundry. All rights reserved.
</metadata>
<defs>
<font id="Karma-Regular" horiz-adv-x="279" >
  <font-face 
    font-family="Karma"
    font-weight="400"
    font-stretch="normal"
    units-per-em="1000"
    panose-1="2 0 0 0 0 0 0 0 0 0"
    ascent="800"
    descent="-200"
    x-height="489"
    cap-height="677"
    bbox="-561 -508 1972 945"
    underline-thickness="50"
    underline-position="-150"
    unicode-range="U+000D-FB04"
  />
<missing-glyph horiz-adv-x="518" 
d="M259 302h-4l-100 -209h-60l134 260l-134 255h60l105 -206h4l100 206h60l-135 -261l135 -254h-60zM59 649v-597h400v597h-400zM4 0v701h510v-701h-510z" />
    <glyph glyph-name=".notdef" horiz-adv-x="518" 
d="M259 302h-4l-100 -209h-60l134 260l-134 255h60l105 -206h4l100 206h60l-135 -261l135 -254h-60zM59 649v-597h400v597h-400zM4 0v701h510v-701h-510z" />
    <glyph glyph-name=".null" horiz-adv-x="0" 
 />
    <glyph glyph-name="nonmarkingreturn" horiz-adv-x="333" 
 />
    <glyph glyph-name="NULL" horiz-adv-x="0" 
 />
    <glyph glyph-name="NULL" horiz-adv-x="0" 
 />
    <glyph glyph-name="CR" unicode="&#xd;" horiz-adv-x="0" 
 />
    <glyph glyph-name="space" unicode=" " horiz-adv-x="268" 
 />
    <glyph glyph-name="exclam" unicode="!" horiz-adv-x="249" 
d="M162 0.5q-15 -15.5 -37.5 -15.5t-37.5 15.5t-15 38.5t15 38t37.5 15t37.5 -15t15 -38t-15 -38.5zM100 193l-11 499q33 12 78 5l-20 -504q-23 -8 -47 0z" />
    <glyph glyph-name="quotedbl" unicode="&#x22;" horiz-adv-x="290" 
d="M65 500l-14 181q41 12 81 4l-19 -185q-23 -5 -48 0zM173 500l-14 181q41 12 81 4l-19 -185q-23 -5 -48 0z" />
    <glyph glyph-name="numbersign" unicode="#" horiz-adv-x="704" 
d="M455 243h144q15 -23 17 -53h-175l-47 -173h-57l47 173h-166l-47 -173h-57l47 173h-87q-16 20 -18 53h119l51 183h-121q-15 22 -18 51h152l48 173h56l-47 -173l167 1l47 172h56l-47 -172h111q15 -19 18 -52h-143zM398 243l51 183h-167l-50 -183h166z" />
    <glyph glyph-name="dollar" unicode="$" horiz-adv-x="467" 
d="M400 508q0 -29 -16.5 -42.5t-39.5 -11.5q0 98 -108 98q-52 0 -84.5 -23t-32.5 -63q0 -51 49 -81q37 -24 108.5 -52t110.5 -62t39 -100.5t-47.5 -120.5t-125.5 -65l6 -87q-33 -13 -65 0l6 86q-62 4 -110.5 32t-48.5 71q0 21 13.5 36t37.5 15q21 -105 137 -105
q58 0 97 29.5t39 83.5t-30.5 79.5t-108 56.5t-124.5 68t-47 96.5t41 100t105 52.5l-7 89q34 12 65 0l-6 -85q56 -1 101.5 -24t45.5 -71z" />
    <glyph glyph-name="percent" unicode="%" horiz-adv-x="752" 
d="M477 283q34 44 98.5 44t98 -43t33.5 -127t-34.5 -128t-97.5 -44t-97.5 42.5t-34.5 127t34 128.5zM575 285q-79 0 -79 -128.5t78.5 -128.5t78.5 130q0 61 -20 94t-58 33zM178 622q131 0 131 -169q0 -85 -34.5 -129t-97.5 -44t-97.5 42.5t-34.5 127.5q0 172 133 172z
M177 580q-78 0 -78 -128.5t77 -128.5q79 0 79 128.5t-78 128.5zM585 622l-354 -622h-63l354 622h63z" />
    <glyph glyph-name="ampersand" unicode="&#x26;" horiz-adv-x="726" 
d="M505 110q87 -66 130 -66t62 28q14 -12 14 -33.5t-18.5 -38.5t-52.5 -17q-70 0 -178 80q-88 -81 -214 -81q-102 0 -155.5 48.5t-53.5 124.5q0 54 32.5 106t102.5 90q-74 99 -74 170t43.5 112.5t119.5 41.5q55 0 100 -36.5t45 -102.5t-43.5 -117.5t-102.5 -74.5
q4 -5 13.5 -15.5t14.5 -16.5q89 -99 175 -170q43 57 64 144l-59 6q-4 41 27 41h148q-1 -3 0 -8t-0.5 -10.5t-3.5 -10.5q-4 -11 -26 -13l-33 -2q-23 -104 -77 -179zM262 627q-49 0 -74 -27t-25 -69q0 -57 73 -153q55 22 81.5 66t26.5 91.5t-26.5 69.5t-55.5 22zM148.5 73
q37.5 -39 120.5 -39t153 61q-84 70 -174 168q-20 21 -45 52q-44 -27 -68 -65.5t-24 -88t37.5 -88.5z" />
    <glyph glyph-name="quotesingle" unicode="'" horiz-adv-x="181" 
d="M64 500l-14 181q41 12 81 4l-19 -185q-23 -5 -48 0z" />
    <glyph glyph-name="parenleft" unicode="(" 
d="M132 256q0 -255 128 -418l-35 -30q-167 182 -167 448.5t173 453.5l33 -27q-94 -145 -119 -279q-13 -70 -13 -148z" />
    <glyph glyph-name="parenright" unicode=")" 
d="M48 710q173 -187 173 -453.5t-167 -448.5l-35 30q128 163 128 418q0 199 -91 359q-17 31 -41 68z" />
    <glyph glyph-name="asterisk" unicode="*" horiz-adv-x="573" 
d="M268 552l138 72q26 -36 26 -83l-154 -23l111 -110q-26 -38 -71 -51l-68 138l-68 -139q-46 14 -71 52l110 109l-153 23q4 53 27 84l137 -73l-26 153q45 13 87 0z" />
    <glyph glyph-name="plus" unicode="+" horiz-adv-x="478" 
d="M428 314v-56h-159v-161h-59v161h-160v56h160v161h59v-161h159z" />
    <glyph glyph-name="comma" unicode="," horiz-adv-x="190" 
d="M56.5 75.5q14.5 14.5 38 14.5t38.5 -15t15 -49t-26.5 -75.5t-56.5 -54.5q-5 -2 -12.5 5.5t-7.5 11.5q31 22 42 71q-20 2 -32.5 17.5t-12.5 37.5t14.5 36.5z" />
    <glyph glyph-name="hyphen" unicode="-" horiz-adv-x="388" 
d="M48 279h292v-59h-292v59z" />
    <glyph glyph-name="period" unicode="." horiz-adv-x="190" 
d="M95 -15q-23 0 -38 15.5t-15 38.5t15 38t38 15t38 -15t15 -38t-15 -38.5t-38 -15.5z" />
    <glyph glyph-name="slash" unicode="/" horiz-adv-x="402" 
d="M87 -131h-67l294 827h68z" />
    <glyph glyph-name="zero" unicode="0" horiz-adv-x="504" 
d="M362 503.5q-35 66.5 -109.5 66.5t-110 -68.5t-35.5 -204.5t35.5 -198t110.5 -62t109.5 62.5t34.5 200t-35 204zM416.5 543.5q52.5 -79.5 52.5 -242t-53.5 -239.5t-163.5 -77t-163.5 77t-53.5 238t53.5 241t164.5 81t163.5 -78.5z" />
    <glyph glyph-name="one" unicode="1" horiz-adv-x="356" 
d="M285 0h-228v8q0 25 14 31q7 3 17 4l64 3v494l-72 -26q-16 -5 -27 8t-11 26l114 64q16 10 38 10q29 0 29 -34v-540l90 -6q4 -42 -28 -42z" />
    <glyph glyph-name="two" unicode="2" horiz-adv-x="456" 
d="M101.5 584.5q50.5 37.5 129.5 37.5t127 -43.5t48 -116.5q0 -110 -112 -240q-39 -45 -59.5 -66t-63 -61t-47.5 -45l241 3l9 61q3 21 20 29t27 2v-145h-379q-8 24 -6 36q44 39 109.5 107.5t81.5 89t40 53.5t35 58q30 64 30 113.5t-29 81t-83 31.5t-82.5 -35t-28.5 -98
q-24 -1 -41 12t-17 43q0 55 50.5 92.5z" />
    <glyph glyph-name="three" unicode="3" horiz-adv-x="435" 
d="M284.5 411.5q19.5 27.5 19.5 68t-25.5 66t-70 25.5t-68 -26.5t-24.5 -71.5q-29 2 -44 16.5t-12 37.5q3 39 46.5 67t112 28t114.5 -38t46 -101q0 -47 -30 -87.5t-91 -64.5q69 -11 109.5 -53.5t40.5 -106.5q0 -80 -61.5 -133t-158.5 -53q-67 0 -110.5 25.5t-43.5 66.5
t44 50q8 -42 37.5 -67t85.5 -25t94.5 37t37 91.5t-34.5 84t-75 37.5t-92 4l-1 55q51 0 106 26q29 14 48.5 41.5z" />
    <glyph glyph-name="four" unicode="4" horiz-adv-x="464" 
d="M449 197v-52h-88v-145l-69 -10v155h-252q-19 31 -21 48l277 419q32 9 63 2l1 -417h89zM292 197v327l-211 -327h211z" />
    <glyph glyph-name="five" unicode="5" horiz-adv-x="425" 
d="M216 377q82 0 134 -44t52 -136.5t-60 -152t-156 -59.5q-71 0 -111.5 23t-40.5 62q0 22 14.5 32t31.5 11q11 -78 110 -78q62 0 100 43t38 112.5t-39 99t-95 29.5t-104 -25l-13 7l14 312l266 -1l-4 -59h-213l-7 -187q41 11 83 11z" />
    <glyph glyph-name="six" unicode="6" horiz-adv-x="472" 
d="M127 309q66 43 145.5 43t122.5 -44t43 -126t-51.5 -139.5t-138.5 -57.5q-197 0 -197 262q0 183 65 279t183 96q55 0 84 -18t29 -46q0 -45 -48 -49q0 26 -18 45t-55 19q-69 0 -112 -68.5t-52 -195.5zM125 246q0 -211 125 -211q55 0 85 36.5t30 100.5t-29.5 96.5t-93 32.5
t-117.5 -44v-11z" />
    <glyph glyph-name="seven" unicode="7" horiz-adv-x="387" 
d="M18 613h352q9 -14 9 -33l-249 -587l-72 24l251 543l-235 -3l-9 -64q-3 -17 -22.5 -23.5t-24.5 0.5v143z" />
    <glyph glyph-name="eight" unicode="8" horiz-adv-x="454" 
d="M424 168q0 -73 -55 -128t-144 -55t-134.5 43t-47.5 104t36 110t96 81q-94 63 -94 148q0 66 44.5 108.5t112.5 42.5t112.5 -36t44.5 -99q0 -91 -97 -153q60 -36 93 -72.5t33 -93.5zM171.5 550q-27.5 -26 -27.5 -65t28.5 -67t90.5 -63q69 53 69 126q0 43 -24 69t-66.5 26
t-70 -26zM111 144q0 -46 30.5 -78t89.5 -32t94.5 32t35.5 77.5t-31 77.5t-88 63l-28 15q-45 -26 -74 -67.5t-29 -87.5z" />
    <glyph glyph-name="nine" unicode="9" horiz-adv-x="441" 
d="M211 622q197 0 197 -263q0 -182 -65.5 -278t-183.5 -96q-54 0 -83 18t-29 47q0 44 47 48q0 -26 18 -45t55 -19q69 0 112.5 68.5t52.5 195.5q-66 -43 -145 -43t-122.5 44.5t-43.5 126.5t51 139t139 57zM334 361q0 212 -125 212q-55 0 -85 -36.5t-30 -101.5
q0 -129 113 -129q73 0 127 44v11z" />
    <glyph glyph-name="colon" unicode=":" horiz-adv-x="192" 
d="M96 296q-23 0 -38.5 16t-15.5 39t15.5 39t38.5 16t38.5 -16t15.5 -39t-15.5 -39t-38.5 -16zM96 -15q-23 0 -38.5 15.5t-15.5 38.5t15.5 39t38.5 16t38.5 -16t15.5 -39t-15.5 -38.5t-38.5 -15.5z" />
    <glyph glyph-name="semicolon" unicode=";" horiz-adv-x="204" 
d="M70.5 71.5q14.5 14.5 38 14.5t38.5 -15t15 -49t-26.5 -75.5t-56.5 -54.5q-5 -2 -12.5 5.5t-7.5 11.5q31 22 42 71q-20 2 -32.5 17.5t-12.5 37.5t14.5 36.5zM95 303q-23 0 -38 15t-15 38t15 38.5t38 15.5t38 -15.5t15 -38.5t-15 -38t-38 -15z" />
    <glyph glyph-name="less" unicode="&#x3c;" horiz-adv-x="455" 
d="M404 433l-279 -145l278 -144l-28 -53l-337 176v42l338 177z" />
    <glyph glyph-name="equal" unicode="=" horiz-adv-x="478" 
d="M50 249h378v-57h-378v57zM50 384h378v-56h-378v56z" />
    <glyph glyph-name="greater" unicode="&#x3e;" horiz-adv-x="439" 
d="M64 407l337 -102v-24l-338 -103l-28 31l278 84l-277 83z" />
    <glyph glyph-name="question" unicode="?" horiz-adv-x="486" 
d="M172.5 77q15.5 15 38 15t37.5 -15t15 -38t-15 -38.5t-38 -15.5t-38 15.5t-15 38.5t15.5 38zM101 667.5q53 42.5 143.5 42.5t142.5 -44.5t52 -123.5t-60 -137t-138 -76l-6 -142q-22 -3 -49 0l-5 179q80 20 131.5 67t51.5 111q0 49 -32.5 83.5t-93.5 34.5t-95 -41.5
t-34 -95.5q-61 0 -61 48q0 52 53 94.5z" />
    <glyph glyph-name="at" unicode="@" horiz-adv-x="969" 
d="M503 -164q-201 0 -323.5 113.5t-122.5 304t124.5 310.5t328.5 120q181 0 291.5 -88t110.5 -230.5t-82.5 -227.5t-217.5 -85q-29 0 -42.5 10t-10.5 41q-68 -60 -141 -60t-112.5 51.5t-28 155.5t74 168.5t158.5 64.5q52 0 98 -23l2 12l64 7l-53 -380q107 -3 172 67t65 193
t-96 200.5t-253 77.5q-179 0 -287.5 -105.5t-108.5 -275.5t110 -272t289 -102q135 0 226 58l12 -45q-112 -60 -247 -60zM599 392q-39 41 -104 41t-102.5 -50.5t-48 -120t13 -116.5t87.5 -47q32 0 58 13t63 41z" />
    <glyph glyph-name="A" unicode="A" horiz-adv-x="610" 
d="M571 0h-192v8q0 26 14 34q7 3 17 4l46 2l-53 183h-212l-53 -181l75 -6q4 -44 -27 -44h-175v8q0 26 14 34q7 3 17 4l40 2l193 630q32 4 65 0l193 -628l65 -6q4 -44 -27 -44zM206 281h182l-90 313z" />
    <glyph glyph-name="B" unicode="B" horiz-adv-x="544" 
d="M42 6q0 39 31 39l46 4v579l-73 6q-4 45 26 45h209q100 0 150.5 -47t50.5 -118q0 -108 -111 -154q60 -11 102 -53t42 -108q1 -93 -61 -146t-168 -53h-244v6zM191 631v-257h43q91 0 131.5 34.5t40.5 101.5t-43.5 98t-122.5 26l-48 -3h-1zM440 189q0 79 -46 111t-148 30
l-55 -1v-280l70 -1q179 -3 179 141z" />
    <glyph glyph-name="C" unicode="C" horiz-adv-x="559" 
d="M335 692q81 0 135.5 -36.5t54.5 -92.5t-63 -57q0 63 -36 97.5t-99 34.5q-103 0 -157 -83t-54 -220q0 -289 223 -289q104 0 180 61q13 -7 13 -22q0 -31 -61 -65.5t-149 -34.5q-135 0 -207.5 88.5t-76 248t76 265t220.5 105.5z" />
    <glyph glyph-name="D" unicode="D" horiz-adv-x="665" 
d="M42 0v16q0 11 5.5 17.5t8.5 7.5t6.5 2.5t8.5 1.5l47 4v579l-72 6q-3 45 29 45h209q179 0 260.5 -82t81.5 -251.5t-87 -257.5t-254 -88h-243zM476 117.5q73 71.5 73 226t-76 224t-231 64.5l-51 -2h-1v-581l73 -1q140 -2 213 69.5z" />
    <glyph glyph-name="E" unicode="E" horiz-adv-x="552" 
d="M42 0v16q0 22 20 28q5 2 11 2l46 2v579l-73 6q-4 44 28 44h422v-141q0 -31 -44 -27l-10 113l-251 5v-267l192 13q7 -37 0 -72l-192 11v-262l265 7l10 106q44 4 44 -27v-136h-468z" />
    <glyph glyph-name="F" unicode="F" horiz-adv-x="514" 
d="M495 677v-134q0 -30 -44 -26l-11 109l-248 1v-256l192 13q6 -34 0 -72l-192 11v-273l87 -6q4 -44 -27 -44h-210v8q0 26 14 34q7 3 17 4l46 2v579l-73 6q-4 44 28 44h421z" />
    <glyph glyph-name="G" unicode="G" horiz-adv-x="627" 
d="M401 306h210v-8q0 -35 -31 -38l-25 -3h-2v-186q-33 -39 -99 -62.5t-136 -23.5q-130 0 -202.5 86.5t-76.5 250t78 268t234 104.5q101 0 151.5 -38t50.5 -90q0 -25 -14.5 -42.5t-47.5 -17.5q0 136 -154 136q-109 0 -165.5 -83.5t-56.5 -221.5t52.5 -217t167.5 -79
q97 0 151 46v168l-112 6q-4 45 27 45z" />
    <glyph glyph-name="H" unicode="H" horiz-adv-x="713" 
d="M640 0h-194v8q0 26 14 34q7 3 17 4l45 2v266h-331v-264l73 -6q4 -44 -27 -44h-195v8q0 26 14 34q7 3 17 4l46 2v579l-73 6q-4 44 27 44h195v-8q0 -27 -14 -33q-7 -4 -17 -5l-46 -2v-266h331v264l-72 6q-4 44 27 44h194v-8q0 -27 -14 -33q-7 -4 -17 -5l-45 -2v-579l72 -6
q4 -44 -27 -44z" />
    <glyph glyph-name="I" unicode="I" horiz-adv-x="310" 
d="M237 0h-195v8q0 26 14 34q7 3 17 4l46 2v579l-73 6q-4 44 27 44h195v-8q0 -27 -14 -33q-7 -4 -17 -5l-46 -2v-579l73 -6q4 -44 -27 -44z" />
    <glyph glyph-name="J" unicode="J" horiz-adv-x="328" 
d="M92 677h199v-8q0 -27 -14 -33q-7 -4 -17 -5l-42 -2v-499q0 -84 -40 -138t-108 -54q-34 0 -57.5 17.5t-23.5 40.5q0 48 49 46q2 -49 49 -49q30 0 44.5 28t14.5 99v507l-82 6q-4 44 28 44z" />
    <glyph glyph-name="K" unicode="K" horiz-adv-x="601" 
d="M401 677h172v-8q0 -27 -14 -33q-8 -5 -56 -7l-218 -264l228 -318l61 -6q4 -12 -1.5 -26.5t-25.5 -14.5h-91l-217 309l-48 -58v-201l75 -6q4 -44 -27 -44h-197v8q0 26 14 34q7 3 17 4l46 2v579l-73 6q-4 44 27 44h195v-8q0 -27 -14 -33q-7 -4 -17 -5l-46 -2v-305l246 303
l-64 6q-4 44 28 44z" />
    <glyph glyph-name="L" unicode="L" horiz-adv-x="527" 
d="M506 139v-139h-464v8q0 26 14 34q7 3 17 4l46 2v580l-74 6q-5 45 28 45h199v-8q0 -27 -14 -33q-7 -4 -17 -5l-50 -3v-580l260 5l11 110q44 4 44 -26z" />
    <glyph glyph-name="M" unicode="M" horiz-adv-x="808" 
d="M765 0h-186v8q0 26 15 34q7 3 17 4l42 2l-38 523l-187 -448q-25 -6 -45 -3l-195 434l-38 -504l73 -6q4 -44 -28 -44h-181v8q0 26 14 34q7 3 17 4l45 2l46 580l-71 6q-5 45 28 45h119l202 -454l186 454h124q32 0 28 -45l-70 -6l45 -576l66 -8q4 -44 -28 -44z" />
    <glyph glyph-name="N" unicode="N" horiz-adv-x="685" 
d="M483 677h178v-8q0 -27 -14 -33q-7 -4 -17 -5l-47 -2v-618q-25 -11 -52 -11l-357 550v-500l73 -6q4 -44 -27 -44h-178v8q0 26 14 34q7 3 17 4l46 2v579l-73 6q-4 44 27 44h106l350 -540v490l-73 6q-4 44 27 44z" />
    <glyph glyph-name="O" unicode="O" horiz-adv-x="642" 
d="M165 557q-52 -81 -52 -218.5t50.5 -219t155.5 -81t158 81t53 218t-51.5 220t-156.5 81.5t-157 -82zM333 692q81 0 143 -40q124 -80 127 -296q2 -169 -75.5 -270t-223.5 -101q-122 0 -192 88t-73 250t75 265.5t219 103.5z" />
    <glyph glyph-name="P" unicode="P" horiz-adv-x="551" 
d="M72 679h210q123 0 186 -52.5t63 -136.5q0 -114 -74.5 -166t-199.5 -52q-33 0 -66 3v-225l76 -6q4 -44 -28 -44h-197v8q0 26 14 34q7 3 17 4l46 2v581l-73 6q-3 44 26 44zM248 319q206 0 206 159q0 169 -209 156l-54 -3v-310q20 -2 57 -2z" />
    <glyph glyph-name="Q" unicode="Q" horiz-adv-x="655" 
d="M607 -60q8 -10 8 -30.5t-18 -35.5t-45 -15t-55.5 7.5t-60.5 24t-53.5 29t-58 36t-48.5 30.5q-109 10 -171.5 97.5t-65.5 231.5q-3 170 75 273.5t219 103.5q81 0 143 -40q124 -80 127 -296q2 -150 -60 -247.5t-179 -118.5q134 -66 193 -66q25 0 50 16zM165 557
q-52 -81 -52 -218.5t50.5 -219t155.5 -81t158 81t53 218t-51.5 220t-156.5 81.5t-157 -82z" />
    <glyph glyph-name="R" unicode="R" horiz-adv-x="577" 
d="M42 0v16q0 22 20 28q5 2 11 2l46 2v581l-73 6q-3 44 26 44h219q219 0 219 -166q0 -82 -51.5 -131.5t-135.5 -63.5q61 -129 127.5 -201t115.5 -72q-1 -27 -15.5 -43.5t-36.5 -16.5q-41 0 -92 53q-97 102 -160 275h-3q-33 0 -68 3v-266l76 -6q4 -44 -27 -44h-198zM191 631
v-269q42 -2 59 -2q90 0 137 37t47 103q0 88 -56 115q-48 23 -125 19l-60 -3h-2z" />
    <glyph glyph-name="S" unicode="S" horiz-adv-x="496" 
d="M406 650q32 -27 32 -63t-18.5 -51.5t-44.5 -14.5q0 116 -122 116q-57 0 -94.5 -27t-37.5 -75q0 -57 55 -92q30 -19 49 -28t60 -26.5t63.5 -28.5t49.5 -28.5t40 -33.5q32 -41 32 -95q0 -90 -67.5 -154t-177.5 -64q-79 0 -139.5 32t-60.5 85q0 26 15.5 43t42.5 17
q12 -60 53 -91t109 -31t112 37.5t44 99.5q0 58 -41 88q-32 24 -68.5 39.5t-63.5 27.5t-54.5 26.5t-59.5 37.5q-62 45 -62 122t59.5 124.5t147.5 49.5q93 2 147 -42z" />
    <glyph glyph-name="T" unicode="T" horiz-adv-x="603" 
d="M20 677h563v-120q0 -32 -44 -28l-7 97h-193v-576l76 -6q4 -44 -28 -44h-199v8q0 26 14 34q7 3 17 4l48 2v578h-196l-7 -97q-44 -4 -44 28v120z" />
    <glyph glyph-name="U" unicode="U" horiz-adv-x="646" 
d="M450 677h174v-8q0 -27 -14 -33q-7 -4 -17 -5l-44 -2v-375q0 -128 -57.5 -198.5t-179.5 -70.5q-216 0 -216 256v386l-73 6q-4 44 27 44h195v-8q0 -26 -15 -33q-7 -4 -17 -5l-45 -2l-1 -384q0 -208 154 -208q83 0 128.5 50.5t45.5 154.5v385l-73 6q-4 44 28 44z" />
    <glyph glyph-name="V" unicode="V" horiz-adv-x="614" 
d="M454 677h155v-8q0 -35 -31 -38l-20 -2l-229 -629h-55l-213 627l-56 6q-4 44 28 44h185v-8q0 -27 -14 -33q-7 -4 -17 -5l-46 -2h-1l173 -533l186 531l-72 6q-4 44 27 44z" />
    <glyph glyph-name="W" unicode="W" horiz-adv-x="945" 
d="M784 677h157q-1 -3 0 -8t-0.5 -11.5t-4.5 -11.5q-6 -13 -26 -15l-18 -2l-204 -629h-60l-155 487l-169 -487h-57l-188 627l-54 6q-4 44 27 44h182v-8q0 -27 -14 -33q-7 -4 -17 -5l-43 -2l145 -525l171 512h59l152 -515l163 526l-74 6q-4 44 28 44z" />
    <glyph glyph-name="X" unicode="X" horiz-adv-x="623" 
d="M584 0h-181v8q0 8 1.5 12t3.5 11q5 13 27 15l30 2h1l-163 241l-156 -239h1l63 -6q4 -44 -28 -44h-171v8q0 26 14 34q8 3 51 6l196 285l-200 295l-58 6q-5 45 28 45h182v-8q0 -27 -14 -33q-7 -4 -51 -8l162 -239l145 237l-62 6q-5 45 27 45h164v-8q0 -26 -15 -33
q-7 -4 -39 -7h-6l-184 -284l202 -297l58 -6q4 -44 -28 -44z" />
    <glyph glyph-name="Y" unicode="Y" horiz-adv-x="592" 
d="M431 679h156v-8q0 -35 -31 -38l-21 -3l-199 -354v-226l73 -6q4 -44 -27 -44h-197v8q0 26 15 34q7 3 17 4l45 2v226l-200 354h-1l-56 6q-5 45 28 45h187v-8q0 -27 -14 -33q-7 -4 -17 -5l-45 -3l168 -301l162 299l-71 6q-5 45 28 45z" />
    <glyph glyph-name="Z" unicode="Z" horiz-adv-x="533" 
d="M504 0h-471q-7 10 -12 28l386 605l-281 -9l-12 -90q-3 -23 -17 -31.5t-30 -4.5v187h424q9 -11 14 -27l-386 -608l325 11l13 96q5 43 47 35v-192z" />
    <glyph glyph-name="bracketleft" unicode="[" horiz-adv-x="224" 
d="M127 650v-780h83v-45h-146v870h146v-45h-83z" />
    <glyph glyph-name="backslash" unicode="\" horiz-adv-x="402" 
d="M381 -131h-67l-295 827h68z" />
    <glyph glyph-name="bracketright" unicode="]" horiz-adv-x="216" 
d="M97 -130v780h-83v45h146v-870h-146v45h83z" />
    <glyph glyph-name="asciicircum" unicode="^" horiz-adv-x="486" 
d="M434 204h-65l-122 337l-128 -337h-67l175 449h42z" />
    <glyph glyph-name="underscore" unicode="_" horiz-adv-x="384" 
d="M-38 -85h460v-55h-460v55z" />
    <glyph glyph-name="grave" unicode="`" horiz-adv-x="552" 
d="M269 534l-199 107q9 17 27 32t36 17l165 -127q-11 -20 -29 -29z" />
    <glyph glyph-name="a" unicode="a" horiz-adv-x="502" 
d="M484 31q0 -47 -62 -47t-72 63q-64 -62 -154 -62q-69 0 -109.5 35.5t-40.5 96.5t45 103t149 42q61 0 108 -14v79q0 57 -28.5 91.5t-83.5 34.5t-78.5 -29.5t-26.5 -68.5q-24 -2 -40 10t-16 39q0 43 44 71.5t114 28.5q61 0 116 -30q31 -16 50 -53t19 -90v-292zM348 188
q-46 25 -107 25t-89.5 -23t-28.5 -63t25 -63.5t69 -23.5q70 0 131 54v94z" />
    <glyph glyph-name="b" unicode="b" horiz-adv-x="552" 
d="M160 433q73 71 156.5 71t139 -61t58 -184t-60.5 -198.5t-177 -75.5q-57 0 -116 26l-69 26v594l-52 6q-24 2 -24 43l145 18v-265zM160 88q54 -49 130.5 -49t112.5 59t36 147t-35.5 144t-109.5 56q-37 0 -66 -15t-68 -47v-295z" />
    <glyph glyph-name="c" unicode="c" horiz-adv-x="452" 
d="M275 504q64 0 101.5 -26t37.5 -69q0 -55 -56 -53q-1 37 -25.5 65.5t-73.5 28.5q-71 0 -108.5 -59t-37.5 -149q0 -79 31 -136q36 -63 124 -63q72 0 137 53q13 -9 13 -24q0 -30 -57 -58.5t-122 -28.5q-95 0 -146.5 66t-53.5 180.5t61 193.5t175 79z" />
    <glyph glyph-name="d" unicode="d" horiz-adv-x="544" 
d="M465 -15q-66 0 -71 73q-73 -73 -157 -73t-139.5 61.5t-58.5 184t60.5 198t177.5 75.5q61 0 116 -26v153l-52 6q-24 2 -24 43l145 18v-658l64 -8q-2 -47 -61 -47zM393 401q-54 49 -130.5 49t-113 -58.5t-36.5 -146.5t36 -144.5t110 -56.5q37 0 66 15t68 48v294z" />
    <glyph glyph-name="e" unicode="e" horiz-adv-x="461" 
d="M430 263h-314q-1 -10 -1 -31q0 -85 36 -137.5t112 -52.5t145 54q12 -10 12 -25q0 -28 -54.5 -57t-122.5 -29q-93 0 -148.5 61t-55.5 186t66 198.5t156 73.5t130 -57t39 -136v-48zM357 308q0 67 -26 106.5t-75.5 39.5t-84.5 -39t-49 -107h235z" />
    <glyph glyph-name="f" unicode="f" horiz-adv-x="321" 
d="M47 443v18q0 11 5 17.5t8 7.5q9 3 15 3h43v37q0 89 38.5 138t108.5 49q35 1 59 -12.5t24 -38t-13 -36.5t-34 -12q-1 25 -15.5 39t-41.5 14q-57 0 -57 -118v-60h123q4 -46 -29 -46h-94v-396l98 -6v-17q0 -12 -5 -15q-10 -9 -22 -9h-213v8q0 24 14 30q7 4 17 5l42 2v398
h-71z" />
    <glyph glyph-name="g" unicode="g" horiz-adv-x="463" 
d="M198 95l30 -1q122 -2 172.5 -28.5t50.5 -97.5q0 -87 -64 -140.5t-164.5 -53.5t-152.5 37.5t-52 96.5q0 76 79 135q-25 13 -25 45.5t50 84.5q-76 39 -81 134q-5 80 45 138.5t136 58.5q57 0 101 -28l121 32q9 -12 10 -30t-10 -28q-16 -8 -86 -6q32 -42 30.5 -115.5
t-48 -124.5t-130.5 -51q-23 0 -46 5q-40 -47 -20 -56q18 -7 54 -7zM109 328q0 -54 27.5 -92t77 -37t78 39t28.5 91.5t-27 91t-77 36.5t-78.5 -38t-28.5 -91zM119 -141.5q42 -24.5 116 -24.5t119 34t45 82q0 47 -53 62q-46 12 -117.5 14t-95.5 6q-56 -49 -56 -99t42 -74.5z
" />
    <glyph glyph-name="h" unicode="h" horiz-adv-x="619" 
d="M567 0h-190v8q0 32 32 35l41 2v251q0 73 -31 109.5t-80.5 36.5t-81 -16t-67.5 -48v-331l76 -6q4 -41 -28 -41h-190v8q0 24 14 30q7 4 17 5l42 2v586l-52 5q-24 3 -24 43l145 19v-265q69 71 157 71q70 0 120 -48.5t51 -153.5l1 -255l75 -6q4 -41 -27 -41z" />
    <glyph glyph-name="i" unicode="i" horiz-adv-x="291" 
d="M238 0h-190v8q0 24 14 30q7 4 17 5l42 2v396l-52 4q-24 3 -24 43l145 16v-457l76 -6q4 -41 -28 -41zM147 582q-22 0 -35.5 13.5t-13.5 35.5t13.5 36t35.5 14t36 -14t14 -36t-14 -35.5t-36 -13.5z" />
    <glyph glyph-name="j" unicode="j" horiz-adv-x="249" 
d="M125 681q22 0 36 -14t14 -36t-14 -35.5t-36 -13.5t-35.5 13.5t-13.5 35.5t13.5 36t35.5 14zM167 9q0 -106 -38.5 -170.5t-116.5 -64.5q-29 0 -53 14t-24 38.5t13 36t34 10.5q2 -45 47 -45q34 0 51.5 29t17.5 103v481l-53 5q-23 3 -23 42l145 16v-495z" />
    <glyph glyph-name="k" unicode="k" horiz-adv-x="537" 
d="M344 489h157v-7q0 -24 -14 -30q-7 -4 -46 -8l-143 -157l175 -240l67 -6q4 -41 -29 -41h-82l-175 239l-64 -70v-122l76 -6q4 -41 -27 -41h-191v8q0 24 14 30q7 4 17 5l42 2v586l-52 6q-24 2 -24 43l145 18v-464l186 208l-60 6q-4 41 28 41z" />
    <glyph glyph-name="l" unicode="l" horiz-adv-x="286" 
d="M234 0h-188v8q0 32 32 35l43 2v587l-52 5q-24 3 -24 42l145 19v-651l71 -6q4 -41 -27 -41z" />
    <glyph glyph-name="m" unicode="m" horiz-adv-x="930" 
d="M878 0h-189v8q0 24 14 30q7 4 17 5l41 2v250q0 146 -118 146q-41 0 -72 -17.5t-68 -51.5q9 -28 9 -71v-254l75 -6q4 -41 -27 -41h-190v8q0 24 14 30q7 4 17 5l41 2v250q0 72 -31.5 109t-87.5 37q-39 0 -69 -16t-64 -47v-331l76 -6q4 -41 -28 -41h-190v8q0 24 14 30
q7 4 17 5l42 2v397l-44 1q-32 0 -32 43l129 17l12 -70h3q67 71 150 71q45 0 86 -22t63 -69q35 41 74.5 66t102.5 25t114 -49t51 -154v-254l76 -6q4 -41 -28 -41z" />
    <glyph glyph-name="n" unicode="n" horiz-adv-x="613" 
d="M561 0h-186v8q0 24 14 30q7 4 17 5l44 2v259q0 140 -111 140q-41 0 -74 -16t-75 -51v-330l71 -6q4 -41 -27 -41h-188v8q0 32 32 35l43 2v394l-52 6q-24 2 -24 41l129 17l13 -76h3q81 77 167 77q67 0 114.5 -47t47.5 -145v-265l70 -6q4 -41 -28 -41z" />
    <glyph glyph-name="o" unicode="o" horiz-adv-x="508" 
d="M150 393q-37 -59 -37 -150.5t36 -149t104 -57t105 57.5t37 147.5t-35.5 151t-104 60t-105.5 -59.5zM261 504q76 0 137 -48q32 -26 51.5 -76t19.5 -120q2 -124 -58 -199.5t-162 -75.5t-155 64t-54.5 185t59 195.5t162.5 74.5z" />
    <glyph glyph-name="p" unicode="p" horiz-adv-x="548" 
d="M154 430q78 74 160 74t137.5 -61.5t58 -184t-60.5 -198t-177 -75.5q-57 0 -116 26v-178l76 -6q4 -41 -28 -41h-190v8q0 24 14 30q8 3 59 7v606l-53 6q-23 2 -23 39l129 17zM156 88q52 -49 130 -49t113.5 59t35.5 147t-35.5 144t-109.5 56q-37 0 -66 -15t-68 -47v-295z
" />
    <glyph glyph-name="q" unicode="q" horiz-adv-x="523" 
d="M507 -214h-189v8q0 24 14 30q8 3 59 7v215q-69 -61 -153 -61t-140.5 62t-58.5 183.5t60 197.5t175 76q62 0 117 -25v5l70 5v-656l74 -6q4 -41 -28 -41zM391 403q-55 47 -130.5 47t-111.5 -58.5t-36 -146.5t36.5 -143.5t111.5 -55.5q38 0 66 13t64 41v303z" />
    <glyph glyph-name="r" unicode="r" horiz-adv-x="406" 
d="M264.5 479.5q44.5 24.5 73 24.5t46.5 -13.5t18 -42.5q0 -52 -17 -71q-13 -11 -41 -9q0 72 -38 72q-48 0 -116 -68v-325l86 -6q4 -41 -28 -41h-200v8q0 24 14 30q7 4 17 5l42 2v391l-54 6q-22 2 -22 41l135 17l7 -77h3q30 32 74.5 56.5z" />
    <glyph glyph-name="s" unicode="s" horiz-adv-x="395" 
d="M94 467q52 38 113.5 37t101.5 -21.5t39 -60.5q-1 -27 -19 -39t-39 -10q1 35 -21.5 57t-65.5 23t-71.5 -19.5t-29.5 -52.5t28.5 -51.5t83.5 -40.5t73.5 -30.5t42.5 -25.5q43 -30 41.5 -91t-53.5 -109.5t-139 -47.5q-62 2 -109 26.5t-47 67.5q1 23 15.5 36.5t35.5 12.5
q8 -41 40.5 -66t80.5 -25.5t80 22t33 59.5t-22.5 56t-67.5 35.5t-61.5 23.5t-43 21t-39.5 28q-33 35 -33 82q1 65 53 103z" />
    <glyph glyph-name="t" unicode="t" horiz-adv-x="374" 
d="M163 443v-294q0 -56 12.5 -81t48 -25t59.5 8t59 36q18 -5 18 -30t-48.5 -49t-93.5 -24q-70 0 -97 40t-27 116v303h-73q-3 46 29 46h44v119l69 17v-136h187q3 -33 -15 -46h-172z" />
    <glyph glyph-name="u" unicode="u" horiz-adv-x="572" 
d="M16 460q0 29 28 29h117v-295q0 -74 31 -111.5t92.5 -37.5t124.5 55v342l-77 5q-4 42 27 42h119v-432l49 -5q23 -2 23 -43l-121 -10l-13 53q-67 -67 -153 -67q-69 0 -120 49t-51 154v254l-76 5v13z" />
    <glyph glyph-name="v" unicode="v" horiz-adv-x="478" 
d="M345 489h129q2 -40 -30 -42l-6 -1l-180 -446h-47l-168 442l-39 6q-3 41 26 41h160v-7q0 -8 -1.5 -11.5t-4.5 -9.5q-4 -12 -26 -14l-38 -3l124 -349l130 347l-57 6q-4 41 28 41z" />
    <glyph glyph-name="w" unicode="w" horiz-adv-x="704" 
d="M571 489h129q4 -40 -29 -42l-6 -1l-166 -446h-42l-108 310l-116 -310h-41l-148 442l-40 6q-3 41 26 41h160v-7q0 -8 -1.5 -11.5t-4.5 -9.5q-4 -12 -26 -14l-37 -3l103 -348l123 351h34l108 -343l112 338l-57 6q-4 41 27 41z" />
    <glyph glyph-name="x" unicode="x" horiz-adv-x="486" 
d="M452 0h-161v8q0 32 31 35l30 2l-116 160l-102 -158l59 -6q4 -41 -27 -41h-157v8q0 32 32 35l34 2l136 196l-146 201l-50 6q-4 41 28 41h162v-7q0 -22 -10.5 -28t-20.5 -7l-29 -3l114 -157l99 155l-52 6q-4 41 27 41h140q-1 -3 0 -8t-0.5 -11t-4.5 -11q-6 -12 -26 -12
l-24 -2h-1l-132 -194l148 -204l47 -6q4 -41 -28 -41z" />
    <glyph glyph-name="y" unicode="y" horiz-adv-x="495" 
d="M360 489h132q-1 -3 0 -7.5t-0.5 -10t-3.5 -10.5q-6 -12 -38 -15l-171 -421h1q-27 -72 -54.5 -124t-43.5 -71q-39 -49 -77 -49t-56 15.5t-18 37t11.5 35t26 13.5t19.5 -2q-9 -40 23 -40q26 0 59 59t59 125l-174 418h-1l-49 6q-4 41 28 41h168v-7q0 -24 -14 -30
q-8 -4 -55 -8l130 -335l128 333l-58 6q-4 41 28 41z" />
    <glyph glyph-name="z" unicode="z" horiz-adv-x="400" 
d="M51 489h320q8 -11 13 -30l-282 -414l231 4l6 57q2 20 19 28t27 2v-136h-359q-8 11 -11 29l285 419l-198 -5l-4 -56q-2 -21 -19 -29t-28 -2v133z" />
    <glyph glyph-name="braceleft" unicode="{" horiz-adv-x="319" 
d="M137.5 672q36.5 36 93 36t76.5 -13l-6 -35q-20 2 -30 2q-105 0 -105 -91q0 -23 8.5 -86t8.5 -99q0 -109 -51 -125v-7q51 -16 51 -124q0 -32 -8.5 -97t-8.5 -89q0 -92 105 -92q10 0 30 2l6 -34q-25 -13 -80 -13t-90.5 36t-35.5 96q0 35 8 99.5t8 108t-23 69.5
q-10 13 -44 28v27q32 12 44 28q23 26 23 69.5t-8 107t-8 100.5q0 60 36.5 96z" />
    <glyph glyph-name="bar" unicode="|" horiz-adv-x="263" 
d="M100 -195v903h63v-903h-63z" />
    <glyph glyph-name="braceright" unicode="}" horiz-adv-x="319" 
d="M-3 695q20 13 76.5 13t93 -36t36.5 -96q0 -37 -8 -100.5t-8 -107t23 -69.5q12 -16 44 -28v-27q-34 -15 -44 -28q-23 -26 -23 -69.5t8 -108t8 -99.5q0 -60 -35.5 -96t-90.5 -36t-80 13l6 34q20 -2 30 -2q105 0 105 92q0 24 -8.5 89t-8.5 97q0 108 51 124v7q-51 16 -51 125
q0 36 8.5 99t8.5 86q0 91 -105 91q-10 0 -30 -2z" />
    <glyph glyph-name="asciitilde" unicode="~" horiz-adv-x="548" 
d="M131 241l-31 14q13 46 44 70.5t65 22.5t74 -31t66 -30t43.5 12.5t24.5 35.5l31 -10q-10 -46 -39.5 -72.5t-70 -24.5t-82.5 29.5t-63.5 28.5t-37.5 -12.5t-24 -32.5z" />
    <glyph glyph-name="uni00A0" unicode="&#xa0;" horiz-adv-x="268" 
 />
    <glyph glyph-name="exclamdown" unicode="&#xa1;" horiz-adv-x="249" 
d="M89 -18l11 499q24 8 47 0l20 -504q-45 -7 -78 5zM87 673.5q15 15.5 37.5 15.5t37.5 -15.5t15 -38.5t-15 -38t-37.5 -15t-37.5 15t-15 38t15 38.5z" />
    <glyph glyph-name="cent" unicode="&#xa2;" horiz-adv-x="479" 
d="M425 409q0 -55 -56 -53q-1 40 -25.5 69t-73.5 29q-71 0 -108.5 -59.5t-37.5 -148.5t35.5 -146.5t114 -57.5t143.5 52q12 -9 12 -24q0 -25 -39.5 -49t-93.5 -33l6 -93q-35 -13 -67 0l7 89q-91 3 -140.5 68t-51.5 173.5t49 184.5t144 91l-8 95q34 12 67 0l-6 -92
q60 -2 94.5 -28t34.5 -67z" />
    <glyph glyph-name="sterling" unicode="&#xa3;" horiz-adv-x="508" 
d="M152 320q6 57 6 69q15 229 186 229q45 0 78 -19t33 -53q0 -60 -58 -57q0 80 -68 80q-44 0 -74 -44.5t-37 -135.5q-4 -50 -6 -69h173v-49h-178q-9 -102 -18.5 -152.5t-33.5 -70.5h304q4 -48 -37 -48h-367q-6 12 -6 34q33 9 50.5 26t26.5 50.5t21 160.5h-89v49h94z" />
    <glyph glyph-name="currency" unicode="&#xa4;" horiz-adv-x="583" 
d="M296 145q58 0 93.5 37.5t35.5 97.5t-35.5 97.5t-93.5 37.5t-94 -37.5t-36 -97.5t36 -97.5t94 -37.5zM447 404q40 -51 40 -124t-37 -122l84 -73q-23 -32 -46 -45l-75 84q-47 -36 -118 -36t-122 38l-78 -86q-23 13 -46 45l89 77q-35 47 -35 118t37 120l-91 79q24 32 46 44
l79 -88q51 37 120 37t117 -34l77 85q22 -12 46 -44z" />
    <glyph glyph-name="yen" unicode="&#xa5;" horiz-adv-x="573" 
d="M400 613h163v-8q0 -35 -32 -38l-23 -3h-2l-151 -244h99v-50h-122v-51h122v-50h-122v-119l74 -6q4 -44 -28 -44h-192v8q0 26 14 34q7 3 17 4l46 2v121h-136v50h136v51h-136v50h109l-166 242l-58 6q-4 45 28 45h185v-8q0 -27 -14 -33q-8 -5 -54 -7l148 -234l137 231l-70 6
q-4 45 28 45z" />
    <glyph glyph-name="brokenbar" unicode="&#xa6;" horiz-adv-x="263" 
d="M100 340v368h63v-368h-63zM163 173v-368h-63v368h63z" />
    <glyph glyph-name="section" unicode="&#xa7;" horiz-adv-x="529" 
d="M487 -47q0 -90 -67.5 -154t-177.5 -64q-79 0 -139.5 32t-60.5 85q0 26 15.5 43t42.5 17q12 -59 53 -89.5t107 -30.5t112 35t46 99q0 41 -26 76q-16 22 -73 48q-13 6 -56 24.5t-72 33.5t-61 38q-61 46 -61 122t64 127q-64 49 -64 125t62.5 123.5t145.5 49.5q90 2 146 -43
q32 -26 32 -62t-18.5 -51.5t-44.5 -14.5q0 54 -30 84t-89.5 30t-97 -26.5t-37.5 -73.5q0 -56 56 -92q30 -19 47.5 -27.5t61.5 -27.5q97 -40 140.5 -77.5t43.5 -111.5t-51 -133q51 -45 51 -114zM193 194q44 -28 107.5 -54.5t91.5 -42.5q26 34 26 80q0 42 -26 75q-9 12 -34 27
q-32 19 -81.5 39.5t-95.5 44.5q-43 -26 -43 -79.5t55 -89.5z" />
    <glyph glyph-name="dieresis" unicode="&#xa8;" horiz-adv-x="600" 
d="M374 578q-15 -15 -36.5 -15t-36.5 15t-15 36.5t15 37t36.5 15.5t36.5 -15.5t15 -37t-15 -36.5zM173 563q-22 0 -37 15t-15 36.5t15 37t36.5 15.5t36.5 -15.5t15 -37t-14.5 -36.5t-36.5 -15z" />
    <glyph glyph-name="copyright" unicode="&#xa9;" horiz-adv-x="654" 
d="M405.5 448q21.5 -15 21.5 -35t-11 -28t-25 -8q0 20 -13.5 33.5t-44 13.5t-50.5 -31.5t-20 -79.5q0 -106 85 -106q45 0 75 23q7 -4 7 -19.5t-28.5 -31.5t-66.5 -16q-60 0 -93 38t-33.5 104.5t36 112t102.5 45.5q37 0 58.5 -15zM485 476q-61 62 -159 62t-158 -63.5
t-60 -165t60.5 -163.5t159 -62t158.5 62t60 165t-61 165zM126 511.5q76 76.5 201 76.5t201 -76t76 -201t-75.5 -201t-201 -76t-201.5 76t-76 200.5t76 201z" />
    <glyph glyph-name="ordfeminine" unicode="&#xaa;" horiz-adv-x="326" 
d="M262 334q-41 0 -53 31q-34 -31 -79.5 -31t-70 20.5t-24.5 56t28 58t91 22.5q31 0 52 -4v29q0 66 -54 66q-28 0 -41.5 -14t-14.5 -35q-18 -2 -30 6t-12 30t26.5 38.5t73.5 16.5t79.5 -25t32.5 -80v-146l38 -4q0 -14 -10.5 -24.5t-31.5 -10.5zM156 455q-25 0 -40 -10.5
t-15 -27.5t12.5 -28.5t37.5 -11.5t55 20v48q-25 10 -50 10z" />
    <glyph glyph-name="guillemotleft" unicode="&#xab;" horiz-adv-x="556" 
d="M333 437l-192 -191v-6l194 -191l-32 -30l-244 202q-5 21 0 44l244 202zM524 437l-192 -191v-6l194 -191l-32 -30l-244 202q-5 21 0 44l244 202z" />
    <glyph glyph-name="logicalnot" unicode="&#xac;" horiz-adv-x="480" 
d="M430 317v-57l-1 -109h-58l1 109h-322v57h380z" />
    <glyph glyph-name="uni00AD" unicode="&#xad;" horiz-adv-x="388" 
d="M48 279h292v-59h-292v59z" />
    <glyph glyph-name="registered" unicode="&#xae;" horiz-adv-x="595" 
d="M298 702q104 0 167.5 -64t63.5 -170t-64 -169.5t-167 -63.5t-167.5 64t-64.5 168.5t64 169.5t168 65zM167.5 331.5q50.5 -51.5 131 -51.5t130 50.5t49.5 135.5t-48.5 137.5t-129.5 52.5t-132 -51.5t-51 -136.5t50.5 -136.5zM209 602h91q90 0 90 -62q0 -57 -67 -71
q46 -92 93 -92q-2 -28 -32.5 -28t-58.5 36.5t-44 80.5h-11v-83l31 -2q0 -28 -15 -28h-90q0 28 14 29l15 1v190l-29 1q0 28 13 28zM270 574v-81q4 -1 23 -1t35 12t16 32q0 38 -54 38h-20z" />
    <glyph glyph-name="macron" unicode="&#xaf;" horiz-adv-x="600" 
d="M126 635h263v-57h-263v57z" />
    <glyph glyph-name="degree" unicode="&#xb0;" horiz-adv-x="324" 
d="M104 580q0 -27 16.5 -44.5t42.5 -17.5t41.5 17t15.5 44t-16 44t-42 17t-42 -16.5t-16 -43.5zM52 579q0 47 31.5 76.5t79.5 29.5t78.5 -29t30.5 -76.5t-30.5 -77t-79 -29.5t-79.5 29.5t-31 76.5z" />
    <glyph glyph-name="plusminus" unicode="&#xb1;" horiz-adv-x="478" 
d="M268 314h160v-56h-160v-119h-58v119h-160v56h160v161h58v-161zM50 52v56h378v-56h-378z" />
    <glyph glyph-name="twosuperior" unicode="&#xb2;" horiz-adv-x="321" 
d="M287 277h-245q-9 22 -6 31q15 10 32 25.5t34 30.5t24.5 22t21.5 21.5t21 24t17 23.5t14 25q12 28 12 51t-15 38.5t-42 15.5q-63 0 -63 -78q-47 -2 -47 39q0 33 32.5 55t84 22t82 -25.5t30.5 -67.5q0 -92 -165 -212h139l4 33q2 14 13.5 19t21.5 1v-94z" />
    <glyph glyph-name="threesuperior" unicode="&#xb3;" horiz-adv-x="302" 
d="M95 472q32 0 65.5 17t33.5 54q0 20 -12.5 31.5t-37 11.5t-38 -15.5t-14.5 -38.5q-22 1 -32 10t-8.5 28t28 35.5t72.5 16.5t75.5 -20.5t29.5 -56.5q0 -59 -79 -84q44 -5 70 -28t26 -63t-38.5 -70.5t-92.5 -30.5t-81.5 16t-27.5 40q0 31 36 34q2 -23 20 -37.5t49 -14.5
t51.5 17t20.5 46q-2 67 -116 61v41z" />
    <glyph glyph-name="acute" unicode="&#xb4;" horiz-adv-x="600" 
d="M408 641l-199 -107q-18 9 -29 29l165 127q18 -2 36 -17t27 -32z" />
    <glyph glyph-name="uni00B5" unicode="&#xb5;" horiz-adv-x="563" 
d="M484 -16q-61 0 -71 60q-63 -59 -137 -59t-118 40l6 -220q-12 -5 -36.5 -5t-35.5 5l6 357q-1 8 -1 26v301h69v-295q0 -74 31 -111.5t92.5 -37.5t120.5 51v393h69v-450l66 -8q0 -47 -61 -47z" />
    <glyph glyph-name="paragraph" unicode="&#xb6;" horiz-adv-x="602" 
d="M273 679h253q30 0 27 -44l-73 -6v-719h-73v719h-72v-719h-74v385q-73 0 -137 39q-34 21 -54.5 61t-20.5 94q0 83 57.5 136.5t166.5 53.5z" />
    <glyph glyph-name="periodcentered" unicode="&#xb7;" horiz-adv-x="188" 
d="M94 203q-23 0 -38.5 15.5t-15.5 38.5t15.5 39t38.5 16t38.5 -16t15.5 -39t-15.5 -38.5t-38.5 -15.5z" />
    <glyph glyph-name="cedilla" unicode="&#xb8;" horiz-adv-x="600" 
d="M360 -61.5q20 -19.5 20 -53t-26 -55.5t-70 -22t-70 28q-3 21 12 31q23 -18 50 -18q46 0 46 37q0 17 -15.5 26t-57.5 9l25 97h39l-14 -60q41 0 61 -19.5z" />
    <glyph glyph-name="onesuperior" unicode="&#xb9;" horiz-adv-x="273" 
d="M53 290q0 28 23 28l37 1v238l-40 -12q-12 -4 -21.5 7t-9.5 18l81 43q12 6 31 6t19 -24v-275l58 -3q0 -32 -22 -32h-156v5z" />
    <glyph glyph-name="ordmasculine" unicode="&#xba;" horiz-adv-x="365" 
d="M224 552q-17 30 -48.5 30t-49.5 -29.5t-18 -77t17.5 -75.5t48.5 -28t49 28t18 75t-17 77zM80 582.5q36 41.5 95 41.5t94 -36.5t35.5 -106t-35.5 -110t-98 -40.5t-93.5 36.5t-32.5 105t35 110z" />
    <glyph glyph-name="guillemotright" unicode="&#xbb;" horiz-adv-x="556" 
d="M225 246l-193 191l30 30l244 -202q6 -23 0 -44l-244 -202l-32 30l195 191v6zM415 246l-192 191l30 30l244 -202q5 -23 0 -44l-244 -202l-32 30l194 191v6z" />
    <glyph glyph-name="onequarter" unicode="&#xbc;" horiz-adv-x="629" 
d="M600 106v-38h-52v-72l-59 -6v78h-146q-14 20 -15 33l170 238q27 7 50 2v-235h52zM489 106v157l-112 -157h112zM469 622h64l-355 -622h-63zM39 282q0 28 23 28l37 2v245l-40 -13q-13 -3 -22.5 8.5t-8.5 18.5l81 44q12 6 31 6t19 -25v-283l57 -4q0 -3 0.5 -10.5t-5.5 -15
t-17 -7.5h-155v6z" />
    <glyph glyph-name="onehalf" unicode="&#xbd;" horiz-adv-x="629" 
d="M612 0h-245q-8 19 -6 31q15 10 32 25.5t34 30t24.5 22t21.5 22t21 24t17 23.5t15 24q11 27 11 51t-14.5 39.5t-42.5 15.5q-63 0 -63 -78q-47 -2 -47 38q0 33 32.5 55.5t84 22.5t82 -25.5t30.5 -67.5q0 -92 -165 -212h139l4 33q2 14 13.5 19t21.5 1v-94zM456 622h63
l-354 -622h-64zM30 282q0 28 23 28l37 2v245l-41 -13q-13 -4 -22 7t-9 20l81 44q12 6 31.5 6t19.5 -25v-283l57 -4q0 -3 0.5 -10.5t-5.5 -15t-17 -7.5h-155v6z" />
    <glyph glyph-name="threequarters" unicode="&#xbe;" horiz-adv-x="629" 
d="M609 106v-38h-51v-72l-60 -6v78h-146q-13 18 -15 33l170 238q27 7 50 2l1 -235h51zM498 106v157l-112 -157h112zM489 622h63l-355 -622h-63zM184 543q0 43 -49 43q-26 0 -39 -15.5t-14 -38.5q-22 1 -32 10t-8.5 28t28 35.5t72.5 16.5t75.5 -20.5t29.5 -56.5
q0 -59 -79 -84q44 -5 70 -28t26 -63t-38.5 -70.5t-92.5 -30.5t-81.5 16t-27.5 40q0 31 36 34q2 -23 20 -37.5t49 -14.5t51.5 17t19.5 46q-1 67 -115 61l-1 41q33 0 66.5 17t33.5 54z" />
    <glyph glyph-name="questiondown" unicode="&#xbf;" horiz-adv-x="486" 
d="M313.5 597q-15.5 -15 -38 -15t-37.5 15t-15 38t15 38.5t38 15.5t38 -15.5t15 -38.5t-15.5 -38zM385 6.5q-53 -42.5 -143.5 -42.5t-142.5 44.5t-52 123.5t60 137t138 76l6 142q22 3 49 0l5 -179q-80 -20 -131.5 -67t-51.5 -111q0 -49 32.5 -83.5t93.5 -34.5t95 41.5
t34 95.5q61 0 61 -48q0 -52 -53 -94.5z" />
    <glyph glyph-name="Agrave" unicode="&#xc0;" horiz-adv-x="610" 
d="M571 0h-192v8q0 26 14 34q7 3 17 4l46 2l-53 183h-212l-53 -181l75 -6q4 -44 -27 -44h-175v8q0 26 14 34q7 3 17 4l40 2l193 630q32 4 65 0l193 -628l65 -6q4 -44 -27 -44zM206 281h182l-90 313zM238 878l165 -127q-11 -20 -29 -29l-199 107q9 17 27 32t36 17z" />
    <glyph glyph-name="Aacute" unicode="&#xc1;" horiz-adv-x="610" 
d="M571 0h-192v8q0 26 14 34q7 3 17 4l46 2l-53 183h-212l-53 -181l75 -6q4 -44 -27 -44h-175v8q0 26 14 34q7 3 17 4l40 2l193 630q32 4 65 0l193 -628l65 -6q4 -44 -27 -44zM206 281h182l-90 313zM455 836l-198 -106q-19 9 -30 29l165 127q18 -2 36 -17t27 -33z" />
    <glyph glyph-name="Acircumflex" unicode="&#xc2;" horiz-adv-x="610" 
d="M571 0h-192v8q0 26 14 34q7 3 17 4l46 2l-53 183h-212l-53 -181l75 -6q4 -44 -27 -44h-175v8q0 26 14 34q7 3 17 4l40 2l193 630q32 4 65 0l193 -628l65 -6q4 -44 -27 -44zM206 281h182l-90 313zM307 808l-135 -88q-17 9 -28 28l132 121q34 8 62 0l131 -121
q-13 -21 -28 -28z" />
    <glyph glyph-name="Atilde" unicode="&#xc3;" horiz-adv-x="610" 
d="M571 0h-192v8q0 26 14 34q7 3 17 4l46 2l-53 183h-212l-53 -181l75 -6q4 -44 -27 -44h-175v8q0 26 14 34q7 3 17 4l40 2l193 630q32 4 65 0l193 -628l65 -6q4 -44 -27 -44zM206 281h182l-90 313zM438.5 781q-26.5 -28 -66 -28t-81.5 25t-63 25t-35 -14t-21 -33l-31 11
q10 47 38.5 73t61.5 26t73 -26.5t65 -26.5t42 14.5t22 37.5l30 -9q-8 -47 -34.5 -75z" />
    <glyph glyph-name="Adieresis" unicode="&#xc4;" horiz-adv-x="610" 
d="M571 0h-192v8q0 26 14 34q7 3 17 4l46 2l-53 183h-212l-53 -181l75 -6q4 -44 -27 -44h-175v8q0 26 14 34q7 3 17 4l40 2l193 630q32 4 65 0l193 -628l65 -6q4 -44 -27 -44zM206 281h182l-90 313zM224 751q-22 0 -37.5 15t-15.5 36.5t15.5 37t37 15.5t36.5 -15.5t15 -37
t-14.5 -36.5t-36.5 -15zM425 766q-15 -15 -37 -15t-37 15.5t-15 36t15.5 36.5t37 16t36.5 -15.5t15 -37t-15 -36.5z" />
    <glyph glyph-name="Aring" unicode="&#xc5;" horiz-adv-x="610" 
d="M571 0h-192v8q0 26 14 34q7 3 17 4l46 2l-53 183h-212l-53 -181l75 -6q4 -44 -27 -44h-175v8q0 26 14 34q7 3 17 4l40 2l193 630q32 4 65 0l193 -628l65 -6q4 -44 -27 -44zM206 281h182l-90 313zM373.5 755.5q-25.5 -24.5 -66 -24.5t-65 23.5t-24.5 62.5t25.5 63.5
t67 24.5t65.5 -23t23.5 -62.5t-26 -64zM309 863q-21 0 -33 -12t-12 -33t12 -33t33 -12t33 12t12 33t-12 33t-33 12z" />
    <glyph glyph-name="AE" unicode="&#xc6;" horiz-adv-x="865" 
d="M822 136v-136h-475v8q0 26 14 34q7 3 17 4l46 2v264h-160l-126 -262l75 -6q4 -44 -27 -44h-175v8q0 26 14 34q8 4 56 6l308 630l413 1v-142q0 -31 -45 -26l-9 113l-252 5v-267l192 13q8 -32 1 -72l-193 10v-263l272 7l9 106q45 5 45 -27zM424 361v267h-8l-128 -267h136z
" />
    <glyph glyph-name="Ccedilla" unicode="&#xc7;" horiz-adv-x="559" 
d="M335 692q81 0 135.5 -36.5t54.5 -92.5t-63 -57q0 63 -36 97.5t-99 34.5q-103 0 -157 -83t-54 -220q0 -289 223 -289q104 0 180 61q13 -7 13 -22q0 -29 -54.5 -62t-133.5 -37l-7 -28q41 0 61 -19.5t20 -53t-26 -55.5t-70 -22t-70 28q-3 21 12 31q23 -18 50 -18q46 0 46 37
q0 17 -15.5 26t-57.5 9l17 64q-126 7 -194 94.5t-71.5 244.5t76 262.5t220.5 105.5z" />
    <glyph glyph-name="Egrave" unicode="&#xc8;" horiz-adv-x="552" 
d="M373 722l-199 107q9 17 27 32t36 17l165 -127q-11 -20 -29 -29zM42 0v16q0 22 20 28q5 2 11 2l46 2v579l-73 6q-4 44 28 44h422v-141q0 -31 -44 -27l-10 113l-251 5v-267l192 13q7 -37 0 -72l-192 11v-262l265 7l10 106q44 4 44 -27v-136h-468z" />
    <glyph glyph-name="Eacute" unicode="&#xc9;" horiz-adv-x="552" 
d="M453 836l-198 -106q-18 8 -29 29l164 127q18 -2 36 -17t27 -33zM42 0v16q0 22 20 28q5 2 11 2l46 2v579l-73 6q-4 44 28 44h422v-141q0 -31 -44 -27l-10 113l-251 5v-267l192 13q7 -37 0 -72l-192 11v-262l265 7l10 106q44 4 44 -27v-136h-468z" />
    <glyph glyph-name="Ecircumflex" unicode="&#xca;" horiz-adv-x="552" 
d="M42 0v16q0 22 20 28q5 2 11 2l46 2v579l-73 6q-4 44 28 44h422v-141q0 -31 -44 -27l-10 113l-251 5v-267l192 13q7 -37 0 -72l-192 11v-262l265 7l10 106q44 4 44 -27v-136h-468zM305 808l-134 -88q-17 9 -28 28l132 121q33 8 62 0l131 -121q-15 -22 -29 -28z" />
    <glyph glyph-name="Edieresis" unicode="&#xcb;" horiz-adv-x="552" 
d="M423.5 766q-15.5 -15 -37 -15t-36.5 15t-15 36.5t15 37t36.5 15.5t37 -15.5t15.5 -37t-15.5 -36.5zM259 766q-15 -15 -36.5 -15t-37 15t-15.5 36.5t15.5 37t37 15.5t36.5 -15.5t15 -37t-15 -36.5zM42 0v16q0 22 20 28q5 2 11 2l46 2v579l-73 6q-4 44 28 44h422v-141
q0 -31 -44 -27l-10 113l-251 5v-267l192 13q7 -37 0 -72l-192 11v-262l265 7l10 106q44 4 44 -27v-136h-468z" />
    <glyph glyph-name="Igrave" unicode="&#xcc;" horiz-adv-x="310" 
d="M237 0h-195v8q0 26 14 34q7 3 17 4l46 2v579l-73 6q-4 44 27 44h195v-8q0 -27 -14 -33q-7 -4 -17 -5l-46 -2v-579l73 -6q4 -44 -27 -44zM90 878l165 -127q-11 -20 -29 -29l-199 107q9 17 27 32t36 17z" />
    <glyph glyph-name="Iacute" unicode="&#xcd;" horiz-adv-x="310" 
d="M237 0h-195v8q0 26 14 34q7 3 17 4l46 2v579l-73 6q-4 44 27 44h195v-8q0 -27 -14 -33q-7 -4 -17 -5l-46 -2v-579l73 -6q4 -44 -27 -44zM306 836l-198 -106q-18 9 -29 29l164 127q19 -2 37 -17t26 -33z" />
    <glyph glyph-name="Icircumflex" unicode="&#xce;" horiz-adv-x="310" 
d="M190 869l131 -121q-15 -22 -29 -28l-134 87l-134 -87q-17 9 -28 28l132 121q33 8 62 0zM237 0h-195v8q0 26 14 34q7 3 17 4l46 2v579l-73 6q-4 44 27 44h195v-8q0 -27 -14 -33q-7 -4 -17 -5l-46 -2v-579l73 -6q4 -44 -27 -44z" />
    <glyph glyph-name="Idieresis" unicode="&#xcf;" horiz-adv-x="310" 
d="M203 839.5q15 15.5 36.5 15.5t37 -15.5t15.5 -37t-15.5 -36.5t-37 -15t-36.5 15t-15 36.5t15 37zM237 0h-195v8q0 26 14 34q7 3 17 4l46 2v579l-73 6q-4 44 27 44h195v-8q0 -27 -14 -33q-7 -4 -17 -5l-46 -2v-579l73 -6q4 -44 -27 -44zM112 839.5q15 -15.5 15 -37
t-14.5 -36.5t-36.5 -15t-37.5 15t-15.5 36.5t15.5 37t37 15.5t36.5 -15.5z" />
    <glyph glyph-name="Eth" unicode="&#xd0;" horiz-adv-x="692" 
d="M42 0v16q0 11 5.5 17.5t8.5 7.5t6.5 2.5t8.5 1.5l47 4v263h-52v51h52v265l-72 6q-3 45 29 45h209q179 0 260.5 -82t81.5 -251.5t-87 -257.5t-254 -88h-243zM476 117.5q73 71.5 73 226t-76 224t-231 64.5l-51 -2h-1v-267h180v-51h-180v-263l73 -1q140 -2 213 69.5z" />
    <glyph glyph-name="Ntilde" unicode="&#xd1;" horiz-adv-x="685" 
d="M483 677h178v-8q0 -27 -14 -33q-7 -4 -17 -5l-47 -2v-618q-25 -11 -52 -11l-357 550v-500l73 -6q4 -44 -27 -44h-178v8q0 26 14 34q7 3 17 4l46 2v579l-73 6q-4 44 27 44h106l350 -540v490l-73 6q-4 44 27 44zM471 781.5q-27 -28.5 -66 -28.5t-81 25t-63 25t-35.5 -14
t-21.5 -33l-30 11q9 47 38 73t62 26t73 -26.5t65 -26.5t41 14.5t22 37.5l31 -9q-8 -46 -35 -74.5z" />
    <glyph glyph-name="Ograve" unicode="&#xd2;" horiz-adv-x="642" 
d="M402 722l-199 107q9 17 27 32t36 17l165 -127q-11 -20 -29 -29zM333 692q81 0 143 -40q124 -80 127 -296q2 -169 -75.5 -270t-223.5 -101q-122 0 -192 88t-73 250t75 265.5t219 103.5zM165 557q-52 -81 -52 -218.5t50.5 -219t155.5 -81t158 81t53 218t-51.5 220
t-156.5 81.5t-157 -82z" />
    <glyph glyph-name="Oacute" unicode="&#xd3;" horiz-adv-x="642" 
d="M483 836l-199 -106q-18 9 -29 29l165 127q18 -2 36 -17t27 -33zM165 557q-52 -81 -52 -218.5t50.5 -219t155.5 -81t158 81t53 218t-51.5 220t-156.5 81.5t-157 -82zM333 692q81 0 143 -40q124 -80 127 -296q2 -169 -75.5 -270t-223.5 -101q-122 0 -192 88t-73 250
t75 265.5t219 103.5z" />
    <glyph glyph-name="Ocircumflex" unicode="&#xd4;" horiz-adv-x="642" 
d="M304 -15q-122 0 -192 88t-73 250t75 265.5t219 103.5q81 0 143 -40q124 -80 127 -296q2 -169 -75.5 -270t-223.5 -101zM477 119.5q53 80.5 53 218t-51.5 220t-156.5 81.5t-157 -82t-52 -218.5t50.5 -219t155.5 -81t158 81zM335 807l-135 -87q-17 9 -28 28l132 121
q33 8 62 0l131 -121q-16 -22 -28 -28z" />
    <glyph glyph-name="Otilde" unicode="&#xd5;" horiz-adv-x="642" 
d="M207.5 840q28.5 26 61.5 26t73 -26.5t65 -26.5t42 14.5t22 37.5l30 -9q-8 -47 -34.5 -75t-66 -28t-81.5 25t-63 25t-35.5 -14t-21.5 -33l-30 11q10 47 38.5 73zM165 557q-52 -81 -52 -218.5t50.5 -219t155.5 -81t158 81t53 218t-51.5 220t-156.5 81.5t-157 -82zM333 692
q81 0 143 -40q124 -80 127 -296q2 -169 -75.5 -270t-223.5 -101q-122 0 -192 88t-73 250t75 265.5t219 103.5z" />
    <glyph glyph-name="Odieresis" unicode="&#xd6;" horiz-adv-x="642" 
d="M453 766q-15 -15 -37 -15t-37 15t-15 36.5t15 37t37 15.5t37 -15.5t15 -37t-15 -36.5zM252 751q-22 0 -37.5 15t-15.5 36.5t15.5 37t37 15.5t36.5 -15.5t15 -37t-14.5 -36.5t-36.5 -15zM165 557q-52 -81 -52 -218.5t50.5 -219t155.5 -81t158 81t53 218t-51.5 220
t-156.5 81.5t-157 -82zM333 692q81 0 143 -40q124 -80 127 -296q2 -169 -75.5 -270t-223.5 -101q-122 0 -192 88t-73 250t75 265.5t219 103.5z" />
    <glyph glyph-name="multiply" unicode="&#xd7;" horiz-adv-x="420" 
d="M370 405l-119 -119l118 -119l-40 -41l-119 119l-119 -119l-41 41l119 119l-119 119l40 41l120 -119l119 119z" />
    <glyph glyph-name="Oslash" unicode="&#xd8;" horiz-adv-x="684" 
d="M304 -15q-60 0 -111 23l-14 -24l-53 29l17 28q-101 87 -104 265.5t75 282t219 103.5q93 0 159 -51l30 51l53 -27l-40 -68q65 -85 67.5 -247.5t-75 -263.5t-223.5 -101zM165 557q-52 -81 -52 -229t64 -227l281 482q-51 56 -137 56q-104 -1 -156 -82zM477 119.5
q53 80.5 53 207t-35 200.5l-271 -466q40 -23 95 -23q105 1 158 81.5z" />
    <glyph glyph-name="Ugrave" unicode="&#xd9;" horiz-adv-x="646" 
d="M393 722l-199 107q9 17 27 32t36 17l165 -127q-11 -20 -29 -29zM450 677h174v-8q0 -27 -14 -33q-7 -4 -17 -5l-44 -2v-375q0 -128 -57.5 -198.5t-179.5 -70.5q-216 0 -216 256v386l-73 6q-4 44 27 44h195v-8q0 -26 -15 -33q-7 -4 -17 -5l-45 -2l-1 -384q0 -208 154 -208
q83 0 128.5 50.5t45.5 154.5v385l-73 6q-4 44 28 44z" />
    <glyph glyph-name="Uacute" unicode="&#xda;" horiz-adv-x="646" 
d="M474 836l-198 -106q-19 9 -30 29l165 127q18 -2 36 -17t27 -33zM450 677h174v-8q0 -27 -14 -33q-7 -4 -17 -5l-44 -2v-375q0 -128 -57.5 -198.5t-179.5 -70.5q-216 0 -216 256v386l-73 6q-4 44 27 44h195v-8q0 -26 -15 -33q-7 -4 -17 -5l-45 -2l-1 -384q0 -208 154 -208
q83 0 128.5 50.5t45.5 154.5v385l-73 6q-4 44 28 44z" />
    <glyph glyph-name="Ucircumflex" unicode="&#xdb;" horiz-adv-x="646" 
d="M450 677h174v-8q0 -27 -14 -33q-7 -4 -17 -5l-44 -2v-375q0 -128 -57.5 -198.5t-179.5 -70.5q-216 0 -216 256v386l-73 6q-4 44 27 44h195v-8q0 -26 -15 -33q-7 -4 -17 -5l-45 -2l-1 -384q0 -208 154 -208q83 0 128.5 50.5t45.5 154.5v385l-73 6q-4 44 28 44zM326 808
l-135 -88q-17 9 -28 28l132 121q34 8 62 0l131 -121q-13 -21 -28 -28z" />
    <glyph glyph-name="Udieresis" unicode="&#xdc;" horiz-adv-x="646" 
d="M444 766q-15 -15 -36.5 -15t-37 15.5t-15.5 36t15.5 36.5t37 16t36.5 -15.5t15 -37t-15 -36.5zM243 751q-22 0 -37.5 15t-15.5 36.5t16 37t37 15.5t36 -15.5t15 -37t-14.5 -36.5t-36.5 -15zM450 677h174v-8q0 -27 -14 -33q-7 -4 -17 -5l-44 -2v-375q0 -128 -57.5 -198.5
t-179.5 -70.5q-216 0 -216 256v386l-73 6q-4 44 27 44h195v-8q0 -26 -15 -33q-7 -4 -17 -5l-45 -2l-1 -384q0 -208 154 -208q83 0 128.5 50.5t45.5 154.5v385l-73 6q-4 44 28 44z" />
    <glyph glyph-name="Yacute" unicode="&#xdd;" horiz-adv-x="592" 
d="M431 679h156v-8q0 -35 -31 -38l-21 -3l-199 -354v-226l73 -6q4 -44 -27 -44h-197v8q0 26 15 34q7 3 17 4l45 2v226l-200 354h-1l-56 6q-5 45 28 45h187v-8q0 -27 -14 -33q-7 -4 -17 -5l-45 -3l168 -301l162 299l-71 6q-5 45 28 45zM454 836l-198 -106q-18 9 -29 29
l164 127q19 -2 37 -17t26 -33z" />
    <glyph glyph-name="Thorn" unicode="&#xde;" horiz-adv-x="600" 
d="M191 549h87q127 0 190.5 -52.5t63.5 -137.5q0 -112 -74.5 -162.5t-202.5 -50.5q-43 0 -64 1v-97l73 -6q4 -44 -27 -44h-195v8q0 26 14 34q7 3 17 4l46 2v580l-73 6q-4 45 27 45h195v-8q0 -27 -14 -33q-7 -4 -17 -5l-46 -3v-81zM191 193l53 -1q106 0 157 38.5t51 119
t-51 117.5t-160 37h-50v-311z" />
    <glyph glyph-name="germandbls" unicode="&#xdf;" horiz-adv-x="602" 
d="M120 453q0 137 62.5 198t161.5 59q69 -1 115 -29.5t46 -89.5q0 -60 -53 -106q-22 -19 -44.5 -36t-38 -36.5t-15.5 -40.5t18.5 -40.5t37 -29.5t63 -31t75.5 -50.5t31 -83.5t-47 -103t-125 -49q-56 0 -97.5 25t-41.5 68q0 24 13.5 36t34.5 12q8 -41 35 -65t69 -24t69 25
t27 61q0 19 -5.5 28.5t-8.5 14.5t-10 11t-11 9.5t-14.5 9t-14.5 8.5q-14 7 -40.5 20.5t-42 23t-37.5 27.5q-42 33 -42 84q0 57 52 103l44 38q53 44 53 87q0 74 -95 74q-78 0 -116.5 -53.5t-38.5 -143.5v-464h-144v8q0 25 15 31q7 3 17 4l43 1v409z" />
    <glyph glyph-name="agrave" unicode="&#xe0;" horiz-adv-x="502" 
d="M484 31q0 -47 -62 -47t-72 63q-64 -62 -154 -62q-69 0 -109.5 35.5t-40.5 96.5t45 103t149 42q61 0 108 -14v79q0 57 -28.5 91.5t-83.5 34.5t-78.5 -29.5t-26.5 -68.5q-24 -2 -40 10t-16 39q0 43 44 71.5t114 28.5q61 0 116 -30q31 -16 50 -53t19 -90v-292zM348 188
q-46 25 -107 25t-89.5 -23t-28.5 -63t25 -63.5t69 -23.5q70 0 131 54v94zM164 690l165 -127q-11 -20 -29 -29l-199 107q9 17 27 32t36 17z" />
    <glyph glyph-name="aacute" unicode="&#xe1;" horiz-adv-x="502" 
d="M484 31q0 -47 -62 -47t-72 63q-64 -62 -154 -62q-69 0 -109.5 35.5t-40.5 96.5t45 103t149 42q61 0 108 -14v79q0 57 -28.5 91.5t-83.5 34.5t-78.5 -29.5t-26.5 -68.5q-24 -2 -40 10t-16 39q0 43 44 71.5t114 28.5q61 0 116 -30q31 -16 50 -53t19 -90v-292zM348 188
q-46 25 -107 25t-89.5 -23t-28.5 -63t25 -63.5t69 -23.5q70 0 131 54v94zM381 641l-199 -107q-18 9 -29 29l165 127q18 -2 36 -17t27 -32z" />
    <glyph glyph-name="acircumflex" unicode="&#xe2;" horiz-adv-x="502" 
d="M484 31q0 -47 -62 -47t-72 63q-64 -62 -154 -62q-69 0 -109.5 35.5t-40.5 96.5t45 103t149 42q61 0 108 -14v79q0 57 -28.5 91.5t-83.5 34.5t-78.5 -29.5t-26.5 -68.5q-24 -2 -40 10t-16 39q0 43 44 71.5t114 28.5q61 0 116 -30q31 -16 50 -53t19 -90v-292zM348 188
q-46 25 -107 25t-89.5 -23t-28.5 -63t25 -63.5t69 -23.5q70 0 131 54v94zM233 620l-134 -88q-17 9 -28 28l132 121q33 8 61 0l131 -121q-11 -19 -28 -28z" />
    <glyph glyph-name="atilde" unicode="&#xe3;" horiz-adv-x="502" 
d="M484 31q0 -47 -62 -47t-72 63q-64 -62 -154 -62q-69 0 -109.5 35.5t-40.5 96.5t45 103t149 42q61 0 108 -14v79q0 57 -28.5 91.5t-83.5 34.5t-78.5 -29.5t-26.5 -68.5q-24 -2 -40 10t-16 39q0 43 44 71.5t114 28.5q61 0 116 -30q31 -16 50 -53t19 -90v-292zM348 188
q-46 25 -107 25t-89.5 -23t-28.5 -63t25 -63.5t69 -23.5q70 0 131 54v94zM371 664l31 -10q-25 -101 -112 -97q-34 2 -74.5 29.5t-61.5 29t-36.5 -12t-22.5 -32.5l-30 13q12 46 42.5 70.5t63.5 22.5t71 -31t64 -30q51 -1 65 48z" />
    <glyph glyph-name="adieresis" unicode="&#xe4;" horiz-adv-x="502" 
d="M484 31q0 -47 -62 -47t-72 63q-64 -62 -154 -62q-69 0 -109.5 35.5t-40.5 96.5t45 103t149 42q61 0 108 -14v79q0 57 -28.5 91.5t-83.5 34.5t-78.5 -29.5t-26.5 -68.5q-24 -2 -40 10t-16 39q0 43 44 71.5t114 28.5q61 0 116 -30q31 -16 50 -53t19 -90v-292zM348 188
q-46 25 -107 25t-89.5 -23t-28.5 -63t25 -63.5t69 -23.5q70 0 131 54v94zM150 563q-22 0 -37 15t-15 36.5t15 37t36.5 15.5t36.5 -15.5t15 -37t-14.5 -36.5t-36.5 -15zM351 578q-15 -15 -36.5 -15t-36.5 15t-15 36.5t15 37t36.5 15.5t36.5 -15.5t15 -37t-15 -36.5z" />
    <glyph glyph-name="aring" unicode="&#xe5;" horiz-adv-x="502" 
d="M484 31q0 -47 -62 -47t-72 63q-64 -62 -154 -62q-69 0 -109.5 35.5t-40.5 96.5t45 103t149 42q61 0 108 -14v79q0 57 -28.5 91.5t-83.5 34.5t-78.5 -29.5t-26.5 -68.5q-24 -2 -40 10t-16 39q0 43 44 71.5t114 28.5q61 0 116 -30q31 -16 50 -53t19 -90v-292zM348 188
q-46 25 -107 25t-89.5 -23t-28.5 -63t25 -63.5t69 -23.5q70 0 131 54v94zM299.5 567.5q-25.5 -24.5 -66 -24.5t-65 23.5t-24.5 62.5t25.5 63.5t67 24.5t65.5 -23t23.5 -62.5t-26 -64zM268.5 663q-12.5 12 -33 12t-33 -12t-12.5 -32.5t12.5 -33t33 -12.5t33 12.5t12.5 33
t-12.5 32.5z" />
    <glyph glyph-name="ae" unicode="&#xe6;" horiz-adv-x="771" 
d="M640.5 414q-26.5 40 -76 40t-84.5 -39.5t-48 -106.5h234q1 66 -25.5 106zM348 187q-45 26 -106 26t-90 -22.5t-29 -63.5t25.5 -64t70.5 -23q72 0 129 54v93zM576 504q85 0 124.5 -57t39.5 -136v-48h-314q-2 -20 -2 -33q0 -83 36.5 -135.5t113 -52.5t143.5 54
q12 -9 12 -25q0 -28 -54 -57t-122 -29q-115 0 -167 86q-30 -35 -78.5 -60.5t-114.5 -25.5t-106.5 35t-40.5 97t45 103.5t150 41.5q56 0 107 -14v79q0 56 -28.5 91t-84 35t-79 -31t-25.5 -67q-23 -3 -39.5 9t-16.5 39q0 43 44.5 72.5t113.5 28.5q34 0 72 -12q76 -23 96 -82
q31 46 77.5 70t97.5 24z" />
    <glyph glyph-name="ccedilla" unicode="&#xe7;" horiz-adv-x="452" 
d="M275 504q64 0 101.5 -26t37.5 -69q0 -55 -56 -53q-1 37 -25.5 65.5t-73.5 28.5q-71 0 -108.5 -59t-37.5 -149q0 -79 31 -136q36 -63 124 -63q72 0 137 53q13 -9 13 -24q0 -29 -53 -56.5t-116 -30.5l-6 -27q41 0 61 -19.5t20 -53t-26 -55.5t-70 -22t-70 28q-3 21 12 31
q23 -18 50 -18q46 0 46 37q0 17 -15.5 26t-57.5 9l17 66q-81 10 -125 74.5t-46 162.5q-2 122 61 201t175 79z" />
    <glyph glyph-name="egrave" unicode="&#xe8;" horiz-adv-x="461" 
d="M430 263h-314q-1 -10 -1 -31q0 -85 36 -137.5t112 -52.5t145 54q12 -10 12 -25q0 -28 -54.5 -57t-122.5 -29q-93 0 -148.5 61t-55.5 186t66 198.5t156 73.5t130 -57t39 -136v-48zM357 308q0 67 -26 106.5t-75.5 39.5t-84.5 -39t-49 -107h235zM193 690l165 -127
q-11 -20 -29 -29l-199 107q9 17 27 32t36 17z" />
    <glyph glyph-name="eacute" unicode="&#xe9;" horiz-adv-x="461" 
d="M430 263h-314q-1 -10 -1 -31q0 -85 36 -137.5t112 -52.5t145 54q12 -10 12 -25q0 -28 -54.5 -57t-122.5 -29q-93 0 -148.5 61t-55.5 186t66 198.5t156 73.5t130 -57t39 -136v-48zM357 308q0 67 -26 106.5t-75.5 39.5t-84.5 -39t-49 -107h235zM409 641l-199 -107
q-18 9 -29 29l165 127q18 -2 36 -17t27 -32z" />
    <glyph glyph-name="ecircumflex" unicode="&#xea;" horiz-adv-x="461" 
d="M430 263h-314q-1 -10 -1 -31q0 -85 36 -137.5t112 -52.5t145 54q12 -10 12 -25q0 -28 -54.5 -57t-122.5 -29q-93 0 -148.5 61t-55.5 186t66 198.5t156 73.5t130 -57t39 -136v-48zM357 308q0 67 -26 106.5t-75.5 39.5t-84.5 -39t-49 -107h235zM261 620l-134 -88
q-15 8 -28 28l132 121q33 8 62 0l131 -121q-14 -20 -29 -28z" />
    <glyph glyph-name="edieresis" unicode="&#xeb;" horiz-adv-x="461" 
d="M430 263h-314q-1 -10 -1 -31q0 -85 36 -137.5t112 -52.5t145 54q12 -10 12 -25q0 -28 -54.5 -57t-122.5 -29q-93 0 -148.5 61t-55.5 186t66 198.5t156 73.5t130 -57t39 -136v-48zM357 308q0 67 -26 106.5t-75.5 39.5t-84.5 -39t-49 -107h235zM178 563q-22 0 -37 15
t-15 36.5t15 37t36.5 15.5t36.5 -15.5t15 -37t-14.5 -36.5t-36.5 -15zM379 578q-15 -15 -36.5 -15t-36.5 15t-15 36.5t15 37t36.5 15.5t36.5 -15.5t15 -37t-15 -36.5z" />
    <glyph glyph-name="igrave" unicode="&#xec;" horiz-adv-x="291" 
d="M238 0h-190v8q0 24 14 30q7 4 17 5l42 2v396l-52 4q-24 3 -24 43l145 16v-457l76 -6q4 -41 -28 -41zM74 690l165 -127q-11 -20 -29 -29l-199 107q9 17 27 32t36 17z" />
    <glyph glyph-name="iacute" unicode="&#xed;" horiz-adv-x="291" 
d="M238 0h-190v8q0 24 14 30q7 4 17 5l42 2v396l-52 4q-24 3 -24 43l145 16v-457l76 -6q4 -41 -28 -41zM291 641l-199 -107q-18 9 -29 29l165 127q18 -2 36 -17t27 -32z" />
    <glyph glyph-name="icircumflex" unicode="&#xee;" horiz-adv-x="291" 
d="M174 681l131 -121q-11 -19 -28 -28l-134 88l-135 -88q-15 8 -28 28l132 121q34 8 62 0zM238 0h-190v8q0 24 14 30q7 4 17 5l42 2v396l-52 4q-24 3 -24 43l145 16v-457l76 -6q4 -41 -28 -41z" />
    <glyph glyph-name="idieresis" unicode="&#xef;" horiz-adv-x="291" 
d="M238 0h-190v8q0 24 14 30q7 4 17 5l42 2v396l-52 4q-24 3 -24 43l145 16v-457l76 -6q4 -41 -28 -41zM96 651.5q15 -15.5 15 -37t-14.5 -36.5t-36.5 -15t-37 15t-15 36.5t15 37t36.5 15.5t36.5 -15.5zM261 578q-15 -15 -36.5 -15t-36.5 15t-15 36.5t15 37t36.5 15.5
t36.5 -15.5t15 -37t-15 -36.5z" />
    <glyph glyph-name="eth" unicode="&#xf0;" horiz-adv-x="514" 
d="M475 287q0 -138 -64.5 -220t-174.5 -82q-94 0 -144.5 60t-52.5 162q-3 123 60.5 198t174.5 75q52 0 90 -20q-33 69 -92 116l-92 -59l-26 43l74 47q-62 36 -115 43l27 47q75 -14 143 -54l84 53l27 -42l-66 -42q147 -118 147 -325zM145.5 91.5q32.5 -47.5 102 -47.5
t111.5 64.5t42 173.5q0 49 -10 99q-47 45 -126 45t-115.5 -58t-36.5 -143.5t32.5 -133z" />
    <glyph glyph-name="ntilde" unicode="&#xf1;" horiz-adv-x="613" 
d="M180 571l-30 13q12 46 42 70.5t63 22.5t71 -31t64 -30q51 -1 65 48l31 -10q-25 -101 -112 -97q-34 2 -74.5 29.5t-61 29t-36.5 -12t-22 -32.5zM561 0h-186v8q0 24 14 30q7 4 17 5l44 2v259q0 140 -111 140q-41 0 -74 -16t-75 -51v-330l71 -6q4 -41 -27 -41h-188v8
q0 32 32 35l43 2v394l-52 6q-24 2 -24 41l129 17l13 -76h3q81 77 167 77q67 0 114.5 -47t47.5 -145v-265l70 -6q4 -41 -28 -41z" />
    <glyph glyph-name="ograve" unicode="&#xf2;" horiz-adv-x="508" 
d="M324 534l-199 107q9 17 27 32t36 17l165 -127q-11 -20 -29 -29zM261 504q76 0 137 -48q32 -26 51.5 -76t19.5 -120q2 -124 -58 -199.5t-162 -75.5t-155 64t-54.5 185t59 195.5t162.5 74.5zM150 393q-37 -59 -37 -150.5t36 -149t104 -57t105 57.5t37 147.5t-35.5 151
t-104 60t-105.5 -59.5z" />
    <glyph glyph-name="oacute" unicode="&#xf3;" horiz-adv-x="508" 
d="M150 393q-37 -59 -37 -150.5t36 -149t104 -57t105 57.5t37 147.5t-35.5 151t-104 60t-105.5 -59.5zM261 504q76 0 137 -48q32 -26 51.5 -76t19.5 -120q2 -124 -58 -199.5t-162 -75.5t-155 64t-54.5 185t59 195.5t162.5 74.5zM405 641l-199 -107q-18 9 -29 29l165 127
q18 -2 36 -17t27 -32z" />
    <glyph glyph-name="ocircumflex" unicode="&#xf4;" horiz-adv-x="508" 
d="M411 60.5q-60 -75.5 -162 -75.5t-155 64t-54.5 185t59 195.5t162.5 74.5q76 0 137 -48q32 -26 51.5 -76t19.5 -120q2 -124 -58 -199.5zM358 94q37 57 37 147.5t-35.5 151t-104 60t-105.5 -59.5t-37 -150.5t36 -149t104 -57t105 57.5zM257 620l-135 -88q-15 8 -28 28
l132 121q34 8 62 0l131 -121q-11 -19 -28 -28z" />
    <glyph glyph-name="otilde" unicode="&#xf5;" horiz-adv-x="508" 
d="M119 571l-30 13q12 46 42 70.5t63 22.5t71.5 -31t64.5 -30q51 -1 65 48l31 -10q-25 -101 -112 -97q-34 2 -74.5 29.5t-61.5 29t-36.5 -12t-22.5 -32.5zM150 393q-37 -59 -37 -150.5t36 -149t104 -57t105 57.5t37 147.5t-35.5 151t-104 60t-105.5 -59.5zM261 504
q76 0 137 -48q32 -26 51.5 -76t19.5 -120q2 -124 -58 -199.5t-162 -75.5t-155 64t-54.5 185t59 195.5t162.5 74.5z" />
    <glyph glyph-name="odieresis" unicode="&#xf6;" horiz-adv-x="508" 
d="M150 393q-37 -59 -37 -150.5t36 -149t104 -57t105 57.5t37 147.5t-35.5 151t-104 60t-105.5 -59.5zM261 504q76 0 137 -48q32 -26 51.5 -76t19.5 -120q2 -124 -58 -199.5t-162 -75.5t-155 64t-54.5 185t59 195.5t162.5 74.5zM375 578q-15 -15 -36.5 -15t-36.5 15
t-15 36.5t15 37t36.5 15.5t36.5 -15.5t15 -37t-15 -36.5zM174 563q-22 0 -37 15t-15 36.5t15 37t36.5 15.5t36.5 -15.5t15 -37t-14.5 -36.5t-36.5 -15z" />
    <glyph glyph-name="divide" unicode="&#xf7;" horiz-adv-x="478" 
d="M274 397q-15 -15 -37.5 -15t-38 15t-15.5 38t15 38.5t38 15.5t38 -15.5t15 -38.5t-15 -38zM236 83q-23 0 -38 15.5t-15 38.5t15 38.5t38 15.5t38 -15.5t15 -38.5t-15 -38.5t-38 -15.5zM50 314h378v-56h-378v56z" />
    <glyph glyph-name="oslash" unicode="&#xf8;" horiz-adv-x="515" 
d="M245 -15q-51 0 -94 19l-12 -21l-50 28l15 26q-64 65 -65 191.5t59.5 201t162.5 74.5q58 0 102 -24l15 27l51 -26l-21 -35q61 -64 62 -187t-59 -198.5t-166 -75.5zM254 452q-67 0 -104 -59t-37 -147t30 -142l188 322q-31 26 -77 26zM254 37q67 0 104 57t37 143t-27 140
l-185 -319q29 -21 71 -21z" />
    <glyph glyph-name="ugrave" unicode="&#xf9;" horiz-adv-x="572" 
d="M352 534l-199 107q9 17 27 32t36 17l165 -127q-11 -20 -29 -29zM16 460q0 29 28 29h117v-295q0 -74 31 -111.5t92.5 -37.5t124.5 55v342l-77 5q-4 42 27 42h119v-432l49 -5q23 -2 23 -43l-121 -10l-13 53q-67 -67 -153 -67q-69 0 -120 49t-51 154v254l-76 5v13z" />
    <glyph glyph-name="uacute" unicode="&#xfa;" horiz-adv-x="572" 
d="M16 460q0 29 28 29h117v-295q0 -74 31 -111.5t92.5 -37.5t124.5 55v342l-77 5q-4 42 27 42h119v-432l49 -5q23 -2 23 -43l-121 -10l-13 53q-67 -67 -153 -67q-69 0 -120 49t-51 154v254l-76 5v13zM433 641l-199 -107q-18 9 -29 29l165 127q18 -2 36 -17t27 -32z" />
    <glyph glyph-name="ucircumflex" unicode="&#xfb;" horiz-adv-x="572" 
d="M16 460q0 29 28 29h117v-295q0 -74 31 -111.5t92.5 -37.5t124.5 55v342l-77 5q-4 42 27 42h119v-432l49 -5q23 -2 23 -43l-121 -10l-13 53q-67 -67 -153 -67q-69 0 -120 49t-51 154v254l-76 5v13zM285 619l-135 -87q-15 8 -28 28l132 121q33 8 62 0l131 -121
q-15 -21 -28 -28z" />
    <glyph glyph-name="udieresis" unicode="&#xfc;" horiz-adv-x="572" 
d="M16 460q0 29 28 29h117v-295q0 -74 31 -111.5t92.5 -37.5t124.5 55v342l-77 5q-4 42 27 42h119v-432l49 -5q23 -2 23 -43l-121 -10l-13 53q-67 -67 -153 -67q-69 0 -120 49t-51 154v254l-76 5v13zM403 578q-15 -15 -36.5 -15t-36.5 15t-15 36.5t15 37t36.5 15.5
t36.5 -15.5t15 -37t-15 -36.5zM202 563q-22 0 -37 15t-15 36.5t15 37t36.5 15.5t36.5 -15.5t15 -37t-14.5 -36.5t-36.5 -15z" />
    <glyph glyph-name="yacute" unicode="&#xfd;" horiz-adv-x="495" 
d="M360 489h132q-1 -3 0 -7.5t-0.5 -10t-3.5 -10.5q-6 -12 -38 -15l-171 -421h1q-27 -72 -54.5 -124t-43.5 -71q-39 -49 -77 -49t-56 15.5t-18 37t11.5 35t26 13.5t19.5 -2q-9 -40 23 -40q26 0 59 59t59 125l-174 418h-1l-49 6q-4 41 28 41h168v-7q0 -24 -14 -30
q-8 -4 -55 -8l130 -335l128 333l-58 6q-4 41 28 41zM403 641l-199 -107q-18 9 -29 29l165 127q18 -2 36 -17t27 -32z" />
    <glyph glyph-name="thorn" unicode="&#xfe;" horiz-adv-x="548" 
d="M315 504q81 0 136.5 -61.5t58 -184t-60.5 -198t-177 -75.5q-57 0 -116 26v-178l76 -6q4 -41 -28 -41h-190v8q0 24 14 30q8 3 59 7v805l-53 6q-23 2 -23 39l145 17v-266q78 72 159 72zM156 88q52 -49 130 -49t113.5 59t35.5 147t-35.5 144t-109.5 56q-37 0 -66 -15
t-68 -47v-295z" />
    <glyph glyph-name="ydieresis" unicode="&#xff;" horiz-adv-x="495" 
d="M360 489h132q-1 -3 0 -7.5t-0.5 -10t-3.5 -10.5q-6 -12 -38 -15l-171 -421h1q-27 -72 -54.5 -124t-43.5 -71q-39 -49 -77 -49t-56 15.5t-18 37t11.5 35t26 13.5t19.5 -2q-9 -40 23 -40q26 0 59 59t59 125l-174 418h-1l-49 6q-4 41 28 41h168v-7q0 -24 -14 -30
q-8 -4 -55 -8l130 -335l128 333l-58 6q-4 41 28 41zM171 563q-22 0 -37 15t-15 36.5t15 37t36.5 15.5t36.5 -15.5t15 -37t-14.5 -36.5t-36.5 -15zM372 578q-15 -15 -36.5 -15t-36.5 15t-15 36.5t15 37t36.5 15.5t36.5 -15.5t15 -37t-15 -36.5z" />
    <glyph glyph-name="Amacron" unicode="&#x100;" horiz-adv-x="610" 
d="M571 0h-192v8q0 26 14 34q7 3 17 4l46 2l-53 183h-212l-53 -181l75 -6q4 -44 -27 -44h-175v8q0 26 14 34q7 3 17 4l40 2l193 630q32 4 65 0l193 -628l65 -6q4 -44 -27 -44zM206 281h182l-90 313zM438 822v-56h-263v56h263z" />
    <glyph glyph-name="amacron" unicode="&#x101;" horiz-adv-x="502" 
d="M484 31q0 -47 -62 -47t-72 63q-64 -62 -154 -62q-69 0 -109.5 35.5t-40.5 96.5t45 103t149 42q61 0 108 -14v79q0 57 -28.5 91.5t-83.5 34.5t-78.5 -29.5t-26.5 -68.5q-24 -2 -40 10t-16 39q0 43 44 71.5t114 28.5q61 0 116 -30q31 -16 50 -53t19 -90v-292zM348 188
q-46 25 -107 25t-89.5 -23t-28.5 -63t25 -63.5t69 -23.5q70 0 131 54v94zM364 635v-57h-263v57h263z" />
    <glyph glyph-name="Abreve" unicode="&#x102;" horiz-adv-x="610" 
d="M571 0h-192v8q0 26 14 34q7 3 17 4l46 2l-53 183h-212l-53 -181l75 -6q4 -44 -27 -44h-175v8q0 26 14 34q7 3 17 4l40 2l193 630q32 4 65 0l193 -628l65 -6q4 -44 -27 -44zM206 281h182l-90 313zM307 735q-68 0 -108 39t-47 89l34 16q11 -29 41.5 -54t80.5 -25
q90 0 120 78l34 -15q-7 -50 -47 -89t-108 -39z" />
    <glyph glyph-name="abreve" unicode="&#x103;" horiz-adv-x="502" 
d="M484 31q0 -47 -62 -47t-72 63q-64 -62 -154 -62q-69 0 -109.5 35.5t-40.5 96.5t45 103t149 42q61 0 108 -14v79q0 57 -28.5 91.5t-83.5 34.5t-78.5 -29.5t-26.5 -68.5q-24 -2 -40 10t-16 39q0 43 44 71.5t114 28.5q61 0 116 -30q31 -16 50 -53t19 -90v-292zM348 188
q-46 25 -107 25t-89.5 -23t-28.5 -63t25 -63.5t69 -23.5q70 0 131 54v94zM341 574.5q-40 -39.5 -107.5 -39.5t-107.5 39t-48 89l34 16q11 -29 41.5 -54t80.5 -25q90 0 120 78l34 -15q-7 -49 -47 -88.5z" />
    <glyph glyph-name="Aogonek" unicode="&#x104;" horiz-adv-x="610" 
d="M571 0h-11q-62 -28 -62 -76.5t50 -48.5q26 0 57 23q4 -3 6.5 -14t0.5 -18q-24 -34 -83 -34q-39 0 -64.5 20.5t-25.5 56.5q0 53 53 91h-113v8q0 26 14 34q7 3 17 4l46 2l-53 183h-212l-53 -181l75 -6q4 -44 -27 -44h-175v8q0 26 14 34q7 3 17 4l40 2l193 630q32 4 65 0
l193 -628l65 -6q4 -44 -27 -44zM206 281h182l-90 313z" />
    <glyph glyph-name="aogonek" unicode="&#x105;" horiz-adv-x="502" 
d="M384 -86q0 -47 51 -47q25 0 56 23q4 -3 6.5 -14t0.5 -18q-11 -15 -34 -25t-55.5 -10t-58 21t-25.5 57q0 55 57 93q-26 14 -32 53q-64 -62 -154 -62q-69 0 -109.5 35.5t-40.5 96.5t45 103t149 42q61 0 108 -14v79q0 57 -28.5 91.5t-83.5 34.5t-78.5 -29.5t-26.5 -68.5
q-24 -2 -40 10t-16 39q0 43 44 71.5t114 28.5q61 0 116 -30q31 -16 50 -53t19 -90v-292l66 -8q0 -43 -52 -47q-48 -26 -48 -70zM348 188q-46 25 -107 25t-89.5 -23t-28.5 -63t25 -63.5t69 -23.5q70 0 131 54v94z" />
    <glyph glyph-name="Cacute" unicode="&#x106;" horiz-adv-x="559" 
d="M477 836l-198 -106q-19 9 -30 29l165 127q18 -2 36 -17t27 -33zM335 692q81 0 135.5 -36.5t54.5 -92.5t-63 -57q0 63 -36 97.5t-99 34.5q-103 0 -157 -83t-54 -220q0 -289 223 -289q104 0 180 61q13 -7 13 -22q0 -31 -61 -65.5t-149 -34.5q-135 0 -207.5 88.5t-76 248
t76 265t220.5 105.5z" />
    <glyph glyph-name="cacute" unicode="&#x107;" horiz-adv-x="452" 
d="M275 504q64 0 101.5 -26t37.5 -69q0 -55 -56 -53q-1 37 -25.5 65.5t-73.5 28.5q-71 0 -108.5 -59t-37.5 -149q0 -79 31 -136q36 -63 124 -63q72 0 137 53q13 -9 13 -24q0 -30 -57 -58.5t-122 -28.5q-95 0 -146.5 66t-53.5 180.5t61 193.5t175 79zM410 641l-199 -107
q-18 9 -29 29l165 127q18 -2 36 -17t27 -32z" />
    <glyph glyph-name="Ccircumflex" unicode="&#x108;" horiz-adv-x="559" 
d="M532 85q0 -31 -61 -65.5t-149 -34.5q-135 0 -207.5 88.5t-76 248t76 265t220.5 105.5q81 0 135.5 -36.5t54.5 -92.5t-63 -57q0 63 -36 97.5t-99 34.5q-103 0 -157 -83t-54 -220q0 -289 223 -289q104 0 180 61q13 -7 13 -22zM329 808l-134 -88q-18 9 -28 28l132 121
q33 8 61 0l131 -121q-11 -19 -28 -28z" />
    <glyph glyph-name="ccircumflex" unicode="&#x109;" horiz-adv-x="452" 
d="M418 72q0 -30 -57 -58.5t-122 -28.5q-95 0 -146.5 66t-53.5 180.5t61 193.5t175 79q64 0 101.5 -26t37.5 -69q0 -55 -56 -53q-1 37 -25.5 65.5t-73.5 28.5q-71 0 -108.5 -59t-37.5 -149q0 -79 31 -136q36 -63 124 -63q72 0 137 53q13 -9 13 -24zM262 620l-134 -88
q-18 9 -28 28l132 121q33 8 61 0l131 -121q-11 -19 -28 -28z" />
    <glyph glyph-name="Cdotaccent" unicode="&#x10a;" horiz-adv-x="559" 
d="M335 692q81 0 135.5 -36.5t54.5 -92.5t-63 -57q0 63 -36 97.5t-99 34.5q-103 0 -157 -83t-54 -220q0 -289 223 -289q104 0 180 61q13 -7 13 -22q0 -31 -61 -65.5t-149 -34.5q-135 0 -207.5 88.5t-76 248t76 265t220.5 105.5zM328 786q-22 0 -35.5 14t-13.5 36t13.5 35.5
t35.5 13.5t36 -13.5t14 -35.5t-14 -36t-36 -14z" />
    <glyph glyph-name="cdotaccent" unicode="&#x10b;" horiz-adv-x="452" 
d="M261 562q-22 0 -35.5 14t-13.5 36t13.5 35.5t35.5 13.5t36 -13.5t14 -35.5t-14 -36t-36 -14zM275 504q64 0 101.5 -26t37.5 -69q0 -55 -56 -53q-1 37 -25.5 65.5t-73.5 28.5q-71 0 -108.5 -59t-37.5 -149q0 -79 31 -136q36 -63 124 -63q72 0 137 53q13 -9 13 -24
q0 -30 -57 -58.5t-122 -28.5q-95 0 -146.5 66t-53.5 180.5t61 193.5t175 79z" />
    <glyph glyph-name="Ccaron" unicode="&#x10c;" horiz-adv-x="559" 
d="M532 85q0 -31 -61 -65.5t-149 -34.5q-135 0 -207.5 88.5t-76 248t76 265t220.5 105.5q81 0 135.5 -36.5t54.5 -92.5t-63 -57q0 63 -36 97.5t-99 34.5q-103 0 -157 -83t-54 -220q0 -289 223 -289q104 0 180 61q13 -7 13 -22zM491 856l-131 -121q-32 -7 -62 0l-132 121
q12 21 28 28l134 -87l134 87q16 -7 29 -28z" />
    <glyph glyph-name="ccaron" unicode="&#x10d;" horiz-adv-x="452" 
d="M418 72q0 -30 -57 -58.5t-122 -28.5q-95 0 -146.5 66t-53.5 180.5t61 193.5t175 79q64 0 101.5 -26t37.5 -69q0 -55 -56 -53q-1 37 -25.5 65.5t-73.5 28.5q-71 0 -108.5 -59t-37.5 -149q0 -79 31 -136q36 -63 124 -63q72 0 137 53q13 -9 13 -24zM424 668l-131 -120
q-32 -8 -62 0l-132 120q12 20 28 29l135 -88l134 88q15 -9 28 -29z" />
    <glyph glyph-name="Dcaron" unicode="&#x10e;" horiz-adv-x="665" 
d="M42 0v16q0 11 5.5 17.5t8.5 7.5t6.5 2.5t8.5 1.5l47 4v579l-72 6q-3 45 29 45h209q179 0 260.5 -82t81.5 -251.5t-87 -257.5t-254 -88h-243zM476 117.5q73 71.5 73 226t-76 224t-231 64.5l-51 -2h-1v-581l73 -1q140 -2 213 69.5zM446 858l-131 -121q-29 -8 -62 0
l-132 121q13 20 28 28l134 -87l134 87q15 -8 29 -28z" />
    <glyph glyph-name="dcaron" unicode="&#x10f;" horiz-adv-x="604" 
d="M590 720q5 -117 -56 -185q-5 -3 -17.5 3.5t-12.5 12.5q15 35 17.5 88.5t-8.5 85.5q14 11 41.5 10t35.5 -15zM465 -15q-66 0 -71 73q-73 -73 -157 -73t-139.5 61.5t-58.5 184t60.5 198t177.5 75.5q61 0 116 -26v153l-52 6q-24 2 -24 43l145 18v-658l64 -8q-2 -47 -61 -47z
M393 401q-54 49 -130.5 49t-113 -58.5t-36.5 -146.5t36 -144.5t110 -56.5q37 0 66 15t68 48v294z" />
    <glyph glyph-name="Dcroat" unicode="&#x110;" horiz-adv-x="692" 
d="M42 0v16q0 11 5.5 17.5t8.5 7.5t6.5 2.5t8.5 1.5l47 4v263h-52v51h52v265l-72 6q-3 45 29 45h209q179 0 260.5 -82t81.5 -251.5t-87 -257.5t-254 -88h-243zM476 117.5q73 71.5 73 226t-76 224t-231 64.5l-51 -2h-1v-267h180v-51h-180v-263l73 -1q140 -2 213 69.5z" />
    <glyph glyph-name="dcroat" unicode="&#x111;" horiz-adv-x="558" 
d="M540 535h-78v-495l64 -8q-2 -47 -61 -47q-66 0 -71 73q-73 -73 -157 -73t-139.5 61.5t-58.5 184t60.5 198t177.5 75.5q61 0 116 -26v57h-75v49h75v47l-52 6q-24 2 -24 43l145 18v-114h78v-49zM393 401q-54 49 -130.5 49t-113 -58.5t-36.5 -146.5t36 -144.5t110 -56.5
q37 0 66 15t68 48v294z" />
    <glyph glyph-name="Emacron" unicode="&#x112;" horiz-adv-x="552" 
d="M173 822h263v-56h-263v56zM42 0v16q0 22 20 28q5 2 11 2l46 2v579l-73 6q-4 44 28 44h422v-141q0 -31 -44 -27l-10 113l-251 5v-267l192 13q7 -37 0 -72l-192 11v-262l265 7l10 106q44 4 44 -27v-136h-468z" />
    <glyph glyph-name="emacron" unicode="&#x113;" horiz-adv-x="461" 
d="M430 263h-314q-1 -10 -1 -31q0 -85 36 -137.5t112 -52.5t145 54q12 -10 12 -25q0 -28 -54.5 -57t-122.5 -29q-93 0 -148.5 61t-55.5 186t66 198.5t156 73.5t130 -57t39 -136v-48zM357 308q0 67 -26 106.5t-75.5 39.5t-84.5 -39t-49 -107h235zM392 635v-57h-263v57h263z
" />
    <glyph glyph-name="Ebreve" unicode="&#x114;" horiz-adv-x="552" 
d="M42 0v16q0 22 20 28q5 2 11 2l46 2v579l-73 6q-4 44 28 44h422v-141q0 -31 -44 -27l-10 113l-251 5v-267l192 13q7 -37 0 -72l-192 11v-262l265 7l10 106q44 4 44 -27v-136h-468zM306 800q90 0 120 78l34 -15q-7 -50 -47 -89t-108 -39t-108 39t-47 89l34 16
q11 -29 41.5 -54t80.5 -25z" />
    <glyph glyph-name="ebreve" unicode="&#x115;" horiz-adv-x="461" 
d="M430 263h-314q-1 -10 -1 -31q0 -85 36 -137.5t112 -52.5t145 54q12 -10 12 -25q0 -28 -54.5 -57t-122.5 -29q-93 0 -148.5 61t-55.5 186t66 198.5t156 73.5t130 -57t39 -136v-48zM357 308q0 67 -26 106.5t-75.5 39.5t-84.5 -39t-49 -107h235zM261 535q-68 0 -108 39
t-47 89l34 16q11 -29 41.5 -54t80.5 -25q90 0 120 78l34 -15q-7 -49 -47 -88.5t-108 -39.5z" />
    <glyph glyph-name="Edotaccent" unicode="&#x116;" horiz-adv-x="552" 
d="M305 786q-22 0 -36 14t-14 36t14 35.5t36 13.5t35.5 -13.5t13.5 -35.5t-13.5 -36t-35.5 -14zM42 0v16q0 22 20 28q5 2 11 2l46 2v579l-73 6q-4 44 28 44h422v-141q0 -31 -44 -27l-10 113l-251 5v-267l192 13q7 -37 0 -72l-192 11v-262l265 7l10 106q44 4 44 -27v-136
h-468z" />
    <glyph glyph-name="edotaccent" unicode="&#x117;" horiz-adv-x="461" 
d="M430 263h-314q-1 -10 -1 -31q0 -85 36 -137.5t112 -52.5t145 54q12 -10 12 -25q0 -28 -54.5 -57t-122.5 -29q-93 0 -148.5 61t-55.5 186t66 198.5t156 73.5t130 -57t39 -136v-48zM357 308q0 67 -26 106.5t-75.5 39.5t-84.5 -39t-49 -107h235zM261 598q-22 0 -36 14
t-14 36t14 35.5t36 13.5t35.5 -13.5t13.5 -35.5t-13.5 -36t-35.5 -14z" />
    <glyph glyph-name="Eogonek" unicode="&#x118;" horiz-adv-x="552" 
d="M42 0v16q0 22 20 28q5 2 11 2l46 2v579l-73 6q-4 44 28 44h422v-141q0 -31 -44 -27l-10 113l-251 5v-267l192 13q7 -37 0 -72l-192 11v-262l265 7l10 106q44 4 44 -27v-109q6 3 28 10l18 -24q-76 -29 -76 -79.5t50 -50.5q28 0 57 22q4 -3 6.5 -14t0.5 -17
q-11 -15 -34 -25t-56 -10t-58 20.5t-25 62.5t44 78h-423z" />
    <glyph glyph-name="eogonek" unicode="&#x119;" horiz-adv-x="461" 
d="M320 -53q0 -47 50 -47q28 0 57 22q4 -3 6.5 -14t0.5 -17q-11 -15 -34 -25t-55.5 -10t-58 21t-25.5 53.5t16 56.5q-22 -2 -34 -2q-93 0 -148.5 61t-55.5 186t66 198.5t156 73.5t130 -57t39 -136v-48h-314q-1 -10 -1 -31q0 -85 36 -137.5t112 -52.5t145 54q12 -10 12 -27
t-26 -37l2 -2l-10 -4q-19 -13 -33 -18q-33 -24 -33 -61zM357 308q0 67 -26 106.5t-75.5 39.5t-84.5 -39t-49 -107h235z" />
    <glyph glyph-name="Ecaron" unicode="&#x11a;" horiz-adv-x="552" 
d="M42 0v16q0 22 20 28q5 2 11 2l46 2v579l-73 6q-4 44 28 44h422v-141q0 -31 -44 -27l-10 113l-251 5v-267l192 13q7 -37 0 -72l-192 11v-262l265 7l10 106q44 4 44 -27v-136h-468zM467 856l-131 -121q-31 -7 -62 0l-132 121q12 21 28 28l135 -88l134 88q17 -8 28 -28z" />
    <glyph glyph-name="ecaron" unicode="&#x11b;" horiz-adv-x="461" 
d="M430 263h-314q-1 -10 -1 -31q0 -85 36 -137.5t112 -52.5t145 54q12 -10 12 -25q0 -28 -54.5 -57t-122.5 -29q-93 0 -148.5 61t-55.5 186t66 198.5t156 73.5t130 -57t39 -136v-48zM357 308q0 67 -26 106.5t-75.5 39.5t-84.5 -39t-49 -107h235zM423 668l-131 -120
q-31 -9 -62 0l-132 120q12 20 28 29l135 -89l134 89q17 -9 28 -29z" />
    <glyph glyph-name="Gcircumflex" unicode="&#x11c;" horiz-adv-x="627" 
d="M401 306h210v-8q0 -35 -31 -38l-25 -3h-2v-186q-33 -39 -99 -62.5t-136 -23.5q-130 0 -202.5 86.5t-76.5 250t78 268t234 104.5q101 0 151.5 -38t50.5 -90q0 -25 -14.5 -42.5t-47.5 -17.5q0 136 -154 136q-109 0 -165.5 -83.5t-56.5 -221.5t52.5 -217t167.5 -79
q97 0 151 46v168l-112 6q-4 45 27 45zM325 808l-134 -88q-17 9 -28 28l132 121q33 8 61 0l131 -121q-11 -19 -28 -28z" />
    <glyph glyph-name="gcircumflex" unicode="&#x11d;" horiz-adv-x="463" 
d="M198 95l30 -1q122 -2 172.5 -28.5t50.5 -97.5q0 -87 -64 -140.5t-164.5 -53.5t-152.5 37.5t-52 96.5q0 76 79 135q-25 13 -25 45.5t50 84.5q-76 39 -81 134q-5 80 45 138.5t136 58.5q57 0 101 -28l121 32q9 -12 10 -30t-10 -28q-16 -8 -86 -6q32 -42 30.5 -115.5
t-48 -124.5t-130.5 -51q-23 0 -46 5q-40 -47 -20 -56q18 -7 54 -7zM109 328q0 -54 27.5 -92t77 -37t78 39t28.5 91.5t-27 91t-77 36.5t-78.5 -38t-28.5 -91zM119 -141.5q42 -24.5 116 -24.5t119 34t45 82q0 47 -53 62q-46 12 -117.5 14t-95.5 6q-56 -49 -56 -99t42 -74.5z
M230 620l-134 -88q-18 9 -28 28l132 121q33 8 61 0l131 -121q-11 -19 -28 -28z" />
    <glyph glyph-name="Gbreve" unicode="&#x11e;" horiz-adv-x="627" 
d="M401 306h210v-8q0 -35 -31 -38l-25 -3h-2v-186q-33 -39 -99 -62.5t-136 -23.5q-130 0 -202.5 86.5t-76.5 250t78 268t234 104.5q101 0 151.5 -38t50.5 -90q0 -25 -14.5 -42.5t-47.5 -17.5q0 136 -154 136q-109 0 -165.5 -83.5t-56.5 -221.5t52.5 -217t167.5 -79
q97 0 151 46v168l-112 6q-4 45 27 45zM325 735q-68 0 -108 39t-47 89l34 16q11 -29 41.5 -54t80.5 -25q90 0 120 78l34 -15q-8 -50 -47.5 -89t-107.5 -39z" />
    <glyph glyph-name="gbreve" unicode="&#x11f;" horiz-adv-x="463" 
d="M198 95l30 -1q122 -2 172.5 -28.5t50.5 -97.5q0 -87 -64 -140.5t-164.5 -53.5t-152.5 37.5t-52 96.5q0 76 79 135q-25 13 -25 45.5t50 84.5q-76 39 -81 134q-5 80 45 138.5t136 58.5q57 0 101 -28l121 32q9 -12 10 -30t-10 -28q-16 -8 -86 -6q32 -42 30.5 -115.5
t-48 -124.5t-130.5 -51q-23 0 -46 5q-40 -47 -20 -56q18 -7 54 -7zM109 328q0 -54 27.5 -92t77 -37t78 39t28.5 91.5t-27 91t-77 36.5t-78.5 -38t-28.5 -91zM119 -141.5q42 -24.5 116 -24.5t119 34t45 82q0 47 -53 62q-46 12 -117.5 14t-95.5 6q-56 -49 -56 -99t42 -74.5z
M338 574.5q-40 -39.5 -107.5 -39.5t-107.5 39t-47 89l33 16q13 -30 42.5 -54.5t79.5 -24.5q89 0 121 78l33 -15q-7 -49 -47 -88.5z" />
    <glyph glyph-name="Gdotaccent" unicode="&#x120;" horiz-adv-x="627" 
d="M401 306h210v-8q0 -35 -31 -38l-25 -3h-2v-186q-33 -39 -99 -62.5t-136 -23.5q-130 0 -202.5 86.5t-76.5 250t78 268t234 104.5q101 0 151.5 -38t50.5 -90q0 -25 -14.5 -42.5t-47.5 -17.5q0 136 -154 136q-109 0 -165.5 -83.5t-56.5 -221.5t52.5 -217t167.5 -79
q97 0 151 46v168l-112 6q-4 45 27 45zM324 786q-22 0 -35.5 14t-13.5 36t13.5 35.5t35.5 13.5t36 -13.5t14 -35.5t-14 -36t-36 -14z" />
    <glyph glyph-name="gdotaccent" unicode="&#x121;" horiz-adv-x="463" 
d="M198 95l30 -1q122 -2 172.5 -28.5t50.5 -97.5q0 -87 -64 -140.5t-164.5 -53.5t-152.5 37.5t-52 96.5q0 76 79 135q-25 13 -25 45.5t50 84.5q-76 39 -81 134q-5 80 45 138.5t136 58.5q57 0 101 -28l121 32q9 -12 10 -30t-10 -28q-16 -8 -86 -6q32 -42 30.5 -115.5
t-48 -124.5t-130.5 -51q-23 0 -46 5q-40 -47 -20 -56q18 -7 54 -7zM109 328q0 -54 27.5 -92t77 -37t78 39t28.5 91.5t-27 91t-77 36.5t-78.5 -38t-28.5 -91zM119 -141.5q42 -24.5 116 -24.5t119 34t45 82q0 47 -53 62q-46 12 -117.5 14t-95.5 6q-56 -49 -56 -99t42 -74.5z
M229 598q-22 0 -35.5 14t-13.5 36t13.5 35.5t35.5 13.5t36 -13.5t14 -35.5t-14 -36t-36 -14z" />
    <glyph glyph-name="uni0122" unicode="&#x122;" horiz-adv-x="627" 
d="M401 306h210v-8q0 -35 -31 -38l-25 -3h-2v-186q-33 -39 -99 -62.5t-136 -23.5q-130 0 -202.5 86.5t-76.5 250t78 268t234 104.5q101 0 151.5 -38t50.5 -90q0 -25 -14.5 -42.5t-47.5 -17.5q0 136 -154 136q-109 0 -165.5 -83.5t-56.5 -221.5t52.5 -217t167.5 -79
q97 0 151 46v168l-112 6q-4 45 27 45zM314 -33q24 0 38.5 -14.5t14.5 -49t-26.5 -76t-56.5 -54.5q-5 -2 -12.5 5.5t-7.5 11.5q31 22 42 71q-20 2 -32.5 17.5t-12.5 37.5t14.5 36.5t38.5 14.5z" />
    <glyph glyph-name="uni0123" unicode="&#x123;" horiz-adv-x="463" 
d="M198 95l30 -1q122 -2 172.5 -28.5t50.5 -97.5q0 -87 -64 -140.5t-164.5 -53.5t-152.5 37.5t-52 96.5q0 76 79 135q-25 13 -25 45.5t50 84.5q-76 39 -81 134q-5 80 45 138.5t136 58.5q57 0 101 -28l121 32q9 -12 10 -30t-10 -28q-16 -8 -86 -6q32 -42 30.5 -115.5
t-48 -124.5t-130.5 -51q-23 0 -46 5q-40 -47 -20 -56q18 -7 54 -7zM109 328q0 -54 27.5 -92t77 -37t78 39t28.5 91.5t-27 91t-77 36.5t-78.5 -38t-28.5 -91zM119 -141.5q42 -24.5 116 -24.5t119 34t45 82q0 47 -53 62q-46 12 -117.5 14t-95.5 6q-56 -49 -56 -99t42 -74.5z
M263.5 565.5q-14.5 -14.5 -38 -14.5t-38.5 14.5t-15 49t26.5 76t56.5 54.5q5 2 12.5 -5.5t7.5 -11.5q-31 -22 -42 -71q20 -2 32.5 -17.5t12.5 -37.5t-14.5 -36.5z" />
    <glyph glyph-name="Hcircumflex" unicode="&#x124;" horiz-adv-x="713" 
d="M640 0h-194v8q0 26 14 34q7 3 17 4l45 2v266h-331v-264l73 -6q4 -44 -27 -44h-195v8q0 26 14 34q7 3 17 4l46 2v579l-73 6q-4 44 27 44h195v-8q0 -27 -14 -33q-7 -4 -17 -5l-46 -2v-266h331v264l-72 6q-4 44 27 44h194v-8q0 -27 -14 -33q-7 -4 -17 -5l-45 -2v-579l72 -6
q4 -44 -27 -44zM360 808l-134 -88q-18 9 -28 28l132 121q33 8 61 0l131 -121q-11 -19 -28 -28z" />
    <glyph glyph-name="hcircumflex" unicode="&#x125;" horiz-adv-x="619" 
d="M567 0h-190v8q0 32 32 35l41 2v251q0 73 -31 109.5t-80.5 36.5t-81 -16t-67.5 -48v-331l76 -6q4 -41 -28 -41h-190v8q0 24 14 30q7 4 17 5l42 2v586l-52 5q-24 3 -24 43l145 19v-121l114 104q33 8 61 0l131 -121q-11 -19 -28 -28l-134 88l-134 -88q-4 2 -10 6v-105
q69 71 157 71q70 0 120 -48.5t51 -153.5l1 -255l75 -6q4 -41 -27 -41z" />
    <glyph glyph-name="Hbar" unicode="&#x126;" horiz-adv-x="713" 
d="M640 0h-194v8q0 26 14 34q7 3 17 4l45 2v266h-331v-264l73 -6q4 -44 -27 -44h-195v8q0 26 14 34q7 3 17 4l46 2v411h-68v50h68v118l-73 6q-4 44 27 44h195v-8q0 -27 -14 -33q-7 -4 -17 -5l-46 -2v-120h331v118l-72 6q-4 44 27 44h194v-8q0 -27 -14 -33q-7 -4 -17 -5
l-45 -2v-120h64v-50h-64v-409l72 -6q4 -44 -27 -44zM191 363h331v96h-331v-96z" />
    <glyph glyph-name="hbar" unicode="&#x127;" horiz-adv-x="624" 
d="M572 0h-190v8q0 32 32 35l41 2v251q0 73 -31 109.5t-80.5 36.5t-81 -16t-67.5 -48v-331l76 -6q4 -41 -28 -41h-190v8q0 24 14 30q7 4 17 5l42 2v488h-80v49h80v49l-52 5q-24 3 -24 43l145 19v-116h73v-49h-73v-100q69 71 157 71q70 0 120 -48.5t51 -153.5l1 -255l75 -6
q4 -41 -27 -41z" />
    <glyph glyph-name="Itilde" unicode="&#x128;" horiz-adv-x="310" 
d="M290 781.5q-27 -28.5 -66 -28.5t-81 25.5t-63 25.5t-35.5 -14.5t-21.5 -33.5l-30 11q9 47 38 73t62 26t73 -26.5t65 -26.5t41 14.5t22 37.5l31 -9q-8 -46 -35 -74.5zM237 0h-195v8q0 26 14 34q7 3 17 4l46 2v579l-73 6q-4 44 27 44h195v-8q0 -27 -14 -33q-7 -4 -17 -5
l-46 -2v-579l73 -6q4 -44 -27 -44z" />
    <glyph glyph-name="itilde" unicode="&#x129;" horiz-adv-x="291" 
d="M281 664l30 -10q-10 -46 -38.5 -72.5t-68 -24.5t-79.5 29.5t-61 29t-36.5 -12t-22.5 -32.5l-30 13q12 46 42 70.5t63 22.5t71.5 -31t64.5 -30q49 -1 65 48zM238 0h-190v8q0 24 14 30q7 4 17 5l42 2v396l-52 4q-24 3 -24 43l145 16v-457l76 -6q4 -41 -28 -41z" />
    <glyph glyph-name="Imacron" unicode="&#x12a;" horiz-adv-x="310" 
d="M26 822h264v-56h-264v56zM237 0h-195v8q0 26 14 34q7 3 17 4l46 2v579l-73 6q-4 44 27 44h195v-8q0 -27 -14 -33q-7 -4 -17 -5l-46 -2v-579l73 -6q4 -44 -27 -44z" />
    <glyph glyph-name="imacron" unicode="&#x12b;" horiz-adv-x="291" 
d="M11 635h263v-57h-263v57zM238 0h-190v8q0 24 14 30q7 4 17 5l42 2v396l-52 4q-24 3 -24 43l145 16v-457l76 -6q4 -41 -28 -41z" />
    <glyph glyph-name="Ibreve" unicode="&#x12c;" horiz-adv-x="310" 
d="M159 735q-68 0 -108 39t-47 89l34 16q11 -29 41.5 -54t80.5 -25q90 0 120 78l34 -15q-7 -50 -47 -89t-108 -39zM237 0h-195v8q0 26 14 34q7 3 17 4l46 2v579l-73 6q-4 44 27 44h195v-8q0 -27 -14 -33q-7 -4 -17 -5l-46 -2v-579l73 -6q4 -44 -27 -44z" />
    <glyph glyph-name="ibreve" unicode="&#x12d;" horiz-adv-x="291" 
d="M238 0h-190v8q0 24 14 30q7 4 17 5l42 2v396l-52 4q-24 3 -24 43l145 16v-457l76 -6q4 -41 -28 -41zM143 535q-68 0 -108 39t-47 89l34 16q11 -29 41.5 -54t80.5 -25q90 0 120 78l34 -15q-7 -49 -47 -88.5t-108 -39.5z" />
    <glyph glyph-name="Iogonek" unicode="&#x12e;" horiz-adv-x="310" 
d="M228 -69q0 -47 51 -47q28 0 57 22q4 -3 6.5 -14t0.5 -17q-25 -35 -84 -35q-39 0 -64.5 21t-25.5 62.5t43 76.5h-170v8q0 26 14 34q7 3 17 4l46 2v579l-73 6q-4 44 27 44h195v-8q0 -27 -14 -33q-7 -4 -17 -5l-46 -2v-579l73 -6q0 -1 0.5 -6t0.5 -8q12 5 22 8l18 -24
q-77 -28 -77 -83z" />
    <glyph glyph-name="iogonek" unicode="&#x12f;" horiz-adv-x="291" 
d="M177 -78q0 -23 14 -35.5t38.5 -12.5t55.5 23q4 -3 6.5 -14t0.5 -17q-25 -35 -84 -35q-39 0 -64 20.5t-25 56.5q0 54 55 92h-126v8q0 24 14 30q7 4 17 5l42 2v396l-52 4q-24 3 -24 43l145 16v-457l76 -6q4 -38 -24 -41q-65 -29 -65 -78zM143 598q-22 0 -36 14t-14 36
t14 35.5t36 13.5t35.5 -13.5t13.5 -35.5t-13.5 -36t-35.5 -14z" />
    <glyph glyph-name="Idotaccent" unicode="&#x130;" horiz-adv-x="310" 
d="M237 0h-195v8q0 26 14 34q7 3 17 4l46 2v579l-73 6q-4 44 27 44h195v-8q0 -27 -14 -33q-7 -4 -17 -5l-46 -2v-579l73 -6q4 -44 -27 -44zM158 786q-22 0 -35.5 14t-13.5 36t13.5 35.5t35.5 13.5t36 -13.5t14 -35.5t-14 -36t-36 -14z" />
    <glyph glyph-name="dotlessi" unicode="&#x131;" horiz-adv-x="291" 
d="M238 0h-190v8q0 24 14 30q7 4 17 5l42 2v396l-52 4q-24 3 -24 43l145 16v-457l76 -6q4 -41 -28 -41z" />
    <glyph glyph-name="IJ" unicode="&#x132;" horiz-adv-x="581" 
d="M341 679h203v-8q0 -27 -14 -33q-8 -4 -59 -8h-1l-1 -524q0 -90 -38.5 -154t-112.5 -64q-34 0 -57.5 18t-23.5 41q0 48 49 46q3 -50 49 -50q30 0 44 28.5t14 99.5l2 557l-81 6q-4 45 27 45zM237 0h-195v8q0 26 14 34q7 3 17 4l46 2v579l-73 6q-4 44 27 44h195v-8
q0 -27 -14 -33q-7 -4 -17 -5l-46 -2v-579l73 -6q4 -44 -27 -44z" />
    <glyph glyph-name="ij" unicode="&#x133;" horiz-adv-x="519" 
d="M437 9q0 -106 -38.5 -170.5t-116.5 -64.5q-29 0 -53 14t-24 38.5t13 36t34 10.5q2 -45 47 -45q34 0 51.5 29t17.5 103v481l-53 5q-23 3 -23 42l145 16v-495zM238 0h-190v8q0 24 14 30q7 4 17 5l42 2v396l-52 4q-24 3 -24 43l145 16v-457l76 -6q4 -41 -28 -41zM147 582
q-22 0 -35.5 13.5t-13.5 35.5t13.5 36t35.5 14t36 -14t14 -36t-14 -35.5t-36 -13.5zM395 582q-22 0 -35.5 13.5t-13.5 35.5t13.5 36t35.5 14t36 -14t14 -36t-14 -35.5t-36 -13.5z" />
    <glyph glyph-name="Jcircumflex" unicode="&#x134;" horiz-adv-x="328" 
d="M216 869l131 -121q-11 -19 -28 -28l-134 88l-134 -88q-17 9 -28 28l132 121q33 8 61 0zM92 677h199v-8q0 -27 -14 -33q-7 -4 -17 -5l-42 -2v-499q0 -84 -40 -138t-108 -54q-34 0 -57.5 17.5t-23.5 40.5q0 48 49 46q2 -49 49 -49q30 0 44.5 28t14.5 99v507l-82 6
q-4 44 28 44z" />
    <glyph glyph-name="jcircumflex" unicode="&#x135;" horiz-adv-x="241" 
d="M149 681l131 -121q-11 -19 -28 -28l-134 88l-134 -88q-17 9 -28 28l132 121q33 8 61 0zM167 9q0 -106 -38.5 -170.5t-116.5 -64.5q-29 0 -53 14t-24 38.5t13 36t34 10.5q2 -45 47 -45q34 0 51.5 29t17.5 103v481l-53 5q-23 3 -23 42l145 16v-495z" />
    <glyph glyph-name="uni0136" unicode="&#x136;" horiz-adv-x="601" 
d="M547 0h-91l-217 309l-48 -58v-201l75 -6q4 -44 -27 -44h-197v8q0 26 14 34q7 3 17 4l46 2v579l-73 6q-4 44 27 44h195v-8q0 -27 -14 -33q-7 -4 -17 -5l-46 -2v-305l246 303l-64 6q-4 44 28 44h172v-8q0 -27 -14 -33q-8 -5 -56 -7l-218 -264l228 -318l61 -6
q4 -12 -1.5 -26.5t-25.5 -14.5zM306 -33q24 0 38.5 -14.5t14.5 -49t-26.5 -76t-56.5 -54.5q-5 -2 -12.5 5.5t-7.5 11.5q31 22 42 71q-20 2 -32.5 17.5t-12.5 37.5t14.5 36.5t38.5 14.5z" />
    <glyph glyph-name="uni0137" unicode="&#x137;" horiz-adv-x="537" 
d="M511 0h-82l-175 239l-64 -70v-122l76 -6q4 -41 -27 -41h-191v8q0 24 14 30q7 4 17 5l42 2v586l-52 6q-24 2 -24 43l145 18v-464l186 208l-60 6q-4 41 28 41h157v-7q0 -24 -14 -30q-7 -4 -46 -8l-143 -157l175 -240l67 -6q4 -41 -29 -41zM264.5 -49.5q14.5 14.5 38 14.5
t38.5 -14.5t15 -49t-26.5 -76t-56.5 -54.5q-5 -2 -12.5 5.5t-7.5 11.5q31 22 42 71q-20 2 -32.5 17.5t-12.5 37.5t14.5 36.5z" />
    <glyph glyph-name="kgreenlandic" unicode="&#x138;" horiz-adv-x="537" 
d="M344 489h157v-7q0 -24 -14 -30q-7 -4 -46 -8l-143 -157l175 -240l67 -6q4 -41 -29 -41h-82l-175 239l-64 -70v-122l76 -6q4 -41 -27 -41h-191v8q0 24 14 30q7 4 17 5l42 2v377l-52 5q-24 3 -24 43l145 19v-255l186 208l-60 6q-4 41 28 41z" />
    <glyph glyph-name="Lacute" unicode="&#x139;" horiz-adv-x="527" 
d="M506 139v-139h-464v8q0 26 14 34q7 3 17 4l46 2v580l-74 6q-5 45 28 45h199v-8q0 -27 -14 -33q-7 -4 -17 -5l-50 -3v-580l260 5l11 110q44 4 44 -26zM349 836l-198 -106q-19 9 -30 29l165 127q18 -2 36 -17t27 -33z" />
    <glyph glyph-name="lacute" unicode="&#x13a;" horiz-adv-x="326" 
d="M234 0h-188v8q0 32 32 35l43 2v587l-52 5q-24 3 -24 42l145 19v-651l71 -6q4 -41 -27 -41zM270 794l-199 -107q-18 9 -29 29l165 127q18 -2 36 -17t27 -32z" />
    <glyph glyph-name="uni013B" unicode="&#x13b;" horiz-adv-x="527" 
d="M506 139v-139h-464v8q0 26 14 34q7 3 17 4l46 2v580l-74 6q-5 45 28 45h199v-8q0 -27 -14 -33q-7 -4 -17 -5l-50 -3v-580l260 5l11 110q44 4 44 -26zM266 -33q24 0 38.5 -14.5t14.5 -49t-26.5 -76t-56.5 -54.5q-5 -2 -12.5 5.5t-7.5 11.5q31 22 42 71q-20 2 -32.5 17.5
t-12.5 37.5t14.5 36.5t38.5 14.5z" />
    <glyph glyph-name="uni013C" unicode="&#x13c;" horiz-adv-x="286" 
d="M234 0h-188v8q0 32 32 35l43 2v587l-52 5q-24 3 -24 42l145 19v-651l71 -6q4 -41 -27 -41zM172 -35q24 0 38.5 -14.5t14.5 -49t-26.5 -76t-56.5 -54.5q-5 -2 -12.5 5.5t-7.5 11.5q31 22 42 71q-20 2 -32.5 17.5t-12.5 37.5t14.5 36.5t38.5 14.5z" />
    <glyph glyph-name="Lcaron" unicode="&#x13d;" horiz-adv-x="600" 
d="M506 139v-139h-464v8q0 26 14 34q7 3 17 4l46 2v580l-74 6q-5 45 28 45h199v-8q0 -27 -14 -33q-7 -4 -17 -5l-50 -3v-580l260 5l11 110q44 4 44 -26zM366 546q-5 -4 -20.5 4t-15.5 14q14 35 16 92t-8 88q14 12 47.5 8t40.5 -20q5 -115 -60 -186z" />
    <glyph glyph-name="lcaron" unicode="&#x13e;" horiz-adv-x="339" 
d="M322 720q5 -116 -55 -185q-5 -3 -17.5 3.5t-12.5 12.5q14 35 16.5 88.5t-7.5 85.5q14 11 41.5 10t34.5 -15zM234 0h-188v8q0 32 32 35l43 2v587l-52 5q-24 3 -24 42l145 19v-651l71 -6q4 -41 -27 -41z" />
    <glyph glyph-name="Ldot" unicode="&#x13f;" horiz-adv-x="527" 
d="M506 139v-139h-464v8q0 26 14 34q7 3 17 4l46 2v580l-74 6q-5 45 28 45h199v-8q0 -27 -14 -33q-7 -4 -17 -5l-50 -3v-580l260 5l11 110q44 4 44 -26zM412 277q-23 0 -38.5 15.5t-15.5 38.5t15.5 39t38.5 16t38.5 -16t15.5 -39t-15.5 -38.5t-38.5 -15.5z" />
    <glyph glyph-name="ldot" unicode="&#x140;" horiz-adv-x="286" 
d="M300 393q23 0 38.5 -16t15.5 -39t-15.5 -38.5t-38.5 -15.5t-38.5 15.5t-15.5 38.5t15.5 39t38.5 16zM234 0h-188v8q0 32 32 35l43 2v587l-52 5q-24 3 -24 42l145 19v-651l71 -6q4 -41 -27 -41z" />
    <glyph glyph-name="Lslash" unicode="&#x141;" horiz-adv-x="535" 
d="M513 139v-139h-464v8q0 26 14 34q7 3 17 4l46 2v186l-64 -50l-32 39l96 76v329l-74 6q-4 45 28 45h199v-8q0 -27 -14 -33q-7 -4 -17 -5l-50 -3v-274l118 93l32 -40l-150 -118v-241l260 5l11 110q44 4 44 -26z" />
    <glyph glyph-name="lslash" unicode="&#x142;" horiz-adv-x="328" 
d="M234 0h-188v8q0 32 32 35l43 2v235l-57 -51l-35 39l92 82v282l-52 5q-24 3 -24 42l145 19v-286l61 54l34 -38l-95 -86v-295l71 -6q4 -41 -27 -41z" />
    <glyph glyph-name="Nacute" unicode="&#x143;" horiz-adv-x="685" 
d="M483 677h178v-8q0 -27 -14 -33q-7 -4 -17 -5l-47 -2v-618q-25 -11 -52 -11l-357 550v-500l73 -6q4 -44 -27 -44h-178v8q0 26 14 34q7 3 17 4l46 2v579l-73 6q-4 44 27 44h106l350 -540v490l-73 6q-4 44 27 44zM488 836l-199 -106q-18 9 -29 29l165 127q18 -2 36 -17
t27 -33z" />
    <glyph glyph-name="nacute" unicode="&#x144;" horiz-adv-x="613" 
d="M561 0h-186v8q0 24 14 30q7 4 17 5l44 2v259q0 140 -111 140q-41 0 -74 -16t-75 -51v-330l71 -6q4 -41 -27 -41h-188v8q0 32 32 35l43 2v394l-52 6q-24 2 -24 41l129 17l13 -76h3q81 77 167 77q67 0 114.5 -47t47.5 -145v-265l70 -6q4 -41 -28 -41zM465 641l-199 -107
q-18 9 -29 29l165 127q18 -2 36 -17t27 -32z" />
    <glyph glyph-name="uni0145" unicode="&#x145;" horiz-adv-x="685" 
d="M483 677h178v-8q0 -27 -14 -33q-7 -4 -17 -5l-47 -2v-618q-25 -11 -52 -11l-357 550v-500l73 -6q4 -44 -27 -44h-178v8q0 26 14 34q7 3 17 4l46 2v579l-73 6q-4 44 27 44h106l350 -540v490l-73 6q-4 44 27 44zM332.5 -47.5q14.5 14.5 38 14.5t38.5 -14.5t15 -49
t-26.5 -76t-56.5 -54.5q-5 -2 -12.5 5.5t-7.5 11.5q31 22 42 71q-20 2 -32.5 17.5t-12.5 37.5t14.5 36.5z" />
    <glyph glyph-name="uni0146" unicode="&#x146;" horiz-adv-x="613" 
d="M561 0h-186v8q0 24 14 30q7 4 17 5l44 2v259q0 140 -111 140q-41 0 -74 -16t-75 -51v-330l71 -6q4 -41 -27 -41h-188v8q0 32 32 35l43 2v394l-52 6q-24 2 -24 41l129 17l13 -76h3q81 77 167 77q67 0 114.5 -47t47.5 -145v-265l70 -6q4 -41 -28 -41zM332 -35
q24 0 38.5 -14.5t14.5 -49t-26.5 -76t-56.5 -54.5q-5 -2 -12.5 5.5t-7.5 11.5q31 22 42 71q-20 2 -32.5 17.5t-12.5 37.5t14.5 36.5t38.5 14.5z" />
    <glyph glyph-name="Ncaron" unicode="&#x147;" horiz-adv-x="685" 
d="M483 677h178v-8q0 -27 -14 -33q-7 -4 -17 -5l-47 -2v-618q-25 -11 -52 -11l-357 550v-500l73 -6q4 -44 -27 -44h-178v8q0 26 14 34q7 3 17 4l46 2v579l-73 6q-4 44 27 44h106l350 -540v490l-73 6q-4 44 27 44zM502 856l-132 -121q-32 -7 -61 0l-132 121q12 21 28 28
l134 -88l134 88q16 -7 29 -28z" />
    <glyph glyph-name="ncaron" unicode="&#x148;" horiz-adv-x="613" 
d="M561 0h-186v8q0 24 14 30q7 4 17 5l44 2v259q0 140 -111 140q-41 0 -74 -16t-75 -51v-330l71 -6q4 -41 -27 -41h-188v8q0 32 32 35l43 2v394l-52 6q-24 2 -24 41l129 17l13 -76h3q81 77 167 77q67 0 114.5 -47t47.5 -145v-265l70 -6q4 -41 -28 -41zM479 668l-131 -120
q-32 -8 -62 0l-132 120q12 20 28 29l135 -88l134 88q15 -8 28 -29z" />
    <glyph glyph-name="Eng" unicode="&#x14a;" horiz-adv-x="685" 
d="M483 677h179v-8q0 -26 -15 -33q-7 -4 -17 -5l-47 -2v-612q0 -81 -37 -138.5t-108 -57.5q-34 0 -57.5 17.5t-23.5 40.5q0 48 48 46q3 -49 50 -49q71 0 73 129l-354 544v-499l74 -6q4 -44 -28 -44h-178v8q0 26 14 34q7 3 17 4l46 2v579l-73 6q-4 44 27 44h106l350 -540v490
l-73 6q-4 44 27 44z" />
    <glyph glyph-name="eng" unicode="&#x14b;" horiz-adv-x="593" 
d="M357 504q67 0 114.5 -47t47.5 -145v-269q0 -106 -38.5 -170.5t-117.5 -64.5q-29 0 -52.5 14t-23.5 38.5t12.5 36t33.5 10.5q3 -45 47 -45q34 0 52 29t18 103v310q0 140 -111 140q-41 0 -74 -16t-75 -51v-330l71 -6q4 -41 -27 -41h-188v8q0 32 32 35l43 2v394l-52 6
q-24 2 -24 41l129 17l13 -76h3q81 77 167 77z" />
    <glyph glyph-name="Omacron" unicode="&#x14c;" horiz-adv-x="642" 
d="M202 822h264v-56h-264v56zM165 557q-52 -81 -52 -218.5t50.5 -219t155.5 -81t158 81t53 218t-51.5 220t-156.5 81.5t-157 -82zM333 692q81 0 143 -40q124 -80 127 -296q2 -169 -75.5 -270t-223.5 -101q-122 0 -192 88t-73 250t75 265.5t219 103.5z" />
    <glyph glyph-name="omacron" unicode="&#x14d;" horiz-adv-x="508" 
d="M150 393q-37 -59 -37 -150.5t36 -149t104 -57t105 57.5t37 147.5t-35.5 151t-104 60t-105.5 -59.5zM261 504q76 0 137 -48q32 -26 51.5 -76t19.5 -120q2 -124 -58 -199.5t-162 -75.5t-155 64t-54.5 185t59 195.5t162.5 74.5zM125 635h263v-57h-263v57z" />
    <glyph glyph-name="Obreve" unicode="&#x14e;" horiz-adv-x="642" 
d="M165 557q-52 -81 -52 -218.5t50.5 -219t155.5 -81t158 81t53 218t-51.5 220t-156.5 81.5t-157 -82zM333 692q81 0 143 -40q124 -80 127 -296q2 -169 -75.5 -270t-223.5 -101q-122 0 -192 88t-73 250t75 265.5t219 103.5zM336 800q90 0 120 78l34 -15q-7 -50 -47 -89
t-108 -39t-108 39t-47 89l34 16q11 -29 41.5 -54t80.5 -25z" />
    <glyph glyph-name="obreve" unicode="&#x14f;" horiz-adv-x="508" 
d="M258 600q90 0 120 78l34 -15q-7 -49 -47 -88.5t-108 -39.5t-108 39t-47 89l34 16q11 -29 41.5 -54t80.5 -25zM150 393q-37 -59 -37 -150.5t36 -149t104 -57t105 57.5t37 147.5t-35.5 151t-104 60t-105.5 -59.5zM261 504q76 0 137 -48q32 -26 51.5 -76t19.5 -120
q2 -124 -58 -199.5t-162 -75.5t-155 64t-54.5 185t59 195.5t162.5 74.5z" />
    <glyph glyph-name="Ohungarumlaut" unicode="&#x150;" horiz-adv-x="642" 
d="M165 557q-52 -81 -52 -218.5t50.5 -219t155.5 -81t158 81t53 218t-51.5 220t-156.5 81.5t-157 -82zM333 692q81 0 143 -40q124 -80 127 -296q2 -169 -75.5 -270t-223.5 -101q-122 0 -192 88t-73 250t75 265.5t219 103.5zM424 798l-199 -107q-18 9 -29 29l165 127
q18 -2 36 -17t27 -32zM603 798l-199 -107q-18 9 -29 29l165 127q18 -2 36 -17t27 -32z" />
    <glyph glyph-name="ohungarumlaut" unicode="&#x151;" horiz-adv-x="508" 
d="M150 393q-37 -59 -37 -150.5t36 -149t104 -57t105 57.5t37 147.5t-35.5 151t-104 60t-105.5 -59.5zM261 504q76 0 137 -48q32 -26 51.5 -76t19.5 -120q2 -124 -58 -199.5t-162 -75.5t-155 64t-54.5 185t59 195.5t162.5 74.5zM437 616l-199 -107q-18 9 -29 29l165 127
q18 -2 36 -17t27 -32zM565 604l-199 -107q-18 9 -29 29l165 127q18 -2 36 -17t27 -32z" />
    <glyph glyph-name="OE" unicode="&#x152;" horiz-adv-x="885" 
d="M169 558q-54 -82 -54 -220.5t51.5 -219t165.5 -80.5q66 0 112 31v544q-45 28 -110 28q-111 -1 -165 -83zM842 0h-422q-47 -15 -104 -15q-127 0 -200.5 89t-77 249.5t78 265.5t230.5 105q48 0 99 -15h376v-142q0 -30 -44 -26l-10 113l-252 5v-267l193 13q6 -34 0 -72
l-193 10v-263l272 7l10 106q44 4 44 -27v-136z" />
    <glyph glyph-name="oe" unicode="&#x153;" horiz-adv-x="815" 
d="M684.5 414q-26.5 40 -76 40t-84.5 -39t-49 -107h235q1 66 -25.5 106zM113 244q0 -92 35.5 -151.5t102.5 -59t104 59t37 150.5t-35.5 152.5t-102.5 59.5t-104 -60t-37 -151zM469 263l-1 -31q0 -85 36 -137.5t112 -52.5t145 54q12 -9 12 -25q0 -28 -54.5 -57t-122.5 -29
q-119 0 -172 102q-62 -102 -181 -102q-96 0 -149.5 63t-55 184.5t58 196.5t164.5 75q51 0 99.5 -25.5t75.5 -82.5q31 52 79.5 80t105.5 28t95 -30q68 -53 68 -163v-48h-315z" />
    <glyph glyph-name="Racute" unicode="&#x154;" horiz-adv-x="577" 
d="M42 0v16q0 22 20 28q5 2 11 2l46 2v581l-73 6q-3 44 26 44h219q219 0 219 -166q0 -82 -51.5 -131.5t-135.5 -63.5q61 -129 127.5 -201t115.5 -72q-1 -27 -15.5 -43.5t-36.5 -16.5q-41 0 -92 53q-97 102 -160 275h-3q-33 0 -68 3v-266l76 -6q4 -44 -27 -44h-198zM191 631
v-269q42 -2 59 -2q90 0 137 37t47 103q0 88 -56 115q-48 23 -125 19l-60 -3h-2zM418 836l-198 -106q-18 8 -29 29l164 127q18 -2 36 -17t27 -33z" />
    <glyph glyph-name="racute" unicode="&#x155;" horiz-adv-x="406" 
d="M264.5 479.5q44.5 24.5 73 24.5t46.5 -13.5t18 -42.5q0 -52 -17 -71q-13 -11 -41 -9q0 72 -38 72q-48 0 -116 -68v-325l86 -6q4 -41 -28 -41h-200v8q0 24 14 30q7 4 17 5l42 2v391l-54 6q-22 2 -22 41l135 17l7 -77h3q30 32 74.5 56.5zM374 641l-199 -107q-18 9 -29 29
l165 127q18 -2 36 -17t27 -32z" />
    <glyph glyph-name="uni0156" unicode="&#x156;" horiz-adv-x="577" 
d="M42 0v16q0 22 20 28q5 2 11 2l46 2v581l-73 6q-3 44 26 44h219q219 0 219 -166q0 -82 -51.5 -131.5t-135.5 -63.5q61 -129 127.5 -201t115.5 -72q-1 -27 -15.5 -43.5t-36.5 -16.5q-41 0 -92 53q-97 102 -160 275h-3q-33 0 -68 3v-266l76 -6q4 -44 -27 -44h-198zM191 631
v-269q42 -2 59 -2q90 0 137 37t47 103q0 88 -56 115q-48 23 -125 19l-60 -3h-2zM262.5 -47.5q14.5 14.5 38 14.5t38.5 -14.5t15 -49t-26.5 -76t-56.5 -54.5q-5 -2 -12.5 5.5t-7.5 11.5q31 22 42 71q-20 2 -32.5 17.5t-12.5 37.5t14.5 36.5z" />
    <glyph glyph-name="uni0157" unicode="&#x157;" horiz-adv-x="406" 
d="M264.5 479.5q44.5 24.5 73 24.5t46.5 -13.5t18 -42.5q0 -52 -17 -71q-13 -11 -41 -9q0 72 -38 72q-48 0 -116 -68v-325l86 -6q4 -41 -28 -41h-200v8q0 24 14 30q7 4 17 5l42 2v391l-54 6q-22 2 -22 41l135 17l7 -77h3q30 32 74.5 56.5zM182 -35q24 0 38.5 -14.5t14.5 -49
t-26.5 -76t-56.5 -54.5q-5 -2 -12.5 5.5t-7.5 11.5q31 22 42 71q-20 2 -32.5 17.5t-12.5 37.5t14.5 36.5t38.5 14.5z" />
    <glyph glyph-name="Rcaron" unicode="&#x158;" horiz-adv-x="577" 
d="M42 0v16q0 22 20 28q5 2 11 2l46 2v581l-73 6q-3 44 26 44h219q219 0 219 -166q0 -82 -51.5 -131.5t-135.5 -63.5q61 -129 127.5 -201t115.5 -72q-1 -27 -15.5 -43.5t-36.5 -16.5q-41 0 -92 53q-97 102 -160 275h-3q-33 0 -68 3v-266l76 -6q4 -44 -27 -44h-198zM191 631
v-269q42 -2 59 -2q90 0 137 37t47 103q0 88 -56 115q-48 23 -125 19l-60 -3h-2zM432 856l-131 -121q-31 -7 -62 0l-132 121q12 21 28 28l135 -88l134 88q17 -8 28 -28z" />
    <glyph glyph-name="rcaron" unicode="&#x159;" horiz-adv-x="406" 
d="M264.5 479.5q44.5 24.5 73 24.5t46.5 -13.5t18 -42.5q0 -52 -17 -71q-13 -11 -41 -9q0 72 -38 72q-48 0 -116 -68v-325l86 -6q4 -41 -28 -41h-200v8q0 24 14 30q7 4 17 5l42 2v391l-54 6q-22 2 -22 41l135 17l7 -77h3q30 32 74.5 56.5zM387 668l-131 -120q-31 -9 -61 0
l-132 120q12 20 28 29l134 -89l134 89q17 -9 28 -29z" />
    <glyph glyph-name="Sacute" unicode="&#x15a;" horiz-adv-x="496" 
d="M405 836l-198 -106q-19 9 -30 29l165 127q18 -2 36 -17t27 -33zM406 650q32 -27 32 -63t-18.5 -51.5t-44.5 -14.5q0 116 -122 116q-57 0 -94.5 -27t-37.5 -75q0 -57 55 -92q30 -19 49 -28t60 -26.5t63.5 -28.5t49.5 -28.5t40 -33.5q32 -41 32 -95q0 -90 -67.5 -154
t-177.5 -64q-79 0 -139.5 32t-60.5 85q0 26 15.5 43t42.5 17q12 -60 53 -91t109 -31t112 37.5t44 99.5q0 58 -41 88q-32 24 -68.5 39.5t-63.5 27.5t-54.5 26.5t-59.5 37.5q-62 45 -62 122t59.5 124.5t147.5 49.5q93 2 147 -42z" />
    <glyph glyph-name="sacute" unicode="&#x15b;" horiz-adv-x="395" 
d="M94 467q52 38 113.5 37t101.5 -21.5t39 -60.5q-1 -27 -19 -39t-39 -10q1 35 -21.5 57t-65.5 23t-71.5 -19.5t-29.5 -52.5t28.5 -51.5t83.5 -40.5t73.5 -30.5t42.5 -25.5q43 -30 41.5 -91t-53.5 -109.5t-139 -47.5q-62 2 -109 26.5t-47 67.5q1 23 15.5 36.5t35.5 12.5
q8 -41 40.5 -66t80.5 -25.5t80 22t33 59.5t-22.5 56t-67.5 35.5t-61.5 23.5t-43 21t-39.5 28q-33 35 -33 82q1 65 53 103zM348 641l-199 -107q-18 9 -29 29l165 127q18 -2 36 -17t27 -32z" />
    <glyph glyph-name="Scircumflex" unicode="&#x15c;" horiz-adv-x="496" 
d="M470 203q0 -90 -67.5 -154t-177.5 -64q-79 0 -139.5 32t-60.5 85q0 26 15.5 43t42.5 17q12 -60 53 -91t109 -31t112 37.5t44 99.5q0 58 -41 88q-32 24 -68.5 39.5t-63.5 27.5t-54.5 26.5t-59.5 37.5q-62 45 -62 122t59.5 124.5t147.5 49.5q93 2 147 -42q32 -27 32 -63
t-18.5 -51.5t-44.5 -14.5q0 116 -122 116q-57 0 -94.5 -27t-37.5 -75q0 -57 55 -92q30 -19 49 -28t60 -26.5t63.5 -28.5t49.5 -28.5t40 -33.5q32 -41 32 -95zM257 808l-134 -88q-17 9 -28 28l132 121q33 8 61 0l131 -121q-11 -19 -28 -28z" />
    <glyph glyph-name="scircumflex" unicode="&#x15d;" horiz-adv-x="395" 
d="M130.5 329.5q29.5 -19.5 83.5 -40.5t73.5 -30.5t42.5 -25.5q43 -30 41.5 -91t-53.5 -109.5t-139 -47.5q-62 2 -109 26.5t-47 67.5q1 23 15.5 36.5t35.5 12.5q8 -41 40.5 -66t80.5 -25.5t80 22t33 59.5t-22.5 56t-67.5 35.5t-61.5 23.5t-43 21t-39.5 28q-33 35 -33 82
q1 65 53 103t113.5 37t101.5 -21.5t39 -60.5q-1 -27 -19 -39t-39 -10q1 35 -21.5 57t-65.5 23t-71.5 -19.5t-29.5 -52.5t28.5 -51.5zM200 620l-134 -88q-18 9 -28 28l132 121q33 8 61 0l131 -121q-11 -19 -28 -28z" />
    <glyph glyph-name="uni015E" unicode="&#x15e;" horiz-adv-x="496" 
d="M25 102q0 26 15.5 43t42.5 17q12 -60 53 -91t109 -31t112 37.5t44 99.5q0 58 -41 88q-32 24 -68.5 39.5t-63.5 27.5t-54.5 26.5t-59.5 37.5q-62 45 -62 122t59.5 124.5t147.5 49.5q93 2 147 -42q32 -27 32 -63t-18.5 -51.5t-44.5 -14.5q0 116 -122 116q-57 0 -94.5 -27
t-37.5 -75q0 -57 55 -92q30 -19 49 -28t60 -26.5t63.5 -28.5t49.5 -28.5t40 -33.5q32 -41 32 -95q0 -85 -61.5 -147.5t-161.5 -69.5l-7 -28q41 0 61 -19.5t20 -53t-26 -55.5t-70 -22t-70 28q-3 21 12 31q23 -18 50 -18q46 0 46 37q0 17 -15.5 26t-57.5 9l17 64
q-74 4 -128 35.5t-54 81.5z" />
    <glyph glyph-name="uni015F" unicode="&#x15f;" horiz-adv-x="395" 
d="M268 -61.5q20 -19.5 20 -53t-26 -55.5t-70 -22t-70 28q-3 21 12 31q23 -18 50 -18q46 0 46 37q0 17 -15.5 26t-57.5 9l17 64q-62 3 -106.5 27.5t-44.5 66.5q1 23 15.5 36.5t35.5 12.5q8 -41 40.5 -66t80.5 -25.5t80 22t33 59.5t-22.5 56t-67.5 35.5t-61.5 23.5t-43 21
t-39.5 28q-33 35 -33 82q1 65 53 103t113.5 37t101.5 -21.5t39 -60.5q-1 -27 -19 -39t-39 -10q1 35 -21.5 57t-65.5 23t-71.5 -19.5t-29.5 -52.5t28.5 -51.5t83.5 -40.5t73.5 -30.5t42.5 -25.5q43 -30 41.5 -87.5t-43.5 -103.5t-114 -55l-7 -29q41 0 61 -19.5z" />
    <glyph glyph-name="Scaron" unicode="&#x160;" horiz-adv-x="496" 
d="M470 203q0 -90 -67.5 -154t-177.5 -64q-79 0 -139.5 32t-60.5 85q0 26 15.5 43t42.5 17q12 -60 53 -91t109 -31t112 37.5t44 99.5q0 58 -41 88q-32 24 -68.5 39.5t-63.5 27.5t-54.5 26.5t-59.5 37.5q-62 45 -62 122t59.5 124.5t147.5 49.5q93 2 147 -42q32 -27 32 -63
t-18.5 -51.5t-44.5 -14.5q0 116 -122 116q-57 0 -94.5 -27t-37.5 -75q0 -57 55 -92q30 -19 49 -28t60 -26.5t63.5 -28.5t49.5 -28.5t40 -33.5q32 -41 32 -95zM419 856l-131 -121q-32 -7 -62 0l-132 121q12 21 28 28l135 -87l134 87q15 -7 28 -28z" />
    <glyph glyph-name="scaron" unicode="&#x161;" horiz-adv-x="395" 
d="M130.5 329.5q29.5 -19.5 83.5 -40.5t73.5 -30.5t42.5 -25.5q43 -30 41.5 -91t-53.5 -109.5t-139 -47.5q-62 2 -109 26.5t-47 67.5q1 23 15.5 36.5t35.5 12.5q8 -41 40.5 -66t80.5 -25.5t80 22t33 59.5t-22.5 56t-67.5 35.5t-61.5 23.5t-43 21t-39.5 28q-33 35 -33 82
q1 65 53 103t113.5 37t101.5 -21.5t39 -60.5q-1 -27 -19 -39t-39 -10q1 35 -21.5 57t-65.5 23t-71.5 -19.5t-29.5 -52.5t28.5 -51.5zM362 668l-131 -120q-32 -8 -62 0l-132 120q12 20 28 29l135 -88l134 88q15 -9 28 -29z" />
    <glyph glyph-name="uni0162" unicode="&#x162;" horiz-adv-x="603" 
d="M20 677h563v-120q0 -32 -44 -28l-7 97h-193v-576l76 -6q4 -44 -28 -44h-199v8q0 26 14 34q7 3 17 4l48 2v578h-196l-7 -97q-44 -4 -44 28v120zM314 -33q24 0 38.5 -14.5t14.5 -49t-26.5 -76t-56.5 -54.5q-5 -2 -12.5 5.5t-7.5 11.5q31 22 42 71q-20 2 -32.5 17.5
t-12.5 37.5t14.5 36.5t38.5 14.5z" />
    <glyph glyph-name="uni0163" unicode="&#x163;" horiz-adv-x="374" 
d="M163 443v-294q0 -56 12.5 -81t48 -25t59.5 8t59 36q18 -5 18 -30t-48.5 -49t-93.5 -24q-70 0 -97 40t-27 116v303h-73q-3 46 29 46h44v119l69 17v-136h187q3 -33 -15 -46h-172zM196.5 -49.5q14.5 14.5 38 14.5t38.5 -14.5t15 -49t-26.5 -76t-56.5 -54.5q-5 -2 -12.5 5.5
t-7.5 11.5q31 22 42 71q-20 2 -32.5 17.5t-12.5 37.5t14.5 36.5z" />
    <glyph glyph-name="Tcaron" unicode="&#x164;" horiz-adv-x="603" 
d="M20 677h563v-120q0 -32 -44 -28l-7 97h-193v-576l76 -6q4 -44 -28 -44h-199v8q0 26 14 34q7 3 17 4l48 2v578h-196l-7 -97q-44 -4 -44 28v120zM467 856l-131 -121q-28 -8 -61 0l-132 121q10 19 28 28l134 -88l134 88q17 -9 28 -28z" />
    <glyph glyph-name="tcaron" unicode="&#x165;" horiz-adv-x="374" 
d="M163 443v-294q0 -56 12.5 -81t48 -25t59.5 8t59 36q18 -5 18 -30t-48.5 -49t-93.5 -24q-70 0 -97 40t-27 116v303h-73q-3 46 29 46h44v119l69 17v-136h187q3 -33 -15 -46h-172zM238 525q-5 -4 -17.5 3t-12.5 12q15 36 17.5 89t-8.5 85q14 12 41.5 10.5t35.5 -15.5
q5 -116 -56 -184z" />
    <glyph glyph-name="Tbar" unicode="&#x166;" horiz-adv-x="603" 
d="M20 677h563v-120q0 -32 -44 -28l-7 97h-193v-576l76 -6q4 -44 -28 -44h-199v8q0 26 14 34q7 3 17 4l48 2v578h-196l-7 -97q-44 -4 -44 28v120zM437 823v-57h-263v57h263z" />
    <glyph glyph-name="tbar" unicode="&#x167;" horiz-adv-x="402" 
d="M163 273v-124q0 -56 12.5 -81t48 -25t59.5 8t59 36q18 -5 18 -30t-48.5 -49t-93.5 -24q-70 0 -97 40t-27 116v133h-59v49h59v121h-73q-3 46 29 46h44v119l69 17v-136h187q3 -33 -15 -46h-172v-121h184v-49h-184z" />
    <glyph glyph-name="Utilde" unicode="&#x168;" horiz-adv-x="646" 
d="M450 677h174v-8q0 -27 -14 -33q-7 -4 -17 -5l-44 -2v-375q0 -128 -57.5 -198.5t-179.5 -70.5q-216 0 -216 256v386l-73 6q-4 44 27 44h195v-8q0 -26 -15 -33q-7 -4 -17 -5l-45 -2l-1 -384q0 -208 154 -208q83 0 128.5 50.5t45.5 154.5v385l-73 6q-4 44 28 44zM198 840
q29 26 62 26t73 -26.5t65 -26.5t41 14.5t22 37.5l31 -9q-8 -46 -35 -74.5t-66 -28.5t-81 25.5t-63 25.5t-35.5 -14.5t-21.5 -33.5l-30 11q9 47 38 73z" />
    <glyph glyph-name="utilde" unicode="&#x169;" horiz-adv-x="572" 
d="M147 571l-30 13q12 46 42 70.5t63 22.5t71.5 -31t64.5 -30q49 -1 65 48l30 -10q-10 -46 -38.5 -72.5t-68 -24.5t-79.5 29.5t-61 29t-36.5 -12t-22.5 -32.5zM16 460q0 29 28 29h117v-295q0 -74 31 -111.5t92.5 -37.5t124.5 55v342l-77 5q-4 42 27 42h119v-432l49 -5
q23 -2 23 -43l-121 -10l-13 53q-67 -67 -153 -67q-69 0 -120 49t-51 154v254l-76 5v13z" />
    <glyph glyph-name="Umacron" unicode="&#x16a;" horiz-adv-x="646" 
d="M194 822h263v-56h-263v56zM450 677h174v-8q0 -27 -14 -33q-7 -4 -17 -5l-44 -2v-375q0 -128 -57.5 -198.5t-179.5 -70.5q-216 0 -216 256v386l-73 6q-4 44 27 44h195v-8q0 -26 -15 -33q-7 -4 -17 -5l-45 -2l-1 -384q0 -208 154 -208q83 0 128.5 50.5t45.5 154.5v385
l-73 6q-4 44 28 44z" />
    <glyph glyph-name="umacron" unicode="&#x16b;" horiz-adv-x="572" 
d="M153 635h263v-57h-263v57zM16 460q0 29 28 29h117v-295q0 -74 31 -111.5t92.5 -37.5t124.5 55v342l-77 5q-4 42 27 42h119v-432l49 -5q23 -2 23 -43l-121 -10l-13 53q-67 -67 -153 -67q-69 0 -120 49t-51 154v254l-76 5v13z" />
    <glyph glyph-name="Ubreve" unicode="&#x16c;" horiz-adv-x="646" 
d="M450 677h174v-8q0 -27 -14 -33q-7 -4 -17 -5l-44 -2v-375q0 -128 -57.5 -198.5t-179.5 -70.5q-216 0 -216 256v386l-73 6q-4 44 27 44h195v-8q0 -26 -15 -33q-7 -4 -17 -5l-45 -2l-1 -384q0 -208 154 -208q83 0 128.5 50.5t45.5 154.5v385l-73 6q-4 44 28 44zM327 800
q90 0 120 78l34 -15q-7 -50 -47 -89t-108 -39t-108 39t-47 89l34 16q11 -29 41.5 -54t80.5 -25z" />
    <glyph glyph-name="ubreve" unicode="&#x16d;" horiz-adv-x="572" 
d="M286 600q90 0 120 78l34 -15q-7 -49 -47 -88.5t-108 -39.5t-108 39t-47 89l34 16q11 -29 41.5 -54t80.5 -25zM16 460q0 29 28 29h117v-295q0 -74 31 -111.5t92.5 -37.5t124.5 55v342l-77 5q-4 42 27 42h119v-432l49 -5q23 -2 23 -43l-121 -10l-13 53q-67 -67 -153 -67
q-69 0 -120 49t-51 154v254l-76 5v13z" />
    <glyph glyph-name="Uring" unicode="&#x16e;" horiz-adv-x="646" 
d="M328 863q-21 0 -33 -12t-12 -33t12 -33t33 -12t33 12t12 33t-12 33t-33 12zM262.5 880.5q25.5 24.5 67 24.5t65.5 -23t23.5 -62.5t-26 -64t-66 -24.5t-65 23.5t-24.5 62.5t25.5 63.5zM450 677h174v-8q0 -27 -14 -33q-7 -4 -17 -5l-44 -2v-375q0 -128 -57.5 -198.5
t-179.5 -70.5q-216 0 -216 256v386l-73 6q-4 44 27 44h195v-8q0 -26 -15 -33q-7 -4 -17 -5l-45 -2l-1 -384q0 -208 154 -208q83 0 128.5 50.5t45.5 154.5v385l-73 6q-4 44 28 44z" />
    <glyph glyph-name="uring" unicode="&#x16f;" horiz-adv-x="572" 
d="M319.5 663q-12.5 12 -33 12t-32.5 -12t-12 -32.5t12 -33t32.5 -12.5t33 12.5t12.5 33t-12.5 32.5zM221.5 692.5q25.5 24.5 67 24.5t65.5 -23t23.5 -62.5t-26 -64t-66 -24.5t-65 23.5t-24.5 62.5t25.5 63.5zM16 460q0 29 28 29h117v-295q0 -74 31 -111.5t92.5 -37.5
t124.5 55v342l-77 5q-4 42 27 42h119v-432l49 -5q23 -2 23 -43l-121 -10l-13 53q-67 -67 -153 -67q-69 0 -120 49t-51 154v254l-76 5v13z" />
    <glyph glyph-name="Uhungarumlaut" unicode="&#x170;" horiz-adv-x="646" 
d="M450 677h174v-8q0 -27 -14 -33q-7 -4 -17 -5l-44 -2v-375q0 -128 -57.5 -198.5t-179.5 -70.5q-216 0 -216 256v386l-73 6q-4 44 27 44h195v-8q0 -26 -15 -33q-7 -4 -17 -5l-45 -2l-1 -384q0 -208 154 -208q83 0 128.5 50.5t45.5 154.5v385l-73 6q-4 44 28 44zM415 798
l-199 -107q-18 9 -29 29l165 127q18 -2 36 -17t27 -32zM594 798l-199 -107q-18 9 -29 29l165 127q18 -2 36 -17t27 -32z" />
    <glyph glyph-name="uhungarumlaut" unicode="&#x171;" horiz-adv-x="572" 
d="M16 460q0 29 28 29h117v-295q0 -74 31 -111.5t92.5 -37.5t124.5 55v342l-77 5q-4 42 27 42h119v-432l49 -5q23 -2 23 -43l-121 -10l-13 53q-67 -67 -153 -67q-69 0 -120 49t-51 154v254l-76 5v13zM465 616l-199 -107q-18 9 -29 29l165 127q18 -2 36 -17t27 -32zM593 604
l-199 -107q-18 9 -29 29l165 127q18 -2 36 -17t27 -32z" />
    <glyph glyph-name="Uogonek" unicode="&#x172;" horiz-adv-x="646" 
d="M450 677h174v-8q0 -27 -14 -33q-7 -4 -17 -5l-44 -2v-375q0 -216 -156 -259q-71 -30 -71 -81q0 -48 51 -48q28 0 56 23q4 -3 6.5 -14t0.5 -18q-24 -34 -83 -34q-39 0 -64.5 20.5t-25.5 56.5q0 49 45 85q-212 3 -212 256v386l-73 6q-4 44 27 44h195v-8q0 -26 -15 -33
q-7 -4 -17 -5l-45 -2l-1 -384q0 -208 154 -208q83 0 128.5 50.5t45.5 154.5v385l-73 6q-4 44 28 44z" />
    <glyph glyph-name="uogonek" unicode="&#x173;" horiz-adv-x="572" 
d="M16 460q0 29 28 29h117v-295q0 -74 31 -111.5t92.5 -37.5t124.5 55v342l-77 5q-4 42 27 42h119v-432l49 -5q23 -2 23 -43l-13 -1q-66 -28 -66 -79q0 -47 50 -47q28 0 57 22q4 -3 6.5 -14t0.5 -17q-25 -35 -84 -35q-39 0 -64 21t-25 57q0 50 47 85l-30 -2l-13 53
q-67 -67 -153 -67q-69 0 -120 49t-51 154v254l-76 5v13z" />
    <glyph glyph-name="Wcircumflex" unicode="&#x174;" horiz-adv-x="945" 
d="M784 677h157q-1 -3 0 -8t-0.5 -11.5t-4.5 -11.5q-6 -13 -26 -15l-18 -2l-204 -629h-60l-155 487l-169 -487h-57l-188 627l-54 6q-4 44 27 44h182v-8q0 -27 -14 -33q-7 -4 -17 -5l-43 -2l145 -525l171 512h59l152 -515l163 526l-74 6q-4 44 28 44zM489 808l-134 -88
q-17 9 -28 28l132 121q33 8 61 0l131 -121q-11 -19 -28 -28z" />
    <glyph glyph-name="wcircumflex" unicode="&#x175;" horiz-adv-x="704" 
d="M571 489h129q4 -40 -29 -42l-6 -1l-166 -446h-42l-108 310l-116 -310h-41l-148 442l-40 6q-3 41 26 41h160v-7q0 -8 -1.5 -11.5t-4.5 -9.5q-4 -12 -26 -14l-37 -3l103 -348l123 351h34l108 -343l112 338l-57 6q-4 41 27 41zM369 620l-134 -88q-17 9 -28 28l132 121
q33 8 61 0l131 -121q-11 -19 -28 -28z" />
    <glyph glyph-name="Ycircumflex" unicode="&#x176;" horiz-adv-x="592" 
d="M431 679h156v-8q0 -35 -31 -38l-21 -3l-199 -354v-226l73 -6q4 -44 -27 -44h-197v8q0 26 15 34q7 3 17 4l45 2v226l-200 354h-1l-56 6q-5 45 28 45h187v-8q0 -27 -14 -33q-7 -4 -17 -5l-45 -3l168 -301l162 299l-71 6q-5 45 28 45zM306 808l-134 -88q-18 9 -28 28
l132 121q33 8 61 0l131 -121q-11 -19 -28 -28z" />
    <glyph glyph-name="ycircumflex" unicode="&#x177;" horiz-adv-x="495" 
d="M360 489h132q-1 -3 0 -7.5t-0.5 -10t-3.5 -10.5q-6 -12 -38 -15l-171 -421h1q-27 -72 -54.5 -124t-43.5 -71q-39 -49 -77 -49t-56 15.5t-18 37t11.5 35t26 13.5t19.5 -2q-9 -40 23 -40q26 0 59 59t59 125l-174 418h-1l-49 6q-4 41 28 41h168v-7q0 -24 -14 -30
q-8 -4 -55 -8l130 -335l128 333l-58 6q-4 41 28 41zM255 620l-134 -88q-17 9 -28 28l132 121q33 8 61 0l131 -121q-11 -19 -28 -28z" />
    <glyph glyph-name="Ydieresis" unicode="&#x178;" horiz-adv-x="592" 
d="M431 679h156v-8q0 -35 -31 -38l-21 -3l-199 -354v-226l73 -6q4 -44 -27 -44h-197v8q0 26 15 34q7 3 17 4l45 2v226l-200 354h-1l-56 6q-5 45 28 45h187v-8q0 -27 -14 -33q-7 -4 -17 -5l-45 -3l168 -301l162 299l-71 6q-5 45 28 45zM260 766q-15 -15 -36.5 -15t-37 15
t-15.5 36.5t15.5 37t37 15.5t36.5 -15.5t15 -37t-15 -36.5zM424.5 766q-15.5 -15 -37 -15t-36.5 15t-15 36.5t15 37t36.5 15.5t37 -15.5t15.5 -37t-15.5 -36.5z" />
    <glyph glyph-name="Zacute" unicode="&#x179;" horiz-adv-x="533" 
d="M504 0h-471q-7 10 -12 28l386 605l-281 -9l-12 -90q-3 -23 -17 -31.5t-30 -4.5v187h424q9 -11 14 -27l-386 -608l325 11l13 96q5 43 47 35v-192zM439 836l-198 -106q-19 9 -30 29l165 127q18 -2 36 -17t27 -33z" />
    <glyph glyph-name="zacute" unicode="&#x17a;" horiz-adv-x="400" 
d="M51 489h320q8 -11 13 -30l-282 -414l231 4l6 57q2 20 19 28t27 2v-136h-359q-8 11 -11 29l285 419l-198 -5l-4 -56q-2 -21 -19 -29t-28 -2v133zM364 641l-199 -107q-18 9 -29 29l165 127q18 -2 36 -17t27 -32z" />
    <glyph glyph-name="Zdotaccent" unicode="&#x17b;" horiz-adv-x="533" 
d="M504 0h-471q-7 10 -12 28l386 605l-281 -9l-12 -90q-3 -23 -17 -31.5t-30 -4.5v187h424q9 -11 14 -27l-386 -608l325 11l13 96q5 43 47 35v-192zM326.5 800q-13.5 -14 -36 -14t-36 14t-13.5 36t14 35.5t36 13.5t35.5 -13.5t13.5 -35.5t-13.5 -36z" />
    <glyph glyph-name="zdotaccent" unicode="&#x17c;" horiz-adv-x="400" 
d="M216 598q-22 0 -36 14t-14 36t14 35.5t36 13.5t35.5 -13.5t13.5 -35.5t-13.5 -36t-35.5 -14zM51 489h320q8 -11 13 -30l-282 -414l231 4l6 57q2 20 19 28t27 2v-136h-359q-8 11 -11 29l285 419l-198 -5l-4 -56q-2 -21 -19 -29t-28 -2v133z" />
    <glyph glyph-name="Zcaron" unicode="&#x17d;" horiz-adv-x="533" 
d="M504 0h-471q-7 10 -12 28l386 605l-281 -9l-12 -90q-3 -23 -17 -31.5t-30 -4.5v187h424q9 -11 14 -27l-386 -608l325 11l13 96q5 43 47 35v-192zM452 856l-131 -121q-28 -8 -61 0l-132 121q10 19 28 28l134 -88l134 88q17 -9 28 -28z" />
    <glyph glyph-name="zcaron" unicode="&#x17e;" horiz-adv-x="400" 
d="M385 0h-359q-8 11 -11 29l285 419l-198 -5l-4 -56q-2 -21 -19 -29t-28 -2v133h320q8 -11 13 -30l-282 -414l231 4l6 57q2 20 19 28t27 2v-136zM378 669l-131 -121q-28 -8 -61 0l-132 121q10 19 28 28l134 -88l134 88q17 -9 28 -28z" />
    <glyph glyph-name="longs" unicode="&#x17f;" horiz-adv-x="321" 
d="M47 443v18q0 11 5 17.5t8 7.5q9 3 15 3h43v28q0 94 38 145t109 51q35 1 59 -12.5t24 -38t-13 -36.5t-34 -12q-1 25 -15.5 39t-41.5 14q-57 0 -57 -118v-502l89 -6q0 -8 0.5 -17t-6 -16.5t-21.5 -7.5h-204v8q0 24 14 30q7 4 17 5l42 2v398h-71z" />
    <glyph glyph-name="florin" unicode="&#x192;" horiz-adv-x="419" 
d="M307 708q36 0 61 -13.5t25 -38t-13 -36t-34 -11.5q-3 50 -44 50q-79 0 -100 -147l-3 -24h97l-5 -46h-99l-80 -548l-63 3l77 545h-68l5 46h70l5 36q15 103 63 143.5t106 40.5z" />
    <glyph glyph-name="uni0218" unicode="&#x218;" horiz-adv-x="496" 
d="M470 203q0 -90 -67.5 -154t-177.5 -64q-79 0 -139.5 32t-60.5 85q0 26 15.5 43t42.5 17q12 -60 53 -91t109 -31t112 37.5t44 99.5q0 58 -41 88q-32 24 -68.5 39.5t-63.5 27.5t-54.5 26.5t-59.5 37.5q-62 45 -62 122t59.5 124.5t147.5 49.5q93 2 147 -42q32 -27 32 -63
t-18.5 -51.5t-44.5 -14.5q0 116 -122 116q-57 0 -94.5 -27t-37.5 -75q0 -57 55 -92q30 -19 49 -28t60 -26.5t63.5 -28.5t49.5 -28.5t40 -33.5q32 -41 32 -95zM250 -33q24 0 38.5 -14.5t14.5 -49t-26.5 -76t-56.5 -54.5q-5 -2 -12.5 5.5t-7.5 11.5q31 22 42 71
q-20 2 -32.5 17.5t-12.5 37.5t14.5 36.5t38.5 14.5z" />
    <glyph glyph-name="uni0219" unicode="&#x219;" horiz-adv-x="395" 
d="M130.5 329.5q29.5 -19.5 83.5 -40.5t73.5 -30.5t42.5 -25.5q43 -30 41.5 -91t-53.5 -109.5t-139 -47.5q-62 2 -109 26.5t-47 67.5q1 23 15.5 36.5t35.5 12.5q8 -41 40.5 -66t80.5 -25.5t80 22t33 59.5t-22.5 56t-67.5 35.5t-61.5 23.5t-43 21t-39.5 28q-33 35 -33 82
q1 65 53 103t113.5 37t101.5 -21.5t39 -60.5q-1 -27 -19 -39t-39 -10q1 35 -21.5 57t-65.5 23t-71.5 -19.5t-29.5 -52.5t28.5 -51.5zM180.5 -49.5q14.5 14.5 38 14.5t38.5 -14.5t15 -49t-26.5 -76t-56.5 -54.5q-5 -2 -12.5 5.5t-7.5 11.5q31 22 42 71q-20 2 -32.5 17.5
t-12.5 37.5t14.5 36.5z" />
    <glyph glyph-name="uni021A" unicode="&#x21a;" horiz-adv-x="603" 
d="M20 677h563v-120q0 -32 -44 -28l-7 97h-193v-576l76 -6q4 -44 -28 -44h-199v8q0 26 14 34q7 3 17 4l48 2v578h-196l-7 -97q-44 -4 -44 28v120zM314 -33q24 0 38.5 -14.5t14.5 -49t-26.5 -76t-56.5 -54.5q-5 -2 -12.5 5.5t-7.5 11.5q31 22 42 71q-20 2 -32.5 17.5
t-12.5 37.5t14.5 36.5t38.5 14.5z" />
    <glyph glyph-name="uni021B" unicode="&#x21b;" horiz-adv-x="374" 
d="M163 443v-294q0 -56 12.5 -81t48 -25t59.5 8t59 36q18 -5 18 -30t-48.5 -49t-93.5 -24q-70 0 -97 40t-27 116v303h-73q-3 46 29 46h44v119l69 17v-136h187q3 -33 -15 -46h-172zM196.5 -49.5q14.5 14.5 38 14.5t38.5 -14.5t15 -49t-26.5 -76t-56.5 -54.5q-5 -2 -12.5 5.5
t-7.5 11.5q31 22 42 71q-20 2 -32.5 17.5t-12.5 37.5t14.5 36.5z" />
    <glyph glyph-name="circumflex" unicode="&#x2c6;" horiz-adv-x="600" 
d="M300 681l131 -121q-11 -19 -28 -28l-134 88l-134 -88q-17 9 -28 28l132 121q33 8 61 0z" />
    <glyph glyph-name="caron" unicode="&#x2c7;" horiz-adv-x="600" 
d="M269 609l134 88q17 -9 28 -28l-131 -121q-28 -8 -61 0l-132 121q10 19 28 28z" />
    <glyph glyph-name="uni02C9" unicode="&#x2c9;" horiz-adv-x="600" 
d="M126 635h263v-57h-263v57z" />
    <glyph glyph-name="breve" unicode="&#x2d8;" horiz-adv-x="600" 
d="M287 600q90 0 120 78l34 -15q-7 -49 -47 -88.5t-108 -39.5t-108 39t-47 89l34 16q11 -29 41.5 -54t80.5 -25z" />
    <glyph glyph-name="dotaccent" unicode="&#x2d9;" horiz-adv-x="541" 
d="M159 598q-22 0 -35.5 14t-13.5 36t13.5 35.5t35.5 13.5t36 -13.5t14 -35.5t-14 -36t-36 -14z" />
    <glyph glyph-name="ring" unicode="&#x2da;" horiz-adv-x="541" 
d="M197.5 663q-12.5 12 -33 12t-33 -12t-12.5 -32.5t12.5 -33t33 -12.5t33 12.5t12.5 33t-12.5 32.5zM99.5 692.5q25.5 24.5 66.5 24.5t65.5 -23.5t24 -62.5t-26 -63.5t-66 -24.5t-65 23.5t-24.5 62.5t25.5 63.5z" />
    <glyph glyph-name="ogonek" unicode="&#x2db;" horiz-adv-x="552" 
d="M213 -73q0 -23 14 -35.5t38.5 -12.5t55.5 23q4 -3 6.5 -14t0.5 -18q-24 -34 -84 -34q-39 0 -64.5 20.5t-25.5 60.5t34.5 71.5t83.5 45.5l18 -24q-77 -30 -77 -83z" />
    <glyph glyph-name="tilde" unicode="&#x2dc;" horiz-adv-x="579" 
d="M115 571l-30 13q12 46 42 70.5t63 22.5t71.5 -31t64.5 -30q49 -1 65 48l30 -10q-10 -46 -38.5 -72.5t-68 -24.5t-79.5 29.5t-61 29t-36.5 -12t-22.5 -32.5z" />
    <glyph glyph-name="hungarumlaut" unicode="&#x2dd;" horiz-adv-x="586" 
d="M444 616l-199 -107q-18 9 -29 29l165 127q18 -2 36 -17t27 -32zM572 604l-199 -107q-18 9 -29 29l165 127q18 -2 36 -17t27 -32z" />
    <glyph glyph-name="uni0326" unicode="&#x326;" horiz-adv-x="0" 
d="M-256 -35q24 0 38.5 -14.5t14.5 -49t-26.5 -76t-56.5 -54.5q-5 -2 -12.5 5.5t-7.5 11.5q31 22 42 71q-20 2 -32.5 17.5t-12.5 37.5t14.5 36.5t38.5 14.5z" />
    <glyph glyph-name="pi" unicode="&#x3c0;" horiz-adv-x="593" 
d="M130 0l19 429h-29q-35 0 -53 -8.5t-31 -31.5l-25 17q5 29 35.5 56t83.5 27h349q48 0 80 36l24 -15q-6 -27 -32.5 -53.5t-73.5 -29.5q-4 -161 -4 -376l72 -8q0 -53 -72 -53q-38 0 -53.5 18.5t-14.5 54t3 168.5t4 196l-196 1l-17 -428h-69z" />
    <glyph glyph-name="uni0901" unicode="&#x901;" horiz-adv-x="0" 
d="M-198 878q22 19 30.5 19t26.5 -21.5t18 -29.5t-21 -27.5t-30 -19.5t-27.5 21t-18.5 30t22 28zM-37.5 703q-54.5 -37 -114.5 -37t-114.5 30t-94.5 82q9 13 27 29q45 -42 77.5 -58t72.5 -16q104 0 171 104q35 -21 55 -57q-25 -40 -79.5 -77z" />
    <glyph glyph-name="uni0902" unicode="&#x902;" horiz-adv-x="0" 
d="M-117 723.5q-23 -20.5 -33 -20.5t-30.5 24t-20.5 33.5t23.5 30t32.5 20.5t30 -24.5t21 -33.5t-23 -29.5z" />
    <glyph glyph-name="uni0903" unicode="&#x903;" horiz-adv-x="305" 
d="M160.5 358.5q-23.5 -20.5 -33 -20.5t-30 23.5t-20.5 33t23.5 30t32.5 20.5t30 -24t21 -33t-23.5 -29.5zM127 71q-10 0 -30 23t-20 33t23.5 30t32.5 20t30 -24t21 -32.5t-23.5 -29t-33.5 -20.5z" />
    <glyph glyph-name="uni0905" unicode="&#x905;" horiz-adv-x="719" 
d="M749 544h-143v-564q-25 0 -46 10.5t-21 21.5v233q-44 -14 -95 -14h-12q1 -5 1 -16q0 -64 -40 -102.5t-107 -38.5q-90 0 -160.5 67t-117.5 176q17 19 40 21q49 -100 99 -151t119 -51q49 0 76 25t27 66.5t-27.5 66.5t-68 25t-66.5 -13q-22 22 -31 58q149 42 149 132
q0 32 -19 49t-51 17q-66 0 -128 -61q-30 27 -41 62q70 56 141.5 56t113.5 -40t42 -96q0 -75 -68 -121q76 -22 105 -82q73 11 119 40v224h-99q-20 26 -20 61h309q20 -23 20 -61z" />
    <glyph glyph-name="uni0906" unicode="&#x906;" horiz-adv-x="995" 
d="M1025 544h-143v-564q-25 0 -46 10.5t-21 21.5v532h-209v-564q-25 0 -46 10.5t-21 21.5v233q-44 -14 -95 -14h-12q1 -5 1 -16q0 -64 -40 -102.5t-107 -38.5q-90 0 -160.5 67t-117.5 176q17 19 40 21q49 -100 99 -151t119 -51q49 0 76 25t27 66.5t-27.5 66.5t-68 25
t-66.5 -13q-22 22 -31 58q149 42 149 132q0 32 -19 49t-51 17q-66 0 -128 -61q-30 27 -41 62q70 56 141.5 56t113.5 -40t42 -96q0 -75 -68 -121q76 -22 105 -82q73 11 119 40v224h-99q-20 26 -20 61h585q20 -23 20 -61z" />
    <glyph glyph-name="uni0907" unicode="&#x907;" horiz-adv-x="478" 
d="M346 391l-101 3q-74 0 -101.5 -16t-27.5 -50.5t13 -49.5t23 -15t79 16t95 16q48 0 77 -42t29 -90q0 -64 -57 -103t-142 -39q-12 0 -19 1q67 -75 91 -122q-7 -10 -25 -24t-33 -20q-54 121 -93 176q-101 24 -101 75q0 24 17 40t37 16q38 0 73 -73q20 -7 50 -7
q59 0 106.5 28t47.5 74t-43 46q-20 0 -79.5 -15.5t-78.5 -15.5q-48 0 -87.5 47.5t-39.5 101.5q0 106 136 106h120v89h-322q-20 24 -20 61h519q20 -25 20 -61h-130v-115q0 -11 -12 -24.5t-21 -13.5z" />
    <glyph glyph-name="uni0908" unicode="&#x908;" horiz-adv-x="478" 
d="M346 391l-101 3q-74 0 -101.5 -16t-27.5 -50.5t13 -49.5t23 -15t79 16t95 16q48 0 77 -42t29 -90q0 -64 -57 -103t-142 -39q-12 0 -19 1q67 -75 91 -122q-7 -10 -25 -24t-33 -20q-54 121 -93 176q-101 24 -101 75q0 24 17 40t37 16q38 0 73 -73q20 -7 50 -7
q59 0 106.5 28t47.5 74t-43 46q-20 0 -79.5 -15.5t-78.5 -15.5q-48 0 -87.5 47.5t-39.5 101.5q0 106 136 106h120v89h-322q-20 24 -20 61h350q-87 71 -87 158q0 61 43 101.5t107 40.5q93 0 124 -87l-19 -14q-15 14 -22.5 20t-26.5 13.5t-42 7.5q-47 0 -72 -28t-25 -72
q0 -72 73 -140h116q20 -25 20 -61h-130v-115q0 -11 -12 -24.5t-21 -13.5z" />
    <glyph glyph-name="uni0909" unicode="&#x909;" horiz-adv-x="518" 
d="M548 544h-148q36 -42 36 -95q0 -76 -80 -132q60 -13 94.5 -57t34.5 -105.5t-40.5 -107.5t-118.5 -46q-188 0 -325 313q19 15 42 21q62 -134 123 -201t141 -67q51 0 81 27t30 76.5t-28.5 76.5t-72.5 27t-73 -13q-23 25 -32 62q37 8 78 29q88 46 88 109q0 48 -42 83h-346
q-20 24 -20 61h558q20 -25 20 -61z" />
    <glyph glyph-name="uni090A" unicode="&#x90a;" horiz-adv-x="748" 
d="M778 544h-383q37 -41 37 -88t-24 -82t-56 -57q49 -12 82 -43q60 72 129 72t116.5 -49.5t47.5 -122.5q0 -99 -97 -169q-34 21 -53 55q44 27 70.5 65.5t26.5 76.5t-25.5 61.5t-61.5 23.5q-58 0 -116 -71q10 -26 10 -57q0 -66 -41 -112t-119 -46q-188 0 -325 313
q21 16 43 21q61 -134 122 -201t141 -67q51 0 81 27t30 76.5t-28.5 76.5t-71.5 27t-74 -13q-21 23 -31 62q35 8 78 29q87 47 87 109q0 49 -41 83h-342q-20 24 -20 61h788q20 -23 20 -61z" />
    <glyph glyph-name="uni090B" unicode="&#x90b;" horiz-adv-x="688" 
d="M388 544v-220q69 0 114 19q-15 21 -15 39.5t22.5 40.5t48.5 22q15 0 27 -20.5t12 -43.5t-30 -47q81 -79 81 -152q0 -44 -26.5 -86.5t-61.5 -66.5q-27 15 -50 51q84 54 84 122q0 45 -61 106q-66 -36 -145 -46v-282q-25 0 -46 10.5t-21 21.5v213l-218 -141q-25 23 -34 56
l244 149q-42 42 -73 60t-73.5 18t-113.5 -45q-25 32 -37 68q20 17 57.5 30.5t79.5 13.5t80.5 -22t87.5 -71v203h-320q-20 24 -20 61h716q20 -25 20 -61h-329z" />
    <glyph glyph-name="uni090C" unicode="&#x90c;" horiz-adv-x="682" 
d="M524 544v-106q45 -11 70 -42.5t25 -76.5q0 -54 -39 -105q-5 -6 -15.5 -18.5t-16 -20t-21.5 -25.5t-24 -28q-21 -24 -21 -46q0 -37 49 -37t96 55q28 -23 42 -50q-47 -60 -121 -60q-51 0 -86 29.5t-35 74.5q0 30 13.5 50t21 29t21.5 25t20 23q60 70 60 116q0 59 -62.5 59
t-99.5 -54.5t-48 -124.5q-15 4 -34.5 16t-23.5 22q4 27 11 47q-15 34 -45.5 59.5t-70.5 25.5t-66 -31.5t-26 -78.5q0 -111 165 -233q-11 -20 -30 -37q-203 152 -203 294q0 72 47 111t104 39q92 0 145 -100q49 89 131 98v101h-470q-20 24 -20 61h725q20 -25 20 -61h-188z" />
    <glyph glyph-name="uni090D" unicode="&#x90d;" horiz-adv-x="537" 
d="M155 544v-242q0 -58 22.5 -87.5t101.5 -75.5q128 -71 149 -95q33 -39 38 -58t5 -48t-16.5 -54.5t-49.5 -57.5q-28 20 -46 56q26 13 42.5 32.5t16.5 34t-11 28t-37 31.5q-56 40 -107 69t-67.5 40.5t-39 33t-34.5 43.5q-32 55 -32 133v217h-100q-20 24 -20 61h577
q20 -25 20 -61h-120v-221q0 -90 -106 -133q-25 21 -35 62q74 27 74 76v216h-225zM381 748.5q-53 -41.5 -120.5 -41.5t-118 45.5t-79.5 112.5q20 15 41 21q35 -61 69 -87t77 -26q96 0 146 117q34 -11 67 -39q-29 -61 -82 -102.5z" />
    <glyph glyph-name="uni090E" unicode="&#x90e;" horiz-adv-x="537" 
d="M155 544v-242q0 -58 22.5 -87.5t101.5 -75.5q128 -71 149 -95q33 -39 38 -58t5 -48t-16.5 -54.5t-49.5 -57.5q-28 20 -46 56q26 13 42.5 32.5t16.5 34t-11 28t-37 31.5q-56 40 -107 69t-67.5 40.5t-39 33t-34.5 43.5q-32 55 -32 133v217h-100q-20 24 -20 61h422
q18 29 18 60q0 27 -48 45.5t-109 27t-129.5 27t-100.5 46.5t-54 111l33 14q30 -64 59.5 -80t165 -43.5t174.5 -47.5q59 -29 59 -83q0 -37 -20 -77h107q20 -25 20 -61h-120v-221q0 -90 -106 -133q-25 21 -35 62q74 27 74 76v216h-225z" />
    <glyph glyph-name="uni090F" unicode="&#x90f;" horiz-adv-x="537" 
d="M155 544v-242q0 -58 22.5 -87.5t101.5 -75.5q128 -71 149 -95q33 -39 38 -58t5 -48t-16.5 -54.5t-49.5 -57.5q-28 20 -46 56q26 13 42.5 32.5t16.5 34t-11 28t-37 31.5q-56 40 -107 69t-67.5 40.5t-39 33t-34.5 43.5q-32 55 -32 133v217h-100q-20 24 -20 61h577
q20 -25 20 -61h-120v-221q0 -90 -106 -133q-25 21 -35 62q74 27 74 76v216h-225z" />
    <glyph glyph-name="uni0910" unicode="&#x910;" horiz-adv-x="566" 
d="M486 -56q0 -23 -10.5 -46.5t-22 -37t-34.5 -34.5q-28 20 -46 56q26 13 42.5 32.5t16.5 34t-11 28t-37 31.5q-56 40 -107 69t-67.5 40.5t-39 33t-34.5 43.5q-32 55 -32 133v217h-100q-20 24 -20 61h411q-34 73 -91.5 144t-110.5 71q-69 0 -141 -28q-17 32 -22 68
q18 8 57 16t82 8t93 -32t88 -82q66 -89 98 -165h113q20 -23 20 -61h-119v-221q0 -90 -107 -133q-25 21 -35 62q74 26 74 76v216h-224l-1 -242q0 -58 23 -87.5t102 -75.5q123 -67 148 -95q33 -37 38.5 -57t5.5 -43z" />
    <glyph glyph-name="uni0911" unicode="&#x911;" horiz-adv-x="964" 
d="M994 544h-144v-564q-25 0 -46 10.5t-21 21.5v532h-177v-564q-25 0 -46 10.5t-21 21.5v233q-44 -14 -95 -14h-12q1 -5 1 -16q0 -64 -40 -102.5t-107 -38.5q-90 0 -160.5 67t-117.5 176q17 19 40 21q49 -100 99 -151t119 -51q49 0 76 25t27 66.5t-27.5 66.5t-68 25
t-66.5 -13q-22 22 -31 58q149 42 149 132q0 32 -19 49t-51 17q-66 0 -128 -61q-30 27 -41 62q70 56 141.5 56t113.5 -40t42 -96q0 -75 -68 -121q76 -22 105 -82q73 11 119 40v224h-99q-20 26 -20 61h554q20 -25 20 -61zM833 737.5q-53 -41.5 -120.5 -41.5t-117.5 45t-79 113
q20 15 41 21q34 -60 68 -86.5t77 -26.5q98 0 146 117q31 -10 68 -39q-30 -61 -83 -102.5z" />
    <glyph glyph-name="uni0912" unicode="&#x912;" horiz-adv-x="964" 
d="M994 544h-144v-564q-25 0 -46 10.5t-21 21.5v532h-177v-564q-25 0 -46 10.5t-21 21.5v233q-44 -14 -95 -14h-12q1 -5 1 -16q0 -64 -40 -102.5t-107 -38.5q-90 0 -160.5 67t-117.5 176q17 19 40 21q49 -100 99 -151t119 -51q49 0 76 25t27 66.5t-27.5 66.5t-68 25
t-66.5 -13q-22 22 -31 58q149 42 149 132q0 32 -19 49t-51 17q-66 0 -128 -61q-30 27 -41 62q70 56 141.5 56t113.5 -40t42 -96q0 -75 -68 -121q76 -22 105 -82q73 11 119 40v224h-99q-20 26 -20 61h373q19 28 19 57.5t-48 48t-109.5 27t-130 27t-100.5 46.5t-54 111l33 14
q23 -42 34.5 -57t33 -27t157.5 -39.5t175 -47.5q59 -30 59 -83q0 -35 -21 -77h133q20 -25 20 -61z" />
    <glyph glyph-name="uni0913" unicode="&#x913;" horiz-adv-x="970" 
d="M1000 544h-143v-564q-25 0 -46.5 10.5t-21.5 21.5v532h-177v-564q-25 0 -46 10.5t-21 21.5v233q-42 -14 -95 -14h-11q1 -5 1 -16q0 -64 -40 -102.5t-108 -38.5q-90 0 -160 66.5t-118 176.5q17 19 41 21q49 -100 99 -151t119 -51q49 0 75.5 25.5t26.5 66.5t-27.5 66
t-67.5 25t-67 -13q-22 22 -31 58q149 42 149 132q0 32 -19 49t-51 17q-66 0 -128 -61q-29 26 -40 62q69 56 140.5 56t113.5 -40t42 -96q0 -78 -68 -121q77 -22 106 -82q72 11 118 40v224h-98q-20 24 -20 61h361q-44 96 -106 159q-24 23 -54.5 39.5t-70.5 16.5t-112 -28
q-17 32 -22 68q18 8 57.5 16t68.5 8q55 0 106 -32t89 -82q63 -86 97 -165h139q20 -25 20 -61z" />
    <glyph glyph-name="uni0914" unicode="&#x914;" horiz-adv-x="964" 
d="M994 544h-144v-564q-25 0 -46 10.5t-21 21.5v532h-177v-564q-25 0 -46 10.5t-21 21.5v233q-44 -14 -95 -14h-12q1 -5 1 -16q0 -64 -40 -102.5t-107 -38.5q-90 0 -160.5 67t-117.5 176q17 19 40 21q49 -100 99 -151t119 -51q49 0 76 25t27 66.5t-27.5 66.5t-68 25
t-66.5 -13q-22 22 -31 58q149 42 149 132q0 32 -19 49t-51 17q-66 0 -128 -61q-30 27 -41 62q70 56 141.5 56t113.5 -40t42 -96q0 -75 -68 -121q76 -22 105 -82q73 11 119 40v224h-99q-20 26 -20 61h356q-29 40 -72.5 71.5t-78.5 31.5t-68 -16t-53 -33q-22 22 -36 64
q54 46 129 46t173 -100q-86 174 -168 174q-51 0 -108 -44q-6 5 -18 26.5t-18 40.5q57 38 128 38q44 0 86.5 -30t73.5 -78q61 -93 88 -191h140q20 -25 20 -61z" />
    <glyph glyph-name="uni0915" unicode="&#x915;" horiz-adv-x="734" 
d="M421 544v-178q58 53 123 53t110.5 -48t45.5 -123q0 -105 -90 -169q-30 21 -51 54q42 28 66 66.5t24 76.5t-25 60.5t-61 22.5q-73 0 -142 -94v-285q-25 0 -46.5 10.5t-21.5 21.5v142q-60 -48 -134.5 -48t-128 53.5t-53.5 125.5t50 116t127 44t139 -50v149h-363
q-20 24 -20 61h773q20 -23 20 -61h-342zM353 339q-56 45 -115 45t-95.5 -32.5t-36.5 -86t28 -81t69 -27.5t81 23t69 63v96z" />
    <glyph glyph-name="uni0916" unicode="&#x916;" horiz-adv-x="752" 
d="M782 544h-143v-564q-25 0 -46.5 10.5t-21.5 21.5v153q-51 -37 -107 -37q-77 0 -130 53t-53 123t50 108t115.5 38t124.5 -39v133h-360q15 -55 15 -131t-29.5 -135.5t-98.5 -64.5q44 -78 124.5 -120t197.5 -68q-3 -28 -26 -60q-81 13 -152.5 50t-116 82.5t-70 90.5
t-25.5 78q0 64 75 64q24 0 56 -9q10 26 10 87t-34 136h-147q-20 24 -20 61h792q20 -25 20 -61zM571 363q-44 29 -99.5 29t-90.5 -27.5t-35 -81t30.5 -78t66 -24.5t70 18.5t58.5 50.5v113z" />
    <glyph glyph-name="uni0917" unicode="&#x917;" horiz-adv-x="543" 
d="M574 544h-144v-564q-25 0 -46 10.5t-21 21.5v532h-183v-256q0 -63 -18 -86q-10 -14 -34 -14t-59 37.5t-35 66.5q0 16 5 24q11 22 74 24v204h-123q-20 24 -20 61h583q21 -25 21 -61z" />
    <glyph glyph-name="uni0918" unicode="&#x918;" horiz-adv-x="590" 
d="M620 544h-144v-564q-25 0 -46 10.5t-21 21.5v141q-64 -44 -139.5 -44t-126 40.5t-50.5 101.5t39 100q-96 38 -96 129q0 38 18 64h-64q-20 24 -20 61h630q20 -25 20 -61zM409 544h-279q-25 -28 -25 -66.5t23.5 -62t53.5 -28.5q35 18 80 30q29 -29 38 -56
q-141 -44 -141 -118q0 -37 28 -58t69 -21t83.5 23t69.5 59v298z" />
    <glyph glyph-name="uni0919" unicode="&#x919;" horiz-adv-x="528" 
d="M436 368q24 21 33.5 21t30.5 -24.5t21 -34t-23.5 -30.5t-33.5 -21t-31 24.5t-21 34t24 30.5zM355 390l-93 3q-79 0 -108.5 -15.5t-29.5 -49.5t12 -50t22.5 -16t79.5 16t97 16q47 0 76 -42.5t29 -90.5q0 -66 -51 -107t-129 -41q-139 0 -244 141q9 19 34 30
q46 -55 90 -82.5t108.5 -27.5t103.5 33.5t39 78t-44 44.5q-19 0 -78 -15.5t-81 -15.5q-47 0 -86 47.5t-39 106.5q0 101 137 101h120v90h-330q-20 24 -20 61h568q20 -25 20 -61h-171v-114q0 -11 -12 -25.5t-20 -14.5z" />
    <glyph glyph-name="uni091A" unicode="&#x91a;" horiz-adv-x="618" 
d="M648 544h-144v-564q-25 0 -46 10.5t-21 21.5v151q-62 -45 -142.5 -45t-129.5 49t-49 113t54 97h-151q-19 26 -22 61h364q17 -28 20 -61h-35q-65 0 -115 -30t-50 -87q0 -42 30.5 -64t72.5 -22t84 22.5t69 61.5v286h-447q-20 24 -20 61h658q20 -25 20 -61z" />
    <glyph glyph-name="uni091B" unicode="&#x91b;" horiz-adv-x="646" 
d="M518 544v-68q46 -18 69.5 -66t23.5 -110q0 -139 -84.5 -226.5t-216.5 -87.5q-93 0 -147 47.5t-54 106.5t44 96q-52 16 -82 55t-30 83.5t34 77t87 32.5t80.5 -28t34.5 -61q-9 -9 -19 -10q-31 40 -71.5 40t-59.5 -19t-19 -50.5t26 -58t58 -33.5q50 25 83 28q25 -28 36 -57
q-49 -5 -90.5 -32t-41.5 -70.5t29.5 -68t87.5 -24.5q114 0 189 81.5t75 190.5q0 56 -21.5 85.5t-53 29.5t-50 -18t-18.5 -55q0 -66 71 -109q-3 -17 -19 -28q-120 54 -120 151q0 50 29 82t77 36v58h-465q-20 24 -20 61h682q20 -25 20 -61h-154z" />
    <glyph glyph-name="uni091C" unicode="&#x91c;" horiz-adv-x="729" 
d="M759 544h-143v-564q-25 0 -46 10.5t-21 21.5v335h-202q61 -72 61 -146q0 -55 -31 -88.5t-83 -33.5t-95.5 28t-76.5 77q-61 94 -99 234q15 13 44 16q81 -287 211 -287q31 0 52 18.5t21 55.5q0 64 -80 153q2 8 12 21.5t14 15.5h252v133h-548q-20 24 -20 61h758
q20 -23 20 -61z" />
    <glyph glyph-name="uni091D" unicode="&#x91d;" horiz-adv-x="700" 
d="M731 544h-144v-564q-25 0 -46 10.5t-21 21.5v212q-51 -19 -100 -23q5 -22 5 -38q0 -64 -56.5 -103t-142.5 -39q-12 0 -19 1q67 -75 91 -122q-7 -10 -25 -24t-33 -20q-54 121 -93 176q-101 24 -101 75q0 24 17.5 40t37.5 16q37 0 72 -73q20 -7 50 -7q59 0 106.5 28
t47.5 74t-43 46q-20 0 -79.5 -15.5t-78.5 -15.5q-48 0 -87.5 47.5t-39.5 101.5q0 106 136 106h120v89h-315q-20 24 -20 61h741q20 -23 20 -61zM340 391l-102 3q-74 0 -101 -16t-27 -50.5t13 -49.5t22.5 -15t78.5 16t95 16q48 0 79 -45q73 14 122 49v245h-148v-115
q0 -11 -12 -24.5t-20 -13.5z" />
    <glyph glyph-name="uni091E" unicode="&#x91e;" horiz-adv-x="711" 
d="M741 544h-143v-564q-25 0 -46 10.5t-21 21.5v238q-30 -8 -59 -8h-8q-9 -59 -51.5 -93t-100.5 -34t-108.5 23t-89.5 59q-75 69 -113 145q10 14 34 25q66 -98 126.5 -144t118.5 -46t88 27t30 74q0 97 -85 97q-56 0 -122 -53q-27 25 -41 63q56 48 131 48t125 -36.5
t59 -103.5q32 5 66 23v228h-541q-20 24 -20 61h751q20 -23 20 -61z" />
    <glyph glyph-name="uni091F" unicode="&#x91f;" horiz-adv-x="503" 
d="M390 544v-137q-1 -12 -10.5 -24t-17.5 -14q-50 5 -56 5q-95 0 -149 -38.5t-54 -110t46 -107.5t111 -36q117 0 185 94q29 -17 49 -49q-33 -44 -89 -74t-128 -30q-102 0 -170.5 60t-68.5 152.5t65 146t171 53.5q26 0 49 -4v113h-333q-20 24 -20 61h542q20 -23 20 -61h-142z
" />
    <glyph glyph-name="uni0920" unicode="&#x920;" horiz-adv-x="552" 
d="M378 544v-118q65 -17 106 -61.5t41 -121.5q0 -102 -72.5 -159.5t-173.5 -57.5t-171 62.5t-70 155t65.5 143t182.5 50.5q17 0 25 -1v108h-321q-20 24 -20 61h592q20 -23 20 -61h-204zM147.5 120.5q43.5 -37.5 121.5 -37.5t138 49.5t60 124.5q0 46 -24.5 74.5t-57 38
t-73 9.5t-74.5 -7.5t-65.5 -24.5t-50 -49t-18.5 -75q0 -65 43.5 -102.5z" />
    <glyph glyph-name="uni0921" unicode="&#x921;" horiz-adv-x="464" 
d="M358 390l-94 3q-81 0 -110.5 -15.5t-29.5 -49.5t12 -50t22.5 -16t80.5 16t97 16q47 0 76 -42t29 -91q0 -66 -50.5 -107t-128.5 -41q-141 0 -246 141q9 19 34 30q46 -55 90 -82.5t108.5 -27.5t104 33.5t39.5 78t-43 44.5q-19 0 -79 -15.5t-82 -15.5q-47 0 -86 47.5
t-39 106.5q0 101 137 101h121v90h-331q-20 24 -20 61h504q20 -23 20 -61h-106v-115q-1 -11 -11 -24t-19 -15z" />
    <glyph glyph-name="uni0922" unicode="&#x922;" horiz-adv-x="539" 
d="M379 387l-67 6q-106 0 -153.5 -42t-47.5 -107.5t45 -107t121 -41.5q15 0 41 2q-41 48 -41 96.5t28.5 80.5t76.5 32t85.5 -28.5t37.5 -86.5t-55 -103.5t-162 -45.5t-174.5 63.5t-67.5 153t62.5 141.5t173.5 52q29 0 56 -3v95h-348q-20 24 -20 61h580q20 -25 20 -61h-165
v-122q-1 -10 -10 -22t-16 -13zM424 143q25 26 25 57t-16 42.5t-41.5 11.5t-43.5 -21.5t-18 -55.5t25 -72q44 12 69 38z" />
    <glyph glyph-name="uni0923" unicode="&#x923;" horiz-adv-x="747" 
d="M777 544h-143v-564q-25 0 -46 10.5t-21 21.5v532h-152v-206q0 -89 -40.5 -139.5t-117.5 -50.5t-128 52.5t-51 152.5v191h-88q-20 24 -20 61h787q20 -23 20 -61zM348 333v211h-202v-182q0 -42 8 -75t33.5 -59.5t66.5 -26.5q94 0 94 132z" />
    <glyph glyph-name="uni0924" unicode="&#x924;" horiz-adv-x="535" 
d="M565 544h-143v-564q-25 0 -46 10.5t-21 21.5v344h-77q-94 0 -134 -23t-40 -79q0 -98 111 -246q-7 -9 -20.5 -18t-19.5 -11q-139 185 -139 301q0 77 60 111t178 34h81v119h-365q-20 24 -20 61h575q20 -23 20 -61z" />
    <glyph glyph-name="uni0925" unicode="&#x925;" horiz-adv-x="604" 
d="M634 544h-143v-564q-25 0 -46 10.5t-21 21.5v146q-61 -36 -134 -36q-93 0 -154.5 59t-76.5 148q200 30 200 154q0 41 -20.5 64.5t-49.5 23.5t-50 -17t-21 -47q0 -47 56 -83q-9 -19 -22 -27q-93 49 -93 123q0 44 33.5 71.5t90 27.5t99.5 -43t43 -107.5t-50.5 -116
t-151.5 -74.5q52 -93 157 -93q86 0 144 60v299h-53q-20 26 -20 61h263q20 -23 20 -61z" />
    <glyph glyph-name="uni0926" unicode="&#x926;" horiz-adv-x="498" 
d="M391 544v-122q0 -10 -11.5 -23.5t-17 -13t-28.5 4t-43 3.5q-194 0 -194 -154q0 -65 47 -102.5t107 -37.5t97 24q-21 25 -21 53.5t27.5 47t48 18.5t31.5 -16.5t11 -53t-27 -71.5q82 -80 104 -123q-8 -11 -26.5 -25t-34.5 -21q-59 114 -76 139q-47 -32 -122 -32
q-96 0 -163.5 64t-67.5 154.5t63.5 142.5t173.5 52q27 0 56 -3v95h-335q-20 24 -20 61h538q20 -25 20 -61h-137z" />
    <glyph glyph-name="uni0927" unicode="&#x927;" horiz-adv-x="629" 
d="M658 544h-143v-564q-25 0 -46 10.5t-21 21.5v140q-64 -43 -140 -43t-124.5 40t-48.5 108q0 50 31 84q-57 21 -86 60.5t-29 89.5t40.5 88.5t103.5 38.5q43 0 70 -21.5t27 -60.5q0 -64 -83 -94q-14 7 -20 26q23 16 33 29t10 35q0 44 -40 44q-30 0 -52 -25.5t-22 -67
t27.5 -70.5t62.5 -38q37 22 93 37q27 -28 37 -56q-138 -40 -138 -113q0 -38 28 -59.5t69 -21.5t82 23t69 59v300h-92q-21 25 -21 61h303q20 -25 20 -61z" />
    <glyph glyph-name="uni0928" unicode="&#x928;" horiz-adv-x="531" 
d="M562 544h-144v-564q-25 0 -46 10.5t-21 21.5v294h-131q-39 0 -57 -1q-6 -69 -26 -92q-10 -13 -23 -13t-26.5 7.5t-38 44t-24.5 63.5q0 44 77.5 48.5t136.5 4.5h112v176h-361q-20 24 -20 61h572q20 -23 20 -61z" />
    <glyph glyph-name="uni0928093C" unicode="&#x929;" horiz-adv-x="532" 
d="M563 544h-145v-564q-25 0 -46 10.5t-21 21.5v294h-131q-39 0 -57 -1q-6 -105 -54 -105q-25 0 -54.5 44t-29.5 71q0 44 77 48.5t137 4.5h112v176h-361q-20 24 -20 61h573q20 -25 20 -61zM134 67q24 21 33.5 21t30.5 -24.5t21 -34t-23.5 -30.5t-34 -21t-31 24t-20.5 34
t24 31z" />
    <glyph glyph-name="uni092A" unicode="&#x92a;" horiz-adv-x="573" 
d="M603 544h-144v-564q-25 0 -46 10.5t-21 21.5v178q-59 -41 -126 -41q-88 0 -133.5 60.5t-45.5 165.5v169h-97q-20 24 -20 61h613q20 -25 20 -61zM392 544h-232v-149q0 -112 19 -154.5t75 -42.5q39 0 76 24.5t62 66.5v255z" />
    <glyph glyph-name="uni092B" unicode="&#x92b;" horiz-adv-x="763" 
d="M447 544v-186q62 58 129 58t113 -47t46 -117t-35 -124.5t-81 -90.5q-26 15 -50 56q113 81 113 172q0 47 -26 69t-61 22q-77 0 -148 -104v-272q-25 0 -46 10.5t-21 21.5v199q-60 -39 -124 -39q-81 0 -125 62.5t-44 168.5v141h-97q-20 24 -20 61h802q20 -25 20 -61h-345z
M159 544v-121q0 -113 18 -157t61 -44t80 23.5t62 63.5v235h-221z" />
    <glyph glyph-name="uni092C" unicode="&#x92c;" horiz-adv-x="550" 
d="M580 544h-143v-564q-25 0 -46 10.5t-21 21.5v140q-64 -51 -144 -51t-132.5 58t-52.5 135.5t54 120t132.5 42.5t142.5 -55v142h-380q-20 24 -20 61h590q20 -23 20 -61zM135 352q-29 -32 -29 -86.5t32 -83.5t78 -29t93 26zM245 397q-41 0 -71 -15l174 -174q14 12 22 23v118
q-58 48 -125 48z" />
    <glyph glyph-name="uni092D" unicode="&#x92d;" horiz-adv-x="693" 
d="M723 544h-144v-564q-25 0 -46 10.5t-21 21.5v222q-94 7 -206 7q-1 -25 -7.5 -50.5t-16.5 -34t-33 -6.5t-56 36t-33 64t19 39.5t60 10.5v126q0 73 -14 109t-55 36q-53 0 -53 -61.5t84 -105.5q-6 -23 -18 -33q-132 60 -132 153q0 45 31.5 70t89.5 25t95.5 -41.5
t37.5 -114.5v-163q72 0 207 -5v249h-103q-20 26 -20 61h314q20 -25 20 -61z" />
    <glyph glyph-name="uni092E" unicode="&#x92e;" horiz-adv-x="577" 
d="M607 544h-144v-564q-25 0 -46 10.5t-21 21.5v224q-100 8 -223 7q0 -54 -19 -80q-8 -14 -32 -14t-59.5 38t-35.5 67q0 16 5 24q12 23 74 23v243h-116q-20 24 -20 61h617q20 -25 20 -61zM396 544h-224v-242q110 0 224 -6v248z" />
    <glyph glyph-name="uni092F" unicode="&#x92f;" horiz-adv-x="570" 
d="M600 544h-143v-564q-25 0 -46 10.5t-21 21.5v144q-53 -34 -121 -34q-100 0 -158.5 59.5t-74.5 151.5q142 30 142 119q0 42 -45 92h-143q-20 24 -20 61h610q20 -23 20 -61zM390 544h-194q49 -47 49 -103t-39.5 -97t-109.5 -57q44 -100 160 -100q81 0 134 53v304z" />
    <glyph glyph-name="uni0930" unicode="&#x930;" horiz-adv-x="324" 
d="M354 544h-135q16 -66 16 -135t-32.5 -119.5t-99.5 -52.5q34 -55 95.5 -119t112.5 -106q-17 -24 -50 -40q-40 35 -103 108q-124 142 -124 213q0 28 19.5 44t51.5 16t60 -10q13 26 13 61q0 67 -32 140h-156q-20 24 -20 61h364q20 -23 20 -61z" />
    <glyph glyph-name="uni0930093C" unicode="&#x931;" horiz-adv-x="322" 
d="M354 544h-135q16 -66 16 -135t-32.5 -119.5t-99.5 -52.5q34 -55 95.5 -119t112.5 -106q-17 -24 -50 -40q-40 35 -103 108q-124 142 -124 213q0 28 19.5 44t51.5 16t60 -10q13 26 13 61q0 67 -32 140h-156q-20 24 -20 61h364q20 -23 20 -61zM50 55q24 21 33.5 21
t30.5 -24.5t21 -34t-23.5 -30.5t-33.5 -21t-31 24.5t-21 34t24 30.5z" />
    <glyph glyph-name="uni0932" unicode="&#x932;" horiz-adv-x="684" 
d="M714 544h-144v-564q-25 0 -46 10.5t-21 21.5v374q-6 2 -18 2q-51 0 -87.5 -53t-46.5 -126q-17 4 -35.5 17t-23.5 22q2 24 11 50q-14 33 -44.5 58t-70.5 25t-66 -31.5t-26 -87.5q0 -99 165 -224q-12 -22 -30 -37q-202 149 -202 294q0 72 47 111t102.5 39t91 -31.5
t54.5 -68.5q54 99 146 99q18 0 33 -6v106h-512q-20 26 -20 61h723q20 -25 20 -61z" />
    <glyph glyph-name="uni0933" unicode="&#x933;" horiz-adv-x="700" 
d="M545 544v-95q62 -11 97 -60t35 -125t-50 -131t-128 -55q-54 0 -96.5 27.5t-67.5 67.5q-60 -94 -139 -94q-66 0 -117.5 52.5t-51.5 136.5t45.5 134t122.5 50q105 0 171 -92q51 76 112 89v95h-488q-20 24 -20 61h741q20 -25 20 -61h-186zM181 135q25 0 37.5 8t19.5 13
t15.5 15.5t14 17.5t14 22t13 22t13.5 25q11 21 39 70q-54 65 -125.5 65t-104 -42t-32.5 -97.5t27.5 -87t68.5 -31.5zM357 210q56 -80 118 -80t101.5 48t39.5 102.5t-22 85t-64 30.5q-59 0 -107 -71q-17 -24 -66 -115z" />
    <glyph glyph-name="uni0933093C" unicode="&#x934;" horiz-adv-x="700" 
d="M545 544v-95q62 -11 97 -60t35 -125t-50 -131t-128 -55q-54 0 -96.5 27.5t-67.5 67.5q-60 -94 -139 -94q-66 0 -117.5 52.5t-51.5 136.5t45.5 134t122.5 50q105 0 171 -92q51 76 112 89v95h-488q-20 24 -20 61h741q20 -25 20 -61h-186zM181 135q25 0 37.5 8t19.5 13
t15.5 15.5t14 17.5t14 22t13 22t13.5 25q11 21 39 70q-54 65 -125.5 65t-104 -42t-32.5 -97.5t27.5 -87t68.5 -31.5zM357 210q56 -80 118 -80t101.5 48t39.5 102.5t-22 85t-64 30.5q-59 0 -107 -71q-17 -24 -66 -115zM174.5 23q24.5 21 33.5 21t30.5 -25t21.5 -34t-24 -30
t-34 -21t-31 24t-21 34t24.5 31z" />
    <glyph glyph-name="uni0935" unicode="&#x935;" horiz-adv-x="550" 
d="M580 544h-144v-564q-25 0 -46 10.5t-21 21.5v140q-64 -50 -144 -50t-132.5 57t-52.5 135t54 120.5t131 42.5t144 -55v142h-379q-20 24 -20 61h590q20 -25 20 -61zM369 347q-59 48 -119.5 48t-101.5 -33t-41 -94t32 -87t70.5 -26t85 24.5t74.5 62.5v105z" />
    <glyph glyph-name="uni0936" unicode="&#x936;" horiz-adv-x="670" 
d="M700 544h-144v-564q-25 0 -46 10.5t-21 21.5v532h-167q44 -47 44 -116t-56.5 -131t-131.5 -89q44 -34 106.5 -101.5t74.5 -96.5q-7 -11 -24 -25t-33 -20q-24 49 -75 120t-91 112q-13 -3 -38.5 -3t-52 19t-26.5 39t21.5 39t40.5 19q34 0 74 -52q54 12 100 65t46 121
q0 40 -20 69.5t-57 29.5t-60 -20t-23 -53q0 -54 77 -105q-1 -8 -7 -16.5t-10 -10.5q-65 27 -96.5 64t-31.5 75.5t19 66.5h-102q-20 24 -20 61h710q20 -25 20 -61z" />
    <glyph glyph-name="uni0937" unicode="&#x937;" horiz-adv-x="577" 
d="M607 544h-143v-564q-25 0 -46 10.5t-21 21.5v176q-61 -43 -136 -43q-178 0 -178 249v150h-93q-20 24 -20 61h617q20 -25 20 -61zM154 392q0 -109 21.5 -153.5t79 -44.5t115.5 53l-216 258v-113zM397 544h-216l216 -259v259z" />
    <glyph glyph-name="uni0938" unicode="&#x938;" horiz-adv-x="625" 
d="M656 544h-144v-564q-25 0 -46 10.5t-21 21.5v249q-47 -13 -99 -13q-92 0 -153 32q-36 -37 -89 -40q36 -57 96.5 -124.5t107.5 -105.5q-20 -25 -48 -38q-30 27 -92 100q-132 154 -132 224q0 29 19 44.5t50.5 15.5t61.5 -10q12 27 12 61q0 64 -34 137h-155q-20 24 -20 61
h666q20 -25 20 -61zM445 544h-226q17 -70 17 -126.5t-18 -98.5q47 -15 113 -15t114 29v211z" />
    <glyph glyph-name="uni0939" unicode="&#x939;" horiz-adv-x="445" 
d="M347 388h-112q-70 0 -93.5 -11.5t-23.5 -36.5q0 -38 39 -73q48 23 100 23q78 0 118.5 -44t40.5 -95q0 -35 -22 -65t-57 -43q-25 23 -37 58q65 27 65 76q0 22 -23 36.5t-75 14.5t-91 -30t-39 -72t22.5 -73.5t63.5 -54.5q64 -37 178 -71q-8 -35 -17 -45q-114 31 -206 86
q-50 31 -80 73.5t-30 91.5q0 65 53 110q-68 60 -68 118q0 90 146 90h109v93h-318q-20 24 -20 61h485q20 -23 20 -61h-100v-120q0 -12 -9 -24t-19 -12z" />
    <glyph glyph-name="uni093C" unicode="&#x93c;" horiz-adv-x="0" 
d="M-224.5 -137.5q-23.5 -20.5 -33.5 -20.5t-31 24t-21 33.5t24 30.5t33.5 21t30.5 -24.5t21 -34t-23.5 -30z" />
    <glyph glyph-name="uni093D" unicode="&#x93d;" horiz-adv-x="534" 
d="M173 510q0 -47 123 -146q98 -78 137 -132q45 -62 45 -119t-45.5 -87.5t-122 -30.5t-155 49t-138.5 146q17 21 47 30q18 -26 26.5 -37.5t33 -37.5t46.5 -39q63 -37 132 -37q101 0 101 68q0 49 -53 103q-31 33 -61.5 58.5t-38.5 32.5q-69 59 -104 104.5t-35 88.5t35 68
t105 25h169q18 -26 20 -62h-169q-51 0 -74.5 -9.5t-23.5 -35.5z" />
    <glyph glyph-name="uni093E" unicode="&#x93e;" horiz-adv-x="294" 
d="M324 544h-144v-564q-25 0 -46 10.5t-21 21.5v532h-123q-20 24 -20 61h334q20 -25 20 -61z" />
    <glyph glyph-name="uni093F" unicode="&#x93f;" horiz-adv-x="294" 
d="M-30 605h134q-51 56 -51 121t67.5 112t171.5 47q72 0 143.5 -25t124.5 -62q105 -73 140 -130q-9 -18 -25 -24q-172 174 -373 174q-77 0 -131 -27.5t-54 -79.5t46 -106h141q20 -25 20 -61h-144v-564q-25 0 -46 10.5t-21 21.5v532h-123q-20 24 -20 61z" />
    <glyph glyph-name="uni0940" unicode="&#x940;" horiz-adv-x="294" 
d="M323 544h-143v-564q-25 0 -46 10.5t-21 21.5v532h-123q-20 24 -20 61h147q-20 65 -67 135q-24 36 -58 58.5t-71 22.5q-74 0 -74 -83q0 -38 23 -84q-19 -14 -32 -15q-16 12 -33.5 49t-17.5 84.5t31.5 79t85 31.5t102.5 -33t81 -82q58 -91 81 -163h135q20 -23 20 -61z" />
    <glyph glyph-name="uni0941" unicode="&#x941;" horiz-adv-x="0" 
d="M-159 -10q75 0 117.5 -41.5t42.5 -97.5t-39 -92t-107 -36q-90 0 -176 68.5t-140 157.5q15 22 38 29q124 -189 263 -189q49 0 77.5 21t28.5 52t-18.5 50t-63 19t-87.5 -28q-25 29 -34 59q44 28 98 28z" />
    <glyph glyph-name="uni0942" unicode="&#x942;" horiz-adv-x="0" 
d="M-159 -277q-75 0 -117.5 41.5t-42.5 97.5t39 92t107 36q90 0 176 -68.5t140 -157.5q-13 -20 -38 -29q-124 189 -263 189q-49 0 -77.5 -21t-28.5 -51.5t18.5 -50t62 -19.5t88.5 28q25 -29 34 -59q-44 -28 -98 -28z" />
    <glyph glyph-name="uni0943" unicode="&#x943;" horiz-adv-x="0" 
d="M-220 -113q0 -24 17 -37.5t40 -13.5t51 12t48 36q29 -22 44 -44q-21 -26 -56 -41t-80 -15t-79.5 31.5t-34.5 84t36.5 88.5t88.5 51q8 -7 18.5 -28t13.5 -31q-107 -24 -107 -93z" />
    <glyph glyph-name="uni0945" unicode="&#x945;" horiz-adv-x="0" 
d="M-50 710q-53 -41 -119.5 -41t-115.5 43.5t-75 108.5q20 15 41 21q57 -112 142 -112q96 0 145 119q34 -11 64 -36q-29 -62 -82 -103z" />
    <glyph glyph-name="uni0946" unicode="&#x946;" horiz-adv-x="0" 
d="M40 682q0 -23 -9.5 -51.5t-19.5 -43.5l-45 6q9 12 16.5 34t7.5 35q0 30 -48 49t-109 27t-129.5 26.5t-101 46.5t-54.5 111q16 9 33 14q25 -62 58.5 -79.5t167.5 -44.5t174 -47q59 -30 59 -83z" />
    <glyph glyph-name="uni0947" unicode="&#x947;" horiz-adv-x="0" 
d="M-320 792q-40 28 -86.5 28t-116.5 -28q-18 29 -23 68q19 8 58.5 16t76.5 8t81 -24t75 -56t60 -76q43 -64 69 -128l-45 -14q-23 54 -79 134q-30 44 -70 72z" />
    <glyph glyph-name="uni0948" unicode="&#x948;" horiz-adv-x="0" 
d="M-373 904q46 0 89.5 -32t74.5 -82q65 -103 87 -196l-51 -4q-25 41 -73.5 79.5t-93.5 38.5q-29 0 -62 -16t-53 -33q-21 21 -37 64q56 46 129.5 46t173.5 -100q-86 174 -168 174q-51 0 -108 -44q-6 5 -18 26.5t-18 40.5q57 38 128 38z" />
    <glyph glyph-name="uni0949" unicode="&#x949;" horiz-adv-x="294" 
d="M-30 605h334q20 -25 20 -61h-144v-564q-25 0 -46 10.5t-21 21.5v532h-123q-20 24 -20 61zM244 710q-53 -41 -119 -41t-113.5 43.5t-73.5 109.5q18 14 37 20q56 -112 142 -112q97 0 146 119q33 -11 63 -36q-29 -62 -82 -103z" />
    <glyph glyph-name="uni094A" unicode="&#x94a;" horiz-adv-x="294" 
d="M324 544h-144v-564q-25 0 -46 10.5t-21 21.5v532h-123q-20 24 -20 61h150q18 32 18 60.5t-48 47.5t-109 27.5t-129.5 27t-101 46.5t-54.5 111q12 9 33 14q25 -63 64 -82q29 -15 162.5 -42.5t173.5 -47.5q59 -29 59 -83q0 -37 -21 -79h137q20 -25 20 -61z" />
    <glyph glyph-name="uni094B" unicode="&#x94b;" horiz-adv-x="294" 
d="M324 544h-144v-564q-25 0 -46 10.5t-21 21.5v532h-123q-20 24 -20 61h140q-34 68 -82 131q-29 38 -65.5 61t-81 23t-114.5 -28q-17 32 -22 68q18 8 57.5 16t68.5 8q55 0 106 -32t89 -82q63 -86 97 -165h141q20 -25 20 -61z" />
    <glyph glyph-name="uni094C" unicode="&#x94c;" horiz-adv-x="294" 
d="M324 544h-144v-564q-25 0 -46 10.5t-21 21.5v532h-123q-20 24 -20 61h135q-29 40 -72.5 71.5t-78.5 31.5t-68 -16t-53 -33q-21 21 -37 64q56 46 129.5 46t173.5 -100q-86 174 -168 174q-51 0 -108 -44q-6 5 -18 26.5t-18 40.5q57 38 128 38q44 0 86.5 -30t73.5 -78
q61 -93 88 -191h141q20 -25 20 -61z" />
    <glyph glyph-name="uni094D" unicode="&#x94d;" horiz-adv-x="0" 
d="M-267 -73q30 4 65 4q121 0 248 -163q-12 -15 -29 -25q-29 36 -70 71t-72.5 44t-66.5 9t-65 -5q-12 27 -10 65z" />
    <glyph glyph-name="uni0950" unicode="&#x950;" horiz-adv-x="1136" 
d="M665 756q22 19 30.5 19t27 -22t18.5 -29.5t-21 -27t-30 -19.5t-28 21t-19 30t22 28zM709 544q-109 0 -206 111q6 18 27 30q49 -43 79.5 -58.5t69.5 -15.5q105 0 171 104q37 -21 55 -57q-25 -40 -79 -77t-117 -37zM929 453q-54 0 -98 -69q-19 -31 -49 -89q21 -56 54 -94
t74 -38t71.5 41.5t30.5 108.5t-24.5 103.5t-58.5 36.5zM284 525q72 57 145 57t112 -41t39 -100q0 -75 -67 -115q57 -17 89 -59q33 -36 50 -36q25 0 50 42q7 13 28 55t36.5 67t38.5 57q46 62 107 62t108 -62.5t47 -154t-43.5 -147t-103.5 -55.5q-95 0 -162 152
q-40 -76 -87 -76q-23 0 -39 16q0 -76 -40 -116t-109 -40q-92 0 -176 74t-131 181q15 15 37 20q47 -97 112.5 -155.5t137.5 -58.5q51 0 78 27.5t27 70.5t-23.5 70t-63 27t-72.5 -18q-27 22 -36 59q151 47 151 136q0 61 -61 61q-76 0 -139 -62q-28 27 -40 62z" />
    <glyph glyph-name="uni0951" unicode="&#x951;" horiz-adv-x="0" 
d="M-161 945h66v-239h-66v239z" />
    <glyph glyph-name="uni0952" unicode="&#x952;" horiz-adv-x="0" 
d="M-81 -214h-480v63h480v-63z" />
    <glyph glyph-name="uni0953" unicode="&#x953;" horiz-adv-x="322" 
d="M54 891l51 40l158 -192l-51 -41z" />
    <glyph glyph-name="uni0954" unicode="&#x954;" horiz-adv-x="320" 
d="M214 931l51 -40l-159 -193l-51 41z" />
    <glyph glyph-name="uni0915093C" unicode="&#x958;" horiz-adv-x="729" 
d="M414 544v-179q59 54 124 54t110.5 -48t45.5 -123q0 -104 -90 -169q-33 23 -51 54q42 28 66 66.5t24 76.5t-25.5 60.5t-60.5 22.5q-73 0 -143 -95v-284q-25 0 -46 10.5t-21 21.5v142q-60 -48 -135 -48t-128.5 53.5t-53.5 125.5t50.5 116t127.5 44t139 -50v149h-363
q-20 24 -20 61h773q20 -23 20 -61h-343zM347 339q-56 45 -115 45t-95.5 -32.5t-36.5 -86t28 -81t69 -27.5t80.5 23t69.5 63v96zM79.5 57q24.5 21 33.5 21t30.5 -25t21.5 -34t-24 -30t-34 -21t-31 24t-21 34t24.5 31z" />
    <glyph glyph-name="uni0916093C" unicode="&#x959;" horiz-adv-x="751" 
d="M779 544h-143v-564q-25 0 -46 10.5t-21 21.5v154q-50 -38 -108 -38q-77 0 -130 53t-53 123t50 108t117 38t124 -40v134h-361q15 -55 15 -116t-10.5 -103.5t-40.5 -75.5t-78 -36q43 -77 123.5 -119t199.5 -69q-3 -26 -25 -60q-81 13 -152.5 50t-116.5 82.5t-70.5 90.5
t-25.5 78q0 64 75 64q25 0 57 -9q9 28 9 74q0 74 -34 149h-147q-20 24 -20 61h792q20 -25 20 -61zM569 362q-46 30 -101 30t-90 -27.5t-35 -81t30.5 -78t66 -24.5t70.5 18.5t59 50.5v112zM4 72.5q24 20.5 33.5 20.5t31 -24.5t21.5 -33.5t-24 -30t-34 -21t-31 24t-21 34
t24 30.5z" />
    <glyph glyph-name="uni0917093C" unicode="&#x95a;" horiz-adv-x="546" 
d="M575 544h-144v-564q-25 0 -46 10.5t-21 21.5v532h-183v-256q0 -63 -18 -86q-10 -14 -34 -14t-59 37.5t-35 66.5q0 16 5 24q11 22 74 24v204h-123q-20 24 -20 61h584q20 -25 20 -61zM96 66q24 21 33.5 21t30.5 -25t21 -34t-23.5 -30t-34 -21t-31 24t-20.5 34t24 31z" />
    <glyph glyph-name="uni091C093C" unicode="&#x95b;" horiz-adv-x="702" 
d="M740 544h-144v-564q-25 0 -46 10.5t-21 21.5v335h-201q61 -75 61 -146q0 -55 -31.5 -88.5t-83.5 -33.5t-95.5 28t-76.5 77q-61 94 -99 234q15 13 44 16q81 -287 211 -287q31 0 52.5 18.5t21.5 55.5q0 63 -81 153q2 8 12 21.5t14 15.5h252v133h-548q-20 26 -20 61h758
q21 -25 21 -61zM252 17.5q24 20.5 33.5 20.5t31 -24.5t21.5 -33.5t-24 -30t-34 -21t-31 24t-21 34t24 30.5z" />
    <glyph glyph-name="uni0921093C" unicode="&#x95c;" horiz-adv-x="458" 
d="M357 390l-94 3q-81 0 -110.5 -15.5t-29.5 -49.5t12 -50t22.5 -16t80.5 16t97 16q47 0 76 -42t29 -91q0 -66 -50.5 -107t-128.5 -41q-141 0 -246 141q9 19 34 30q46 -55 90 -82.5t108.5 -27.5t104 33.5t39.5 78t-44 44.5q-18 0 -78 -15.5t-82 -15.5q-47 0 -86 47.5
t-39 106.5q0 101 137 101h121v90h-331q-20 24 -20 61h504q20 -23 20 -61h-106v-115q-1 -11 -11 -24t-19 -15zM218 -54q24 21 33.5 21t30.5 -24.5t21 -34t-23.5 -30.5t-34 -21t-31 24t-20.5 34t24 31z" />
    <glyph glyph-name="uni0922093C" unicode="&#x95d;" horiz-adv-x="525" 
d="M381 387l-66 6q-107 0 -154.5 -41.5t-47.5 -107.5t45 -107.5t121 -41.5q15 0 41 2q-41 50 -41 97.5t28.5 79.5t76.5 32t85.5 -28.5t37.5 -86.5t-54.5 -103.5t-162 -45.5t-175 63.5t-67.5 153t62.5 141.5t174.5 52q29 0 56 -3v95h-349q-20 26 -20 61h580q20 -23 20 -61
h-164v-122q-1 -10 -10.5 -22t-16.5 -13zM452 206q0 48 -58 48q-25 0 -43 -21.5t-18 -55.5t25 -72q92 26 94 101zM272.5 -53q24.5 21 33.5 21t30.5 -25t21.5 -34t-23.5 -30t-34 -21t-31.5 24t-21 34t24.5 31z" />
    <glyph glyph-name="uni092B093C" unicode="&#x95e;" horiz-adv-x="769" 
d="M441 544v-186q62 58 129 58t113 -47t46 -117t-35 -125t-81 -90q-25 15 -49 56q112 80 112 172q0 47 -25.5 69t-60.5 22q-74 0 -149 -104v-272q-25 0 -46 10.5t-21 21.5v199q-60 -39 -124 -39q-81 0 -125 62.5t-44 168.5v141h-97q-20 26 -20 61h802q20 -23 20 -61h-345z
M154 544v-121q0 -113 17.5 -157t61 -44t80 23.5t61.5 62.5v236h-220zM125 107q24 21 33.5 21t31 -25t21.5 -34t-24 -30t-34.5 -21t-31 24t-20.5 34t24 31z" />
    <glyph glyph-name="uni092F093C" unicode="&#x95f;" horiz-adv-x="563" 
d="M608 544h-143v-564q-25 0 -46 10.5t-21 21.5v144q-53 -34 -121 -34q-100 0 -158.5 59.5t-74.5 151.5q142 30 142 119q0 42 -45 92h-143q-20 24 -20 61h610q20 -23 20 -61zM398 544h-194q49 -49 49 -103.5t-39 -95.5t-110 -58q20 -46 60.5 -73t99.5 -27q81 0 134 53v304z
M93 63q24 21 33.5 21t31 -25t21.5 -34t-24 -30t-34.5 -21t-31 24t-20.5 34t24 31z" />
    <glyph glyph-name="uni0960" unicode="&#x960;" horiz-adv-x="737" 
d="M552 123q0 -24 17 -38.5t39.5 -14.5t50 12t47.5 37q30 -25 42 -47q-20 -24 -55 -38t-79 -14t-78 32t-34 81q0 67 66 110q-48 30 -59 57q-42 -24 -130 -38v-282q-25 0 -46 11t-21 21v213l-217 -141q-25 22 -35 56l244 149q-42 42 -73 60t-74 18t-112 -45q-27 32 -37 68
q20 17 57 30.5t79.5 13.5t80 -22t87.5 -71v203h-323q-20 24 -20 61h776q20 -25 20 -61h-386v-220q68 0 115 19q-16 18 -16 39t23 42t44 21t32 -20.5t11 -43t-33 -49.5q2 -14 17 -35t32 -34l24 10q10 -10 19.5 -30.5t9.5 -28.5q-105 -24 -105 -91z" />
    <glyph glyph-name="uni0961" unicode="&#x961;" horiz-adv-x="708" 
d="M528 544v-106q44 -12 68 -43t24 -74q0 -30 -7 -47.5t-11 -26.5t-12.5 -20.5t-12 -16.5t-13 -16t-15.5 -19t-22 -26t-23 -27q-21 -26 -21 -46q0 -37 49.5 -37t95.5 55q31 -25 42 -49q-29 -39 -98 -59q-25 -9 -42 -29t-17 -42t16.5 -35t41.5 -13q47 0 95 60q32 -24 43 -43
q-21 -31 -56.5 -49t-79.5 -18t-76.5 31t-32.5 74t31 74q-31 12 -49 36.5t-18 48t4 37t13.5 27.5t17 23t21.5 25t20 23q61 69 61 115q0 59 -63 59t-100 -54.5t-48 -124.5q-15 4 -34 16.5t-24 21.5q4 27 11 47q-15 34 -45.5 59.5t-70.5 25.5t-66 -31.5t-26 -87.5
q0 -99 165 -224q-12 -22 -30 -37q-202 151 -202 294q0 72 47 111t103 39q93 0 145 -100q49 90 134 98v101h-471q-20 26 -20 61h747q20 -23 20 -61h-209z" />
    <glyph glyph-name="uni0964" unicode="&#x964;" horiz-adv-x="383" 
d="M155 17v584q30 0 49.5 -12t19.5 -29v-579q-25 -2 -47 10.5t-22 25.5z" />
    <glyph glyph-name="uni0965" unicode="&#x965;" horiz-adv-x="591" 
d="M366 17v584q30 0 49.5 -12t19.5 -29v-579q-25 -2 -47 10.5t-22 25.5zM155 17v584q30 0 49.5 -12t19.5 -29v-579q-25 -2 -47 10.5t-22 25.5z" />
    <glyph glyph-name="uni0966" unicode="&#x966;" horiz-adv-x="493" 
d="M330.5 405.5q-38.5 37.5 -91 37.5t-89 -43t-36.5 -112t36 -111.5t95.5 -42.5t91.5 43.5t32 117t-38.5 111zM100 451q48 55 130.5 55t141 -67t58.5 -164.5t-47 -150.5t-129 -53t-142 67t-60 162.5t48 150.5z" />
    <glyph glyph-name="uni0967" unicode="&#x967;" horiz-adv-x="473" 
d="M326 468q0 41 -23.5 66t-64.5 25t-62.5 -21t-21.5 -51q0 -66 88 -112q-8 -22 -22 -33q-135 62 -135 159q0 49 37 83.5t101.5 34.5t116 -44t51.5 -127t-69 -155.5t-148 -99.5q107 -78 153.5 -130.5t46.5 -105.5q0 -27 -10 -56t-23 -42q-9 -1 -34.5 9t-29.5 17q28 38 28 77
q0 77 -204 228l2 35q86 21 154.5 95t68.5 148z" />
    <glyph glyph-name="uni0968" unicode="&#x968;" horiz-adv-x="516" 
d="M85 564q71 55 149 55t127.5 -49.5t49.5 -133t-56.5 -146t-130.5 -91.5q45 -46 112.5 -126t80.5 -106q-7 -10 -26.5 -24t-36.5 -21q-23 44 -79 127.5t-100 136.5q-12 -3 -25 -3q-37 0 -66.5 20.5t-29.5 40t23 39.5t42 20q32 0 72 -49q60 22 109 80t49 125q0 47 -25.5 72.5
t-65.5 25.5q-59 0 -136 -52q-22 21 -37 59z" />
    <glyph glyph-name="uni0969" unicode="&#x969;" horiz-adv-x="529" 
d="M253 619q72 0 112 -45t40 -100q0 -71 -69 -120q62 -11 94 -50t32 -89q0 -70 -56.5 -117.5t-148.5 -54.5q66 -62 90 -106q-7 -10 -25.5 -23.5t-36.5 -20.5q-50 105 -83 151q-50 7 -78.5 32.5t-28.5 45.5t21 38t42 18q39 0 75 -82q75 4 118.5 39.5t43.5 82.5q0 88 -100 88
q-41 0 -80 -18q-22 25 -32 66q77 15 120 51t43 85q0 32 -18.5 51t-49.5 19q-63 0 -141 -59q-32 43 -41 64q27 23 71 38.5t86 15.5z" />
    <glyph glyph-name="uni096A" unicode="&#x96a;" horiz-adv-x="650" 
d="M464 155q0 -57 -35.5 -91t-94 -34t-99.5 38t-41 93q0 80 94 185q-98 102 -140.5 152t-92.5 121q5 8 25 22t31 17q159 -199 218 -266q151 162 169 219q37 -11 58 -38q-4 -28 -21 -52t-27 -37t-30 -34.5t-31 -33.5q-33 -34 -73 -74q90 -106 90 -187zM321 96q38 0 65 17
t27 50q0 50 -81 136q-83 -89 -83 -144q0 -59 72 -59z" />
    <glyph glyph-name="uni096B" unicode="&#x96b;" horiz-adv-x="549" 
d="M259 156q-87 0 -133 62t-46 149q0 129 111 253q33 -17 53 -42q-105 -126 -105 -234q0 -55 29 -88.5t79 -33.5t86 25q-20 26 -20 50.5t24.5 42.5t42.5 18t30 -14t12 -48t-22 -67q35 -34 84.5 -100t64.5 -97q-21 -27 -62 -44q-60 126 -115 209q-49 -41 -113 -41z" />
    <glyph glyph-name="uni096C" unicode="&#x96c;" horiz-adv-x="555" 
d="M125 576.5q42 42.5 96.5 42.5t82.5 -28t36 -61q-16 -13 -28 -17q-31 41 -71 41t-63 -25t-23 -64t23.5 -69.5t54.5 -43.5q48 28 119 48q21 -26 32 -62q-200 -45 -200 -148q0 -41 30.5 -64t80 -23t76.5 15q-19 24 -19 46t24 42t46 20t33 -19.5t11 -48t-30 -63.5
q69 -67 100 -122q-9 -11 -27.5 -26t-31.5 -20q-1 2 -27.5 57t-45.5 84q-46 -29 -109 -29t-117.5 44t-54.5 115t68 126q-52 17 -80 61.5t-28 96.5t42 94.5z" />
    <glyph glyph-name="uni096D" unicode="&#x96d;" horiz-adv-x="586" 
d="M181 593q-16 -67 -16 -142t9.5 -133t29.5 -109.5t55.5 -82.5t83.5 -31q67 0 100 52t33 133t-30.5 152t-78.5 71t-48 -73q0 -41 25 -73t89 -61q-5 -25 -14 -37q-171 58 -171 182q0 50 25.5 87t74.5 37q74 0 132 -84.5t58 -205t-53 -183t-136 -62.5q-67 0 -118 42t-79 112
q-56 138 -56 322q0 59 6 113q48 -3 79 -26z" />
    <glyph glyph-name="uni096E" unicode="&#x96e;" horiz-adv-x="452" 
d="M252 24q-85 0 -136 56t-51 143q0 101 67 219q49 89 112 178q37 -19 55 -45q-72 -96 -124.5 -201.5t-52.5 -164t34.5 -92t79.5 -33.5q83 0 138 71q28 -20 46 -53q-24 -33 -69 -55.5t-99 -22.5z" />
    <glyph glyph-name="uni096F" unicode="&#x96f;" horiz-adv-x="499" 
d="M396 13q0 -36 -30.5 -73t-74.5 -60q-27 25 -40 67q34 11 61 28t27 35q0 16 -15 35.5t-19 24.5q-20 25 -23.5 29t-12.5 14.5t-14 16t-28.5 33.5t-32.5 38.5t-29 35.5t-28.5 38t-23.5 35t-21.5 37.5t-14.5 35.5q-14 35 -14 75q0 74 48.5 117.5t115 43.5t117.5 -51
t51 -115.5t-50.5 -113.5t-129.5 -64q29 -37 89 -99q92 -103 92 -163zM306.5 532q-30.5 27 -73 27t-72.5 -26t-30 -79.5t48 -128.5q79 13 118.5 53t39.5 83.5t-30.5 70.5z" />
    <glyph glyph-name="uni0970" unicode="&#x970;" horiz-adv-x="387" 
d="M238.5 423.5q-21.5 24.5 -55 24.5t-53 -23.5t-19.5 -62.5t18 -66.5t54.5 -27.5t56.5 24t20 65.5t-21.5 66zM87.5 464q29.5 36 85.5 36t96.5 -46t40.5 -108t-32 -94.5t-83.5 -32.5t-94 42.5t-42.5 104.5t29.5 98z" />
    <glyph glyph-name="uni097D" unicode="&#x97d;" horiz-adv-x="517" 
d="M267 252v-251q-23 0 -41.5 9.5t-21.5 18.5v247q0 23 25 52.5t55 54t55 56t25 57.5t-23.5 42.5t-60.5 16.5q-75 0 -138 -62q-28 25 -40 62q73 58 150 58t120.5 -36t43.5 -84t-23.5 -83t-50.5 -56q-75 -57 -75 -102z" />
    <glyph glyph-name="Wgrave" unicode="&#x1e80;" horiz-adv-x="945" 
d="M784 677h157q-1 -3 0 -8t-0.5 -11.5t-4.5 -11.5q-6 -13 -26 -15l-18 -2l-204 -629h-60l-155 487l-169 -487h-57l-188 627l-54 6q-4 44 27 44h182v-8q0 -27 -14 -33q-7 -4 -17 -5l-43 -2l145 -525l171 512h59l152 -515l163 526l-74 6q-4 44 28 44zM420 878l165 -127
q-11 -20 -29 -29l-199 107q9 17 27 32t36 17z" />
    <glyph glyph-name="wgrave" unicode="&#x1e81;" horiz-adv-x="704" 
d="M571 489h129q4 -40 -29 -42l-6 -1l-166 -446h-42l-108 310l-116 -310h-41l-148 442l-40 6q-3 41 26 41h160v-7q0 -8 -1.5 -11.5t-4.5 -9.5q-4 -12 -26 -14l-37 -3l103 -348l123 351h34l108 -343l112 338l-57 6q-4 41 27 41zM300 690l165 -127q-11 -20 -29 -29l-199 107
q9 17 27 32t36 17z" />
    <glyph glyph-name="Wacute" unicode="&#x1e82;" horiz-adv-x="945" 
d="M784 677h157q-1 -3 0 -8t-0.5 -11.5t-4.5 -11.5q-6 -13 -26 -15l-18 -2l-204 -629h-60l-155 487l-169 -487h-57l-188 627l-54 6q-4 44 27 44h182v-8q0 -27 -14 -33q-7 -4 -17 -5l-43 -2l145 -525l171 512h59l152 -515l163 526l-74 6q-4 44 28 44zM637 837l-199 -107
q-18 9 -29 29l165 127q18 -2 36 -17t27 -32z" />
    <glyph glyph-name="wacute" unicode="&#x1e83;" horiz-adv-x="704" 
d="M571 489h129q4 -40 -29 -42l-6 -1l-166 -446h-42l-108 310l-116 -310h-41l-148 442l-40 6q-3 41 26 41h160v-7q0 -8 -1.5 -11.5t-4.5 -9.5q-4 -12 -26 -14l-37 -3l103 -348l123 351h34l108 -343l112 338l-57 6q-4 41 27 41zM517 641l-199 -107q-18 9 -29 29l165 127
q18 -2 36 -17t27 -32z" />
    <glyph glyph-name="Wdieresis" unicode="&#x1e84;" horiz-adv-x="945" 
d="M784 677h157q-1 -3 0 -8t-0.5 -11.5t-4.5 -11.5q-6 -13 -26 -15l-18 -2l-204 -629h-60l-155 487l-169 -487h-57l-188 627l-54 6q-4 44 27 44h182v-8q0 -27 -14 -33q-7 -4 -17 -5l-43 -2l145 -525l171 512h59l152 -515l163 526l-74 6q-4 44 28 44zM406 751q-22 0 -37 15
t-15 36.5t15 37t36.5 15.5t36.5 -15.5t15 -37t-14.5 -36.5t-36.5 -15zM607 766q-15 -15 -36.5 -15t-36.5 15t-15 36.5t15 37t36.5 15.5t36.5 -15.5t15 -37t-15 -36.5z" />
    <glyph glyph-name="wdieresis" unicode="&#x1e85;" horiz-adv-x="704" 
d="M571 489h129q4 -40 -29 -42l-6 -1l-166 -446h-42l-108 310l-116 -310h-41l-148 442l-40 6q-3 41 26 41h160v-7q0 -8 -1.5 -11.5t-4.5 -9.5q-4 -12 -26 -14l-37 -3l103 -348l123 351h34l108 -343l112 338l-57 6q-4 41 27 41zM286 563q-22 0 -37 15t-15 36.5t15 37
t36.5 15.5t36.5 -15.5t15 -37t-14.5 -36.5t-36.5 -15zM487 578q-15 -15 -36.5 -15t-36.5 15t-15 36.5t15 37t36.5 15.5t36.5 -15.5t15 -37t-15 -36.5z" />
    <glyph glyph-name="Ygrave" unicode="&#x1ef2;" horiz-adv-x="592" 
d="M431 679h156v-8q0 -35 -31 -38l-21 -3l-199 -354v-226l73 -6q4 -44 -27 -44h-197v8q0 26 15 34q7 3 17 4l45 2v226l-200 354h-1l-56 6q-5 45 28 45h187v-8q0 -27 -14 -33q-7 -4 -17 -5l-45 -3l168 -301l162 299l-71 6q-5 45 28 45zM238 878l165 -127q-11 -20 -29 -29
l-199 107q9 17 27 32t36 17z" />
    <glyph glyph-name="ygrave" unicode="&#x1ef3;" horiz-adv-x="495" 
d="M360 489h132q-1 -3 0 -7.5t-0.5 -10t-3.5 -10.5q-6 -12 -38 -15l-171 -421h1q-27 -72 -54.5 -124t-43.5 -71q-39 -49 -77 -49t-56 15.5t-18 37t11.5 35t26 13.5t19.5 -2q-9 -40 23 -40q26 0 59 59t59 125l-174 418h-1l-49 6q-4 41 28 41h168v-7q0 -24 -14 -30
q-8 -4 -55 -8l130 -335l128 333l-58 6q-4 41 28 41zM186 690l165 -127q-11 -20 -29 -29l-199 107q9 17 27 32t36 17z" />
    <glyph glyph-name="uni200B" unicode="&#x200b;" horiz-adv-x="0" 
 />
    <glyph glyph-name="uni200C" unicode="&#x200c;" horiz-adv-x="0" 
d="M24 -230h-47v1041h47v-1041z" />
    <glyph glyph-name="uni200D" unicode="&#x200d;" horiz-adv-x="0" 
d="M24 -230h-47v865l-69 -73l-33 33l93 93l-95 95l33 33l95 -95l96 95l32 -32l-96 -96l96 -95l-33 -33l-72 75v-865z" />
    <glyph glyph-name="endash" unicode="&#x2013;" horiz-adv-x="493" 
d="M48 279h397v-56h-397v56z" />
    <glyph glyph-name="emdash" unicode="&#x2014;" horiz-adv-x="806" 
d="M48 279h710v-56h-710v56z" />
    <glyph glyph-name="quoteleft" unicode="&#x2018;" horiz-adv-x="186" 
d="M132 588q12 -15 12 -36.5t-13.5 -35.5t-37 -14t-37.5 14.5t-14 45t25.5 69t54.5 51.5q4 2 12 -5t8 -12q-29 -20 -41 -60q19 -2 31 -17z" />
    <glyph glyph-name="quoteright" unicode="&#x2019;" horiz-adv-x="186" 
d="M93 682q23 0 37 -14.5t14 -45t-25.5 -69.5t-54.5 -51q-4 -2 -11.5 4.5t-7.5 11.5q29 19 41 61q-20 2 -32 16.5t-12 36.5t14 36t37 14z" />
    <glyph glyph-name="quotesinglbase" unicode="&#x201a;" horiz-adv-x="190" 
d="M56.5 75.5q14.5 14.5 38 14.5t38.5 -15t15 -49t-26.5 -75.5t-56.5 -54.5q-5 -2 -12.5 5.5t-7.5 11.5q31 22 42 71q-20 2 -32.5 17.5t-12.5 37.5t14.5 36.5z" />
    <glyph glyph-name="quotedblleft" unicode="&#x201c;" horiz-adv-x="303" 
d="M249 588q12 -15 12 -36.5t-14 -35.5t-37.5 -14t-37.5 14.5t-14 45t26 69t54 51.5q4 2 12 -5t8 -12q-29 -20 -41 -60q20 -2 32 -17zM132 588q12 -15 12 -36.5t-13.5 -35.5t-37 -14t-37.5 14.5t-14 45t25.5 69t54.5 51.5q4 2 12 -5t8 -12q-29 -20 -41 -60q19 -2 31 -17z
" />
    <glyph glyph-name="quotedblright" unicode="&#x201d;" horiz-adv-x="303" 
d="M209 682q23 0 37.5 -14.5t14.5 -45t-26 -69.5t-55 -51q-4 -2 -11.5 4.5t-7.5 11.5q29 19 41 61q-20 2 -32 16.5t-12 36.5t14 36t37 14zM93 682q23 0 37 -14.5t14 -45t-25.5 -69.5t-54.5 -51q-4 -2 -11.5 4.5t-7.5 11.5q29 19 41 61q-20 2 -32 16.5t-12 36.5t14 36t37 14z
" />
    <glyph glyph-name="quotedblbase" unicode="&#x201e;" horiz-adv-x="303" 
d="M209 87q23 0 37.5 -14.5t14.5 -45t-26 -69.5t-55 -51q-4 -3 -11.5 4t-7.5 12q29 19 41 61q-20 2 -32 16.5t-12 36.5t14 36t37 14zM93 87q23 0 37 -14.5t14 -45t-25.5 -69.5t-54.5 -51q-4 -3 -11.5 4t-7.5 12q29 19 41 61q-20 2 -32 16.5t-12 36.5t14 36t37 14z" />
    <glyph glyph-name="dagger" unicode="&#x2020;" horiz-adv-x="500" 
d="M284 516l142 11q9 -13 12.5 -34.5t-1.5 -34.5l-153 11l-7 -620q-26 -7 -53 0l-7 619l-143 -10q-9 13 -12.5 34.5t1.5 34.5l153 -11l-2 164q38 13 72 6z" />
    <glyph glyph-name="daggerdbl" unicode="&#x2021;" horiz-adv-x="500" 
d="M282 320l144 10q9 -12 12.5 -33.5t-1.5 -34.5l-155 11l-5 -424q-28 -7 -54 0l-5 424l-144 -11q-9 13 -12.5 34.5t1.5 33.5l155 -10l-2 148l-142 -10q-9 13 -12.5 34.5t1.5 34.5l153 -11l-2 164q38 13 72 6l-2 -170l142 11q9 -13 12.5 -34.5t-1.5 -34.5l-153 11z" />
    <glyph glyph-name="bullet" unicode="&#x2022;" horiz-adv-x="445" 
d="M222 234q-36 0 -61 25t-25 61t25 61.5t61 25.5t61.5 -25.5t25.5 -61.5t-25.5 -61t-61.5 -25z" />
    <glyph glyph-name="ellipsis" unicode="&#x2026;" horiz-adv-x="643" 
d="M536 -15q-23 0 -38 15.5t-15 38.5t15 38t37.5 15t38 -15t15.5 -38t-15 -38.5t-38 -15.5zM319 -15q-23 0 -38 15.5t-15 38.5t15 38t38 15t38 -15t15 -38t-15 -38.5t-38 -15.5zM102 -15q-23 0 -38 15.5t-15 38.5t15.5 38t38 15t37.5 -15t15 -38t-15 -38.5t-38 -15.5z" />
    <glyph glyph-name="perthousand" unicode="&#x2030;" horiz-adv-x="1093" 
d="M817 283q34 44 99 44t98.5 -43t33.5 -127t-34.5 -128t-98 -44t-98 42.5t-34.5 127t34 128.5zM915 285q-78 0 -78 -128.5t77 -128.5q79 0 79 128.5t-78 128.5zM477 283q34 44 99 44t98.5 -43t33.5 -127t-34.5 -128t-98 -44t-98 42.5t-34.5 127t34 128.5zM575 285
q-78 0 -78 -128.5t77 -128.5q80 0 80 130q0 61 -20 94t-59 33zM178 622q131 0 131 -169q0 -85 -34.5 -129t-97.5 -44t-97.5 42.5t-34.5 127.5q0 172 133 172zM177 580q-78 0 -78 -128.5t77 -128.5q79 0 79 128.5t-78 128.5zM585 622l-354 -622h-65l354 622h65z" />
    <glyph glyph-name="guilsinglleft" unicode="&#x2039;" horiz-adv-x="365" 
d="M333 437l-192 -191v-6l194 -191l-32 -30l-244 202q-5 21 0 44l244 202z" />
    <glyph glyph-name="guilsinglright" unicode="&#x203a;" horiz-adv-x="365" 
d="M224 246l-192 191l30 30l244 -202q5 -23 0 -44l-244 -202l-32 30l194 191v6z" />
    <glyph glyph-name="fraction" unicode="&#x2044;" horiz-adv-x="462" 
d="M441 622l-354 -622h-65l354 622h65z" />
    <glyph glyph-name="foursuperior" unicode="&#x2074;" horiz-adv-x="306" 
d="M291 387v-39h-52v-72l-59 -6v78h-146q-14 20 -15 33l170 238q29 7 50 3v-235h52zM180 387v157l-111 -157h111z" />
    <glyph glyph-name="Euro" unicode="&#x20ac;" horiz-adv-x="533" 
d="M365 222h-192q13 -89 56 -138.5t116 -49.5t139 60q11 -7 11 -21q0 -31 -51.5 -60t-118.5 -29q-93 0 -152 63t-73 175h-62v49h58v22q0 19 1 29h-59v50h63q16 115 77 182.5t163 67.5q68 0 109.5 -31.5t41.5 -79.5q0 -52 -58 -56q0 53 -29 85.5t-83.5 32.5t-96 -54
t-53.5 -147h193v-50h-197v-21q0 -20 1 -30h196v-49z" />
    <glyph glyph-name="uni20B9" unicode="&#x20b9;" horiz-adv-x="442" 
d="M84 293q0 28 19.5 44t50.5 16t61 -10q12 24 12 61v2h-171q-17 22 -17 57h182q-10 46 -26 81h-155q-20 24 -20 61h364q20 -25 20 -61h-135q8 -30 13 -81h120q17 -22 19 -57h-137q-2 -73 -34 -120t-97 -49q34 -55 95 -119t112 -106q-16 -24 -50 -40q-88 78 -172 198
q-54 78 -54 123z" />
    <glyph glyph-name="trademark" unicode="&#x2122;" horiz-adv-x="782" 
d="M717 371h-105q0 28 18 29l18 1l-17 213l-86 -193q-15 -4 -29 -2l-89 186l-16 -203l38 -3q0 -28 -18 -28h-99q2 29 19 29l22 1l19 245l-36 2q0 29 18 29h73l91 -186l80 186h80q19 0 19 -29l-37 -2l20 -244l36 -3q0 -28 -19 -28zM46 614v63h275v-63q0 -17 -30 -17l-4 47
h-75v-243l39 -2q0 -3 0.5 -9t-4.5 -12.5t-14 -6.5h-118q2 29 19 29l21 1v243h-75l-5 -47q-29 0 -29 17z" />
    <glyph glyph-name="uni2126" unicode="&#x2126;" horiz-adv-x="715" 
d="M683 0h-292q-9 17 -13 44q40 26 68 49t63 61q73 79 73 197t-62.5 196.5t-164 78.5t-164 -78.5t-62.5 -197.5q0 -46 15 -89t35 -73t52 -60.5t54 -46.5t53 -37q-4 -27 -13 -44h-293v128q15 9 28 1t15 -21l10 -57h162q-191 115 -191 307q0 140 85 230.5t218.5 90.5
t214.5 -90t81 -229q0 -115 -59 -194q-50 -64 -128 -115h163l9 54q3 19 20 24t23 -1v-128z" />
    <glyph glyph-name="partialdiff" unicode="&#x2202;" horiz-adv-x="535" 
d="M235 670q120 0 182 -93t62 -235q0 -129 -54 -234q-28 -55 -81 -88t-130.5 -33t-121.5 54.5t-44 148.5q0 105 55 186q27 39 74 62.5t108.5 23.5t114.5 -32q-17 87 -59.5 139t-99.5 52q-39 0 -58 -23t-16 -50q-27 -2 -40 12t-13 39.5t31.5 48t89.5 22.5zM147.5 80
q30.5 -39 81.5 -39t87.5 28t55.5 73q37 88 37 186q0 27 -1 41q-50 40 -129 40t-120.5 -62t-41.5 -145t30.5 -122z" />
    <glyph glyph-name="uni2206" unicode="&#x2206;" horiz-adv-x="658" 
d="M374 678l254 -622q-4 -28 -19 -56h-568q-9 18 -11 39l270 617q31 16 74 22zM330 589l-232 -537h450z" />
    <glyph glyph-name="product" unicode="&#x220f;" horiz-adv-x="705" 
d="M73 677h590v-8q0 -27 -14 -33q-7 -4 -17 -5l-46 -2v-672l73 -6q4 -44 -28 -44h-198v8q0 25 14 33q7 3 17 4l46 3v672h-315l-1 -670l73 -6q4 -44 -27 -44h-198v8q0 25 14 33q7 3 17 4l46 3v672l-73 6q-4 44 27 44z" />
    <glyph glyph-name="summation" unicode="&#x2211;" horiz-adv-x="578" 
d="M518 677v-130q0 -43 -44 -39l-9 119h-337l301 -339l-324 -328h382l8 113q21 3 33 -8t12 -27v-130h-490q-19 22 -17 52l308 318l-307 351q4 33 15 48h469z" />
    <glyph glyph-name="minus" unicode="&#x2212;" horiz-adv-x="478" 
d="M50 317h378v-57h-378v57z" />
    <glyph glyph-name="uni2215" unicode="&#x2215;" horiz-adv-x="502" 
d="M461 622l-355 -622h-65l354 622h66z" />
    <glyph glyph-name="radical" unicode="&#x221a;" horiz-adv-x="556" 
d="M62 325q-18 0 -25.5 20.5t-3.5 32.5h112l116 -346l198 668h59l-230 -764q-28 -12 -67 -4l-133 393h-26z" />
    <glyph glyph-name="infinity" unicode="&#x221e;" horiz-adv-x="768" 
d="M719 292q0 -85 -45.5 -137.5t-117.5 -52.5q-52 0 -90 30.5t-83 99.5q-29 -58 -74.5 -94t-108.5 -36t-107 54t-44 136.5t45 133t118 50.5q67 0 109 -44q36 -38 63 -85q70 128 173 130q71 2 116.5 -49t45.5 -136zM205 162q85 0 148 117q-49 80 -68 100q-35 37 -80.5 37
t-74 -34.5t-28.5 -91t27.5 -92.5t75.5 -36zM491 190.5q29 -28.5 76 -28.5t73 36.5t26 89t-28 91t-77 38.5q-79 0 -145 -124q46 -74 75 -102.5z" />
    <glyph glyph-name="approxequal" unicode="&#x2248;" horiz-adv-x="548" 
d="M387 356l31 -10q-6 -29 -22 -53l22 -7q-10 -46 -39.5 -72.5t-70 -24.5t-82.5 29.5t-63.5 28.5t-37.5 -12.5t-24 -32.5l-31 14q10 30 24 49l-24 11q13 46 44 70.5t65 22.5t74 -31t66 -30t43.5 12.5t24.5 35.5zM121 292q21 13 39 16q-19 0 -39 -16zM320 248q29 -1 48 18
q-23 -17 -56 -17q2 -1 8 -1z" />
    <glyph glyph-name="notequal" unicode="&#x2260;" horiz-adv-x="478" 
d="M428 328h-141l-33 -79h174v-57h-198l-44 -105l-55 23l34 82h-115v57h138l33 79h-171v56h194l46 111l58 -23l-37 -88h117v-56z" />
    <glyph glyph-name="lessequal" unicode="&#x2264;" horiz-adv-x="474" 
d="M423 409l-284 -109l284 -109l-23 -54l-362 142v41l362 141zM41 52v56h378v-56h-378z" />
    <glyph glyph-name="greaterequal" unicode="&#x2265;" horiz-adv-x="470" 
d="M69 461l362 -141v-41l-362 -142l-23 54l284 109l-284 109zM50 52v56h378v-56h-378z" />
    <glyph glyph-name="lozenge" unicode="&#x25ca;" horiz-adv-x="587" 
d="M294 469l-173 -174l173 -172l172 173zM294 549l253 -253l-253 -253l-254 252z" />
    <glyph glyph-name="uni25CC" unicode="&#x25cc;" horiz-adv-x="701" 
d="M285 571q0 19 12.5 31.5t31.5 12.5t31.5 -12.5t12.5 -31.5t-12.5 -31.5t-31.5 -12.5t-31.5 12.5t-12.5 31.5zM424 525q-13 13 -13 32t12.5 31.5t32 12.5t31.5 -12.5t12 -31.5t-12.5 -32t-31 -13t-31.5 13zM506 488q0 19 12.5 32t31.5 13t31.5 -12.5t12.5 -32t-12.5 -32
t-31.5 -12.5t-31.5 12.5t-12.5 31.5zM556 370q0 20 12 32t31.5 12t32 -12.5t12.5 -31.5t-12.5 -31.5t-32 -12.5t-31.5 12t-12 32zM559 204.5q-13 12.5 -13 32t13 32t31.5 12.5t31 -13t12.5 -32t-12.5 -31.5t-31 -12.5t-31.5 12.5zM473 138q0 19 12.5 31.5t31.5 12.5
t32 -12.5t13 -31.5t-13 -31.5t-32 -12.5t-31.5 12.5t-12.5 31.5zM352 85q0 19 12 31.5t32 12.5t32.5 -12.5t12.5 -31.5t-12.5 -31.5t-32.5 -12.5t-32 12.5t-12 31.5zM238 68q-13 13 -13 32t13 32t32 13t31.5 -13t12.5 -32t-12.5 -32t-31.5 -13t-32 13zM136 144
q-12 12 -12 31.5t12.5 32t31.5 12.5t31.5 -12.5t12.5 -31.5t-12.5 -31.5t-32 -12.5t-31.5 12zM72 292q0 19 12.5 32t31.5 13t31.5 -12.5t12.5 -32t-12.5 -31.5t-31.5 -12t-31.5 12t-12.5 31zM85 418q0 19 13 31.5t32 12.5t32 -12.5t13 -31.5t-13 -31.5t-32 -12.5t-32 12.5
t-13 31.5zM179.5 495.5q-12.5 12.5 -12.5 32t12.5 32t31.5 12.5t31.5 -12.5t12.5 -32t-12.5 -32t-31.5 -12.5t-31.5 12.5z" />
    <glyph glyph-name="dotlessj" unicode="&#xf6be;" horiz-adv-x="241" 
d="M167 9q0 -106 -38.5 -170.5t-116.5 -64.5q-29 0 -53 14t-24 38.5t13 36t34 10.5q2 -45 47 -45q34 0 51.5 29t17.5 103v481l-53 5q-23 3 -23 42l145 16v-495z" />
    <glyph glyph-name="ff" unicode="&#xfb00;" horiz-adv-x="606" 
d="M47 443v18q0 11 5 17.5t8 7.5q9 3 15 3h43v37q0 89 38.5 138t108.5 49q35 1 59 -12.5t24 -38t-13 -36.5t-34 -12q-1 25 -15.5 39t-41.5 14q-57 0 -57 -118v-60h215v37q0 89 38.5 138t109.5 49q35 1 58.5 -12.5t23.5 -38t-13 -36.5t-34 -12q-1 25 -15.5 39t-35.5 14
q-62 0 -62 -118v-60h132q4 -46 -29 -46h-103v-396l98 -6v-15q0 -11 -2.5 -14t-5.5 -6q-6 -6 -20 -6h-213v8q0 32 32 35l41 2v398h-215v-396l98 -6v-17q0 -12 -5 -15q-10 -9 -22 -9h-213v8q0 24 14 30q7 4 17 5l42 2v398h-71z" />
    <glyph glyph-name="fi" unicode="&#xfb01;" horiz-adv-x="572" 
d="M429 681q22 0 36 -14t14 -36t-14 -35.5t-36 -13.5t-35.5 13.5t-13.5 35.5t13.5 36t35.5 14zM520 0h-190v8q0 24 14 30q7 4 17 5l42 2v396l-52 4q-24 3 -24 43l145 16v-457l76 -6q4 -41 -28 -41zM47 443v17q0 21 14 26q9 3 15 3h42v35q0 91 39 140t108 49q33 1 56.5 -13
t23.5 -38t-13.5 -36t-34.5 -12q-1 25 -14 39t-33 14q-32 0 -47.5 -29.5t-15.5 -98.5v-50h117q4 -46 -29 -46h-88v-396l98 -6v-17q0 -12 -5 -15q-10 -9 -22 -9h-213v8q0 24 14 30q7 4 17 5l42 2v398h-71z" />
    <glyph glyph-name="fl" unicode="&#xfb02;" horiz-adv-x="568" 
d="M47 443v18q0 11 5 17.5t8 7.5q9 3 15 3h43v37q0 89 38.5 138t108.5 49q60 2 78 -32l129 17v-651l71 -6q4 -41 -28 -41h-187v8q0 24 14 30q7 4 17 5l44 2v587l-52 5q-3 0 -7 2q-11 -25 -43 -25q-1 25 -15.5 39t-41.5 14q-57 0 -57 -118v-60h123q4 -46 -29 -46h-94v-396
l98 -6v-17q0 -12 -5 -15q-10 -9 -22 -9h-213v8q0 24 14 30q7 4 17 5l42 2v398h-71z" />
    <glyph glyph-name="ffi" unicode="&#xfb03;" horiz-adv-x="857" 
d="M804 0h-190v8q0 24 14 30q7 4 17 5l42 2v396l-52 4q-24 3 -24 43l145 16v-457l76 -6q4 -41 -28 -41zM48 443v18q0 11 5 17.5t8 7.5q9 3 15 3h43v37q0 89 38.5 138t108.5 49q35 1 59 -12.5t24 -38t-13 -36.5t-34 -12q-1 25 -15.5 39t-40.5 14q-58 0 -58 -118v-60h214v35
q0 91 39 140t108 49q33 1 56.5 -13t23.5 -38t-13.5 -36t-34.5 -12q-1 25 -14 39t-33 14q-32 0 -47.5 -29.5t-15.5 -98.5v-50h118q2 -21 -7.5 -33.5t-22.5 -12.5h-88v-396l98 -6q0 -8 0.5 -17t-6 -16.5t-21.5 -7.5h-213v8q0 32 32 35l41 2v398h-214v-396l98 -6v-17
q0 -12 -4 -15q-11 -9 -23 -9h-213v8q0 24 14 30q7 4 17 5l42 2v398h-71zM713 582q-22 0 -35.5 13.5t-13.5 35.5t13.5 36t35.5 14t36 -14t14 -36t-14 -35.5t-36 -13.5z" />
    <glyph glyph-name="ffl" unicode="&#xfb04;" horiz-adv-x="852" 
d="M47 443v18q0 11 5 17.5t8 7.5q9 3 15 3h43v37q0 89 38.5 138t108.5 49q35 1 59 -12.5t24 -38t-13 -36.5t-34 -12q-1 25 -15.5 39t-41.5 14q-57 0 -57 -118v-60h215v37q0 89 38.5 138t109.5 49q59 2 77 -32l130 17v-651l71 -6q4 -41 -28 -41h-188v8q0 32 32 35l43 2v587
l-52 5q-3 0 -7 2q-11 -25 -43 -25q-1 25 -15.5 39t-35.5 14q-62 0 -62 -118v-60h132q4 -46 -29 -46h-103v-396l98 -6v-15q0 -11 -2.5 -14t-5.5 -6q-6 -6 -20 -6h-213v8q0 32 32 35l41 2v398h-215v-396l98 -6v-17q0 -12 -5 -15q-10 -9 -22 -9h-213v8q0 24 14 30q7 4 17 5
l42 2v398h-71z" />
    <glyph glyph-name="uni0915094D" horiz-adv-x="549" 
d="M421 544v-178q58 53 119.5 53t104.5 -40l-33 -36q-19 16 -49 16q-73 0 -142 -94v-285q-25 0 -46.5 10.5t-21.5 21.5v142q-60 -48 -134.5 -48t-128 53.5t-53.5 125.5t50 116t127 44t139 -50v149h-363q-20 24 -20 61h588q20 -23 20 -61h-157zM353 339q-56 45 -115 45
t-95.5 -32.5t-36.5 -86t28 -81t69 -27.5t81 23t69 63v96z" />
    <glyph glyph-name="uni0916094D" horiz-adv-x="540" 
d="M464 128q-77 0 -130 53t-53 123t50 108t117 38q90 0 136 -48l-19 -37q-36 27 -92.5 27t-91.5 -27.5t-35 -81t31 -78t71.5 -24.5t83.5 32.5t63 89.5l41 -67q-66 -108 -172 -108zM571 544h-360q15 -55 15 -131.5t-30 -135.5t-99 -64q45 -78 125.5 -120t197.5 -68
q-3 -28 -26 -60q-81 13 -152.5 50t-116 82.5t-70 90.5t-25.5 78q0 64 75 64q24 0 56 -9q10 26 10 87t-34 136h-147q-20 24 -20 61h581q20 -23 20 -61z" />
    <glyph glyph-name="uni0917094D" horiz-adv-x="272" 
d="M302 544h-122v-256q0 -63 -18 -86q-10 -14 -34 -14t-59 37.5t-35 66.5q0 16 5 24q11 22 74 24v204h-123q-20 24 -20 61h312q20 -23 20 -61z" />
    <glyph glyph-name="uni0918094D" horiz-adv-x="343" 
d="M266 109q-75 0 -125.5 40.5t-50.5 101.5t39 100q-96 38 -96 129q0 38 18 64h-61q-20 24 -20 61h385q20 -25 20 -61h-249q-24 -29 -24 -67t23.5 -61.5t53.5 -28.5q35 18 80 30q29 -29 38 -56q-141 -43 -141 -118q0 -37 28 -58t73 -21t94 31.5t72 77.5l12 -98
q-76 -66 -169 -66z" />
    <glyph glyph-name="uni0919094D" horiz-adv-x="558" 
d="M455.5 368q24.5 21 33.5 21t30.5 -25t21.5 -34t-23.5 -30t-33.5 -21t-31.5 24.5t-21.5 34t24.5 30.5zM280 -102q-29 8 -62 8t-63 -5q-12 26 -10 64q30 4 65 4q118 0 248 -162q-11 -15 -29 -26q-79 97 -149 117zM369 388l-93 3q-80 0 -112 -15t-32 -48.5t12.5 -49.5
t23 -16t80 16t96.5 16q47 0 76 -42.5t29 -91.5q0 -66 -50.5 -106.5t-128.5 -40.5q-140 0 -245 141q11 18 34 30q47 -57 91 -83.5t108 -26.5t103 33.5t39 78t-43 44.5q-19 0 -78.5 -15.5t-80.5 -15.5q-47 0 -86.5 47.5t-39.5 102t31.5 80t85.5 25.5h140v90h-347
q-20 26 -20 61h606q20 -23 20 -61h-192v-114q0 -12 -9 -27t-18 -15z" />
    <glyph glyph-name="uni091A094D" horiz-adv-x="381" 
d="M412 544h-422q-20 24 -20 61h422q20 -23 20 -61zM346 377q-65 0 -115 -30t-50 -87q0 -42 30.5 -64t76 -22t93 29.5t71.5 79.5l7 -102q-71 -63 -158 -63t-136 49t-49 113t54 97h-151q-19 26 -22 61h364q17 -28 20 -61h-35z" />
    <glyph glyph-name="uni091B094D" horiz-adv-x="642" 
d="M75 451.5q34 32.5 87 32.5t80.5 -28t34.5 -61q-9 -9 -19 -10q-31 40 -71.5 40t-59.5 -19t-19 -50.5t26 -58t58 -33.5q50 25 83 28q25 -28 36 -57q-49 -5 -90.5 -32t-41.5 -70.5t29.5 -68t87.5 -24.5q114 0 189 81.5t75 190.5q0 56 -21.5 85.5t-53 29.5t-50 -18t-18.5 -55
q0 -66 71 -109q-3 -17 -19 -28q-120 54 -120 151q0 52 32 85t84 33q72 0 109 -53.5t37 -132.5q0 -139 -84.5 -226.5t-216.5 -87.5q-93 0 -147 47.5t-54 106.5t44 96q-52 16 -82 55t-30 83.5t34 77zM672 544h-682q-20 24 -20 61h682q20 -25 20 -61z" />
    <glyph glyph-name="uni091C094D" horiz-adv-x="447" 
d="M258 147q31 0 52 18.5t21 55.5q0 64 -80 153q2 8 12 21.5t14 15.5h274v-64h-224q62 -73 62 -146q0 -55 -31.5 -88.5t-83.5 -33.5t-95.5 28t-76.5 77q-61 94 -99 234q15 13 44 16q81 -287 211 -287zM476 544h-486q-20 24 -20 61h486q20 -25 20 -61z" />
    <glyph glyph-name="uni091D094D" horiz-adv-x="483" 
d="M540 233q-56 -25 -120 -32q5 -22 5 -38q0 -64 -56.5 -103t-142.5 -39q-12 0 -19 1q67 -75 91 -122q-7 -10 -25 -24t-33 -20q-54 121 -93 176q-108 26 -108 77q0 23 20.5 38.5t41.5 15.5q37 0 72 -73q20 -7 50 -7q59 0 106.5 28t47.5 74t-43 46q-20 0 -79.5 -15.5
t-78.5 -15.5q-48 0 -87.5 47.5t-39.5 101t31.5 80t84.5 26.5h140v89h-315q-20 24 -20 61h523q20 -23 20 -61h-141v-115q0 -12 -12 -26.5t-20 -14.5l-85 3q-84 0 -114.5 -15t-30.5 -49t13 -49t22.5 -15t78.5 16t95 16q48 0 79 -45q37 7 79 25.5t63 40.5v-83z" />
    <glyph glyph-name="uni091E094D" horiz-adv-x="662" 
d="M466 242h-7q-9 -59 -52 -93t-101 -34t-108.5 23t-89.5 59q-75 69 -113 145q10 14 34 25q66 -98 126.5 -144t118.5 -46t88 27t30 74q0 97 -85 97q-56 0 -122 -53q-27 25 -41 63q56 48 131 48t125.5 -36.5t59.5 -103.5q46 8 84 35v-71q-33 -15 -78 -15zM-30 605h545
q20 -25 20 -61h-545q-20 24 -20 61z" />
    <glyph glyph-name="uni091F094D" horiz-adv-x="503" 
d="M400 -141q-41 35 -72.5 44t-66.5 9t-65 -5q-12 27 -10 65q30 4 65 4q121 0 248 -163q-11 -15 -29 -25q-29 36 -70 71zM390 544v-137q-1 -12 -10.5 -24t-17.5 -14q-50 5 -56 5q-95 0 -149 -38.5t-54 -110t46 -107.5t111 -36q117 0 185 94q29 -17 49 -49q-33 -44 -89 -74
t-128 -30q-102 0 -170.5 60t-68.5 152.5t65 146t171 53.5q26 0 49 -4v113h-333q-20 24 -20 61h542q20 -23 20 -61h-142z" />
    <glyph glyph-name="uni0920094D" horiz-adv-x="562" 
d="M378 544v-118q65 -17 106 -61.5t41 -121.5q0 -102 -72.5 -159.5t-173.5 -57.5t-171 62.5t-70 155t65.5 143t182.5 50.5q17 0 25 -1v108h-321q-20 24 -20 61h592q20 -23 20 -61h-204zM147.5 120.5q43.5 -37.5 121.5 -37.5t138 49.5t60 124.5q0 46 -24.5 74.5t-57 38
t-73 9.5t-74.5 -7.5t-65.5 -24.5t-50 -49t-18.5 -75q0 -65 43.5 -102.5zM342 -96q-29 8 -62 8t-63 -5q-12 26 -10 64q30 4 65 4q121 0 248 -163q-12 -15 -29 -25q-79 97 -149 117z" />
    <glyph glyph-name="uni0921094D" horiz-adv-x="480" 
d="M245 -97q-33 0 -63 -5q-14 29 -10 64q30 4 65 4q118 0 248 -162q-9 -12 -29 -26q-79 97 -149 117q-29 8 -62 8zM369 390l-94 3q-81 0 -110.5 -15.5t-29.5 -49.5t12.5 -50t22.5 -16t80 16t97 16q47 0 76 -42t29 -91q0 -66 -50.5 -107t-128.5 -41q-141 0 -246 141
q9 19 34 30q46 -55 90 -82.5t108.5 -27.5t104 33.5t39.5 78t-43 44.5q-19 0 -79 -15.5t-81 -15.5q-48 0 -87 47.5t-39 106.5q0 101 137 101h121v90h-331q-20 24 -20 61h504q20 -23 20 -61h-106v-115q-1 -11 -11 -24t-19 -15z" />
    <glyph glyph-name="uni0922094D" horiz-adv-x="539" 
d="M345 -97q-29 8 -62 8t-63 -5q-13 28 -9 64q30 4 65 4q116 0 247 -162q-10 -14 -29 -26q-79 97 -149 117zM375 387l-66 6q-106 0 -153.5 -42t-47.5 -107.5t45 -107t121 -41.5q14 0 40 2q-40 49 -40 97t28.5 80t76.5 32t85.5 -28.5t37.5 -86.5t-55 -103.5t-162 -45.5
t-175 63.5t-68 153t62.5 141.5t174.5 52q29 0 56 -3v95h-348q-20 24 -20 61h579q21 -25 21 -61h-165v-122q-1 -10 -10.5 -22t-16.5 -13zM345 232.5q-18 -21.5 -18 -55.5t25 -72q44 12 69 38t25 57t-16 42.5t-41.5 11.5t-43.5 -21.5z" />
    <glyph glyph-name="uni0923094D" horiz-adv-x="476" 
d="M509 544h-94v-206q0 -89 -40.5 -139.5t-117.5 -50.5t-128 52.5t-51 152.5v191h-88q-20 24 -20 61h519q20 -25 20 -61zM348 333v211h-202v-182q0 -42 8 -75t33.5 -59.5t66.5 -26.5q94 0 94 132z" />
    <glyph glyph-name="uni0924094D" horiz-adv-x="272" 
d="M278 356q-94 0 -134 -23t-40 -79q0 -98 111 -246q-7 -9 -20.5 -18t-19.5 -11q-139 185 -139 301q0 77 60 111t178 34h102l1 -69h-99zM303 544h-313q-20 24 -20 61h313q20 -23 20 -61z" />
    <glyph glyph-name="uni0925094D" horiz-adv-x="386" 
d="M288 122q-93 0 -154.5 59t-75.5 148q199 30 199 154q0 41 -20.5 64.5t-49.5 23.5t-50 -17t-21 -47q0 -46 56 -83q-7 -19 -21 -27q-94 50 -94 123q0 44 33.5 71.5t90 27.5t99.5 -43t43 -107.5t-51 -116t-151 -74.5q52 -93 158 -93q58 0 100.5 26.5t66.5 61.5l36 -70
q-73 -81 -194 -81zM420 544h-50q-20 24 -20 61h50q20 -25 20 -61z" />
    <glyph glyph-name="uni0926094D" horiz-adv-x="498" 
d="M347 -104q-29 8 -62 8t-63 -5q-13 28 -9 64q30 4 65 4t64 -11q85 -31 184 -151q-14 -17 -30 -26q-79 97 -149 117zM391 544v-122q0 -10 -11.5 -23.5t-17 -13t-28.5 4t-43 3.5q-194 0 -194 -154q0 -65 47 -102.5t107 -37.5t97 24q-21 25 -21 53.5t27.5 47t48 18.5
t31.5 -16.5t11 -53t-27 -71.5q82 -80 104 -123q-8 -11 -26.5 -25t-34.5 -21q-59 114 -76 139q-47 -32 -122 -32q-96 0 -163.5 64t-67.5 154.5t63.5 142.5t173.5 52q27 0 56 -3v95h-335q-20 24 -20 61h538q20 -25 20 -61h-137z" />
    <glyph glyph-name="uni0927094D" horiz-adv-x="426" 
d="M425.5 133.5q-53.5 -24.5 -117 -24.5t-112.5 40.5t-49 107.5q0 47 31 85q-56 21 -85.5 60.5t-29.5 89t40.5 88t104.5 38.5q42 0 69.5 -21.5t27.5 -60.5q0 -65 -84 -94q-13 7 -19 26q23 16 33 29.5t10 34.5q0 44 -40 44q-30 0 -52 -25.5t-22 -67t27 -70.5t62 -38
q37 22 93 37q29 -29 38 -56q-138 -40 -138 -113q0 -38 28 -59.5t73 -21.5t92 31.5t71 76.5l36 -71q-34 -41 -87.5 -65.5zM452 544h-84q-18 24 -20 61h84q20 -23 20 -61z" />
    <glyph glyph-name="uni0928094D" horiz-adv-x="292" 
d="M320 544h-330q-20 24 -20 61h330q20 -23 20 -61zM239 368h127l2 -62h-148q-39 0 -57 -1q-6 -69 -26 -92q-10 -13 -23 -13t-26.5 7.5t-38 44t-24.5 63.5q0 44 77.5 48.5t136.5 4.5z" />
    <glyph glyph-name="uni092A094D" horiz-adv-x="339" 
d="M410 203q-62 -54 -147 -54t-130.5 60.5t-45.5 165.5v169h-97q-20 24 -20 61h379q20 -25 20 -61h-209v-149q0 -112 19 -154.5t69.5 -42.5t92 32.5t64.5 83.5z" />
    <glyph glyph-name="uni092B094D" horiz-adv-x="575" 
d="M447 544v-184q61 55 122.5 55t104.5 -35l-33 -38q-20 14 -47 14q-72 0 -147 -101v-275q-25 0 -46 10.5t-21 21.5v199q-60 -39 -124 -39q-81 0 -125 62.5t-44 168.5v141h-97q-20 24 -20 61h615q20 -23 20 -61h-158zM159 544v-121q0 -113 18 -157t61 -44t80 23.5t62 63.5
v235h-221z" />
    <glyph glyph-name="uni092C094D" horiz-adv-x="348" 
d="M244 101q-86 0 -139 57t-53 135.5t54 121t131.5 42.5t123.5 -47l-11 -39q-40 26 -87 26t-78 -14l172 -173q24 24 40 56l26 -66q-29 -44 -76.5 -71.5t-102.5 -27.5zM146 353q-29 -34 -29 -87.5t31.5 -83t77.5 -29.5t92 27zM-30 605h385q20 -25 20 -61h-385q-20 24 -20 61z
" />
    <glyph glyph-name="uni092D094D" horiz-adv-x="450" 
d="M239 426q0 73 -14 109t-55 36q-53 0 -53 -61.5t84 -105.5q-6 -23 -18 -33q-132 60 -132 153q0 45 31.5 70t89.5 25t95.5 -41.5t37.5 -114.5v-163q129 0 219 -6l3 -61q-93 8 -221 8q-1 -25 -7.5 -50.5t-16.5 -34t-32 -6.5t-56 36t-34 64t19 39.5t60 10.5v126zM389 605h75
q20 -23 20 -61h-75q-20 26 -20 61z" />
    <glyph glyph-name="uni092E094D" horiz-adv-x="337" 
d="M172 302q164 0 236 -7v-60q-78 8 -235 8q0 -54 -19 -80q-8 -14 -32 -14t-59.5 38t-35.5 67q0 16 5 24q12 23 74 23v243h-116q-20 24 -20 61h379q20 -25 20 -61h-197v-242z" />
    <glyph glyph-name="uni092F094D" horiz-adv-x="325" 
d="M418 176q-64 -54 -156.5 -54t-152 59.5t-75.5 151.5q74 16 108 45t34 72.5t-44 93.5h-142q-20 24 -20 61h365q20 -25 20 -61h-160q49 -49 49 -104t-39.5 -96t-109.5 -57q42 -100 160 -100q54 0 94.5 24.5t58.5 58.5z" />
    <glyph glyph-name="uni0930094D" horiz-adv-x="324" 
d="M276 -112q-29 8 -62 8t-63 -5q-12 27 -10 65q30 4 65 4q118 0 248 -163q-9 -12 -29 -26q-79 97 -149 117zM354 544h-135q16 -66 16 -135t-32.5 -119.5t-99.5 -52.5q34 -55 95.5 -119t112.5 -106q-17 -24 -50 -40q-40 35 -103 108q-124 142 -124 213q0 28 19.5 44t51.5 16
t60 -10q13 26 13 61q0 67 -32 140h-156q-20 24 -20 61h364q20 -23 20 -61z" />
    <glyph glyph-name="uni0932094D" horiz-adv-x="476" 
d="M551 350q-34 38 -78.5 38t-78 -53t-43.5 -126q-17 4 -35.5 17t-23.5 22q2 24 11 51q-15 33 -45 57.5t-70 24.5t-66 -31.5t-26 -87.5q0 -99 165 -224q-12 -22 -30 -37q-202 149 -202 294q0 72 47 111t102 39t91 -31t55 -68q53 98 141 98q33 0 61.5 -13.5t40.5 -31.5z
M-30 605h517q20 -25 20 -61h-517q-20 24 -20 61z" />
    <glyph glyph-name="uni0933094D" horiz-adv-x="700" 
d="M511 452q77 0 121.5 -51t44.5 -132t-50 -136t-128 -55q-54 0 -96.5 27.5t-67.5 67.5q-60 -94 -139 -94q-66 0 -117.5 52.5t-51.5 136.5t45.5 134t122.5 50q105 0 171 -92q32 47 65 69.5t80 22.5zM181 135q25 0 37.5 8t19.5 13t15.5 15.5t14 17.5t14 22t13 22t13.5 25
q11 21 39 70q-54 65 -125.5 65t-104 -42t-32.5 -97.5t27.5 -87t68.5 -31.5zM357 210q56 -80 118 -80t101.5 48t39.5 102.5t-22 85t-64 30.5q-59 0 -107 -71q-17 -24 -66 -115zM-30 605h741q20 -25 20 -61h-741q-20 24 -20 61z" />
    <glyph glyph-name="uni0935094D" horiz-adv-x="325" 
d="M356 544h-366q-20 24 -20 61h366q20 -23 20 -61zM94 414.5q54 42.5 128.5 42.5t124.5 -47l-15 -40q-39 25 -92.5 25t-93 -32t-39.5 -94t32.5 -88t81 -26t99.5 32t74 84l32 -70q-74 -99 -192 -99q-87 0 -140.5 56.5t-53.5 135t54 121z" />
    <glyph glyph-name="uni0936094D" horiz-adv-x="408" 
d="M439 544h-117q44 -47 44 -116t-56.5 -131t-131.5 -89q44 -34 106.5 -101.5t74.5 -96.5q-7 -11 -24 -25t-33 -20q-24 49 -75 120t-91 112q-13 -3 -38.5 -3t-52 19t-26.5 39t21.5 39t40.5 19q34 0 74 -52q54 12 100 65t46 121q0 40 -20 69.5t-57 29.5t-60 -20t-23 -53
q0 -54 77 -105q-1 -8 -7 -16.5t-10 -10.5q-65 27 -96.5 64t-31.5 75.5t19 66.5h-102q-20 24 -20 61h449q20 -25 20 -61z" />
    <glyph glyph-name="uni0937094D" horiz-adv-x="343" 
d="M261 145q-178 0 -178 249v150h-93q-20 24 -20 61h383q20 -23 20 -61h-193l244 -290l4 -40q-69 -69 -167 -69zM154 392q0 -109 21.5 -153.5t79.5 -44.5t116 51l-217 259v-112z" />
    <glyph glyph-name="uni0938094D" horiz-adv-x="364" 
d="M346 248q-92 0 -153 32q-36 -37 -89 -40q36 -57 96.5 -124.5t107.5 -105.5q-20 -25 -48 -38q-30 27 -92 100q-132 154 -132 224q0 29 19 44.5t50.5 15.5t61.5 -10q12 27 12 61q0 64 -34 137h-155q-20 24 -20 61h405q18 -23 20 -61h-176q17 -70 17 -126.5t-18 -98.5
q47 -15 105 -15t100 20l5 -65q-33 -11 -82 -11z" />
    <glyph glyph-name="uni0939094D" horiz-adv-x="434" 
d="M480 228h-204q-61 0 -100 -30t-39 -72t22.5 -73.5t63.5 -54.5q64 -37 178 -71q-8 -35 -17 -45q-114 31 -206 86q-50 31 -80 73.5t-30 91.5q0 65 53 110q-68 59 -68 118q0 90 146 90h109v93h-318q-20 24 -20 61h472q20 -25 20 -61h-87v-120q0 -12 -9 -24t-19 -12h-112
q-70 0 -93.5 -11.5t-23.5 -36.5q0 -39 40 -73q46 23 99 23l223 1v-63z" />
    <glyph glyph-name="uni0915093C094D" horiz-adv-x="549" 
d="M421 544v-178q58 53 119.5 53t104.5 -40l-33 -36q-19 16 -49 16q-73 0 -142 -94v-285q-25 0 -46.5 10.5t-21.5 21.5v142q-60 -48 -134.5 -48t-128 53.5t-53.5 125.5t50 116t127 44t139 -50v149h-363q-20 24 -20 61h588q20 -23 20 -61h-157zM353 339q-56 45 -115 45
t-95.5 -32.5t-36.5 -86t28 -81t69 -27.5t81 23t69 63v96zM79.5 57q24.5 21 33.5 21t30.5 -25t21.5 -34t-24 -30t-34 -21t-31 24t-21 34t24.5 31z" />
    <glyph glyph-name="uni0916093C094D" horiz-adv-x="540" 
d="M464 128q-77 0 -130 53t-53 123t50 108t117 38q90 0 136 -48l-19 -37q-36 27 -92.5 27t-91.5 -27.5t-35 -81t31 -78t71.5 -24.5t83.5 32.5t63 89.5l41 -67q-66 -108 -172 -108zM571 544h-360q15 -55 15 -131.5t-30 -135.5t-99 -64q45 -78 125.5 -120t197.5 -68
q-3 -28 -26 -60q-81 13 -152.5 50t-116 82.5t-70 90.5t-25.5 78q0 64 75 64q24 0 56 -9q10 26 10 87t-34 136h-147q-20 24 -20 61h581q20 -23 20 -61zM4 72.5q24 20.5 33.5 20.5t31 -24.5t21.5 -33.5t-24 -30t-34 -21t-31 24t-21 34t24 30.5z" />
    <glyph glyph-name="uni0917093C094D" horiz-adv-x="272" 
d="M96 66q24 21 33.5 21t30.5 -25t21 -34t-23.5 -30t-34 -21t-31 24t-20.5 34t24 31zM180 544v-256q0 -63 -18 -86q-10 -14 -34 -14t-59 37.5t-35 66.5q0 16 5 24q11 22 74 24v204h-123q-20 24 -20 61h312q20 -23 20 -61h-122z" />
    <glyph glyph-name="uni091C093C094D" horiz-adv-x="447" 
d="M314 -50q-24 -21 -34 -21t-31 24t-21 34t24 30.5t33.5 20.5t31 -24.5t21.5 -33.5t-24 -30zM258 147q31 0 52 18.5t21 55.5q0 64 -80 153q2 8 12 21.5t14 15.5h274v-64h-224q62 -73 62 -146q0 -55 -31.5 -88.5t-83.5 -33.5t-95.5 28t-76.5 77q-61 94 -99 234q15 13 44 16
q81 -287 211 -287zM476 544h-486q-20 24 -20 61h486q20 -25 20 -61z" />
    <glyph glyph-name="uni0928093C094D" horiz-adv-x="292" 
d="M157 -36q-10 0 -31 24t-21 34t24.5 31t33.5 21t30.5 -24.5t21.5 -34t-24 -30.5t-34 -21zM321 544h-331q-20 24 -20 61h331q20 -23 20 -61zM239 368h127l2 -62h-148q-39 0 -57 -1q-6 -69 -26 -92q-10 -13 -23 -13t-26.5 7.5t-38 44t-24.5 63.5q0 44 77.5 48.5t136.5 4.5z
" />
    <glyph glyph-name="uni092B093C094D" horiz-adv-x="575" 
d="M447 544v-184q61 55 122.5 55t104.5 -35l-33 -38q-20 14 -47 14q-72 0 -147 -101v-275q-25 0 -46 10.5t-21 21.5v199q-60 -39 -124 -39q-81 0 -125 62.5t-44 168.5v141h-97q-20 24 -20 61h615q20 -23 20 -61h-158zM159 544v-121q0 -113 18 -157t61 -44t80 23.5t62 63.5
v235h-221zM125 107q24 21 33.5 21t31 -25t21.5 -34t-24 -30t-34.5 -21t-31 24t-20.5 34t24 31z" />
    <glyph glyph-name="uni092F093C094D" horiz-adv-x="325" 
d="M418 176q-64 -54 -156.5 -54t-152 59.5t-75.5 151.5q74 16 108 45t34 72.5t-44 93.5h-142q-20 24 -20 61h365q20 -25 20 -61h-160q49 -49 49 -104t-39.5 -96t-109.5 -57q42 -100 160 -100q54 0 94.5 24.5t58.5 58.5zM93 63q24 21 33.5 21t31 -25t21.5 -34t-24 -30
t-34.5 -21t-31 24t-20.5 34t24 31z" />
    <glyph glyph-name="uni09080902" horiz-adv-x="478" 
d="M368.5 704.5q-20.5 23.5 -20.5 33t23.5 30t32.5 20.5t30 -24.5t21 -33t-23.5 -29t-33 -20.5t-30 23.5zM346 391l-101 3q-74 0 -101.5 -16t-27.5 -50.5t13 -49.5t23 -15t79 16t95 16q48 0 77 -42t29 -90q0 -64 -57 -103t-142 -39q-12 0 -19 1q67 -75 91 -122
q-7 -10 -25 -24t-33 -20q-54 121 -93 176q-101 24 -101 75q0 24 17 40t37 16q38 0 73 -73q20 -7 50 -7q59 0 106.5 28t47.5 74t-43 46q-20 0 -79.5 -15.5t-78.5 -15.5q-48 0 -87.5 47.5t-39.5 101.5q0 106 136 106h120v89h-322q-20 24 -20 61h342q-82 69 -82 155
q0 61 42.5 101.5t106.5 40.5q93 0 124 -87l-19 -15q-13 13 -21.5 20.5t-27.5 14.5t-42 7q-47 0 -71.5 -28t-24.5 -72q0 -73 69 -137h123q20 -25 20 -61h-130v-115q0 -11 -12 -24.5t-21 -13.5z" />
    <glyph glyph-name="uni09300941" horiz-adv-x="519" 
d="M549 544h-336q23 -83 15 -157q50 44 104 44t92.5 -42t38.5 -104t-37 -108t-87 -70q-13 8 -26.5 25t-18.5 33q112 61 112 140q0 29 -16.5 47.5t-40.5 18.5t-45 -8t-34.5 -16t-41 -28t-39 -27.5t-27.5 -18.5q-34 -22 -61 -35q34 -56 95 -121.5t110 -106.5q-15 -23 -50 -39
q-28 24 -91 99q-135 159 -135 226q0 28 19.5 44t50.5 16t61 -10q12 24 12 61q0 66 -33 137h-150q-20 24 -20 61h559q20 -25 20 -61z" />
    <glyph glyph-name="uni09300942" horiz-adv-x="611" 
d="M324.5 407q41.5 37 105 37t108.5 -45.5t45 -120.5q0 -107 -93 -172q-33 20 -49 50q91 57 91 143q0 45 -27.5 68.5t-69.5 23.5t-65.5 -21.5t-23.5 -54.5q0 -47 39 -78q-22 -22 -53 -25q-49 30 -49 94t41.5 101zM642 544h-429q17 -63 17 -132t-32 -118.5t-99 -53.5
q35 -56 96 -122.5t109 -105.5q-16 -24 -50 -40q-29 26 -90 98q-134 158 -134 226q0 28 19.5 44t50.5 16t61 -10q12 24 12 61q0 66 -33 137h-150q-20 24 -20 61h652q20 -23 20 -61z" />
    <glyph glyph-name="uni09390941" horiz-adv-x="459" 
d="M356 391l-121 2q-66 0 -87 -11.5t-21 -36.5q0 -38 36 -71q47 26 105 26q77 0 116.5 -44t39.5 -95q0 -34 -22 -64.5t-56 -44.5q-25 21 -38 59q65 27 65 75q0 23 -22.5 37.5t-73.5 14.5t-90 -30t-39 -77q0 -65 66 -108q33 -22 62.5 -35.5t78.5 -33.5q109 -42 109 -137
q0 -54 -39 -89.5t-107 -35.5q-91 0 -175.5 67.5t-140.5 157.5q12 20 38 30q124 -189 264 -189q49 0 77 21t28 54t-19 49.5t-60 16.5t-88 -27q-28 34 -35 59q15 10 40 19q-168 81 -168 193q0 63 48 106q-65 61 -65 116q0 89 140 89q109 0 115 -1v91h-321q-20 24 -20 61h490
q20 -25 20 -61h-101v-116q0 -11 -10 -24t-19 -13z" />
    <glyph glyph-name="uni09390942" horiz-adv-x="459" 
d="M356 391l-121 2q-66 0 -87 -11.5t-21 -42t35 -64.5q48 25 104 25q78 0 117.5 -44t39.5 -95q0 -34 -22 -64t-56 -44q-26 24 -38 59q65 25 65 74q0 23 -22.5 37.5t-74 14.5t-90.5 -30t-39 -77q0 -51 34 -85q26 -26 49 -40.5t33.5 -21t36.5 -20.5q165 -89 241 -219
q-15 -22 -37 -30q-124 192 -264 192q-48 0 -77 -22t-29 -53t19 -49.5t60 -18.5t90 28q25 -31 34 -60q-44 -28 -98 -28q-75 0 -117.5 41.5t-42.5 95.5t34 89t93 39q-128 80 -128 174q0 65 49 107q-64 58 -64 115q0 89 140 89q109 0 115 -1v91h-321q-20 24 -20 61h490
q20 -25 20 -61h-101v-116q0 -11 -10 -24t-19 -13z" />
    <glyph glyph-name="uni09260943" horiz-adv-x="409" 
d="M318 420l-85 2q-68 0 -93.5 -12t-25.5 -47.5t45 -74.5q62 22 151 22q19 -25 25 -57q-105 -2 -160.5 -23.5t-55.5 -75.5q0 -38 29 -59.5t73 -21.5q94 0 153 62q21 -23 33 -53q-73 -64 -177 -64q-75 0 -125 40.5t-50 106.5t61 103q-65 60 -65 117q0 98 158 100h70v59h-289
q-20 24 -20 61h449q20 -25 20 -61h-94v-83q0 -12 -9 -26.5t-18 -14.5z" />
    <glyph glyph-name="uni09390943" horiz-adv-x="488" 
d="M353 387h-113q-70 0 -95 -10.5t-25 -35.5q0 -42 41 -76q51 25 121.5 25t105.5 -29.5t35 -66.5q0 -24 -18.5 -41t-40.5 -25q-59 -23 -59 -50q0 -15 16 -22.5t38 -7.5q41 0 80 35q19 -16 32 -39q-43 -46 -98 -46t-89.5 26t-34.5 65q0 25 20 44t44 29q64 25 64 41
q0 28 -74.5 28t-121 -31t-46.5 -85q0 -131 281 -199q-4 -30 -17 -45q-127 29 -223 89q-50 32 -80 76t-30 93q0 68 57 113q-68 62 -68 118q0 91 147 91h112v93h-320q-20 24 -20 61h525q20 -25 20 -61h-138v-120q0 -11 -9.5 -24t-18.5 -13z" />
    <glyph glyph-name="uni094D0930" horiz-adv-x="0" 
d="M-148 -62l182 -136q-4 -9 -16.5 -21.5t-21.5 -17.5l-138 110l-164 -121q-30 23 -46 58z" />
    <glyph glyph-name="uni0930094D.1" horiz-adv-x="274" 
d="M222 248q-107 0 -171 41l25 41q47 -26 128.5 -26t127.5 37l5 -74q-52 -19 -115 -19zM-30 605h314q18 -23 20 -61h-314q-20 24 -20 61z" />
    <glyph glyph-name="uni0930094D.2" horiz-adv-x="0" 
d="M-242.5 644q-43.5 51 -43.5 113t43 102.5t107 40.5q93 0 124 -87l-19 -15q-13 13 -21.5 20t-27.5 14t-42 7q-47 0 -72 -27.5t-25 -71.5q0 -78 81 -147l-23 -19q-38 19 -81.5 70z" />
    <glyph glyph-name="uni0930094D0902" horiz-adv-x="0" 
d="M-73.5 703.5q-23.5 -20.5 -33 -20.5t-30 23.5t-20.5 33t23.5 30t32.5 20.5t30 -24t21 -33t-23.5 -29.5zM-232.5 647q-43.5 51 -43.5 113.5t43 103t107 40.5q93 0 124 -87l-19 -15q-14 14 -22 20.5t-27 14t-42 7.5q-47 0 -72 -28t-25 -72q0 -75 81 -147l-23 -18
q-38 17 -81.5 68z" />
    <glyph glyph-name="uni093E0930094D" horiz-adv-x="294" 
d="M324 544h-144v-564q-25 0 -46 10.5t-21 21.5v532h-123q-20 24 -20 61h138q-87 71 -87 158q0 61 42.5 101.5t106.5 40.5q92 0 125 -87l-20 -14q-13 13 -21 20q-26 21 -71.5 21t-70 -28t-24.5 -72q0 -72 73 -140h143q20 -25 20 -61z" />
    <glyph glyph-name="uni093E0930094D0902" horiz-adv-x="294" 
d="M156 702.5q-21 23.5 -21 33t24 30t33 20.5t30 -24t21 -33t-23.5 -29.5t-33 -20.5t-30.5 23.5zM324 544h-144v-564q-25 0 -46 10.5t-21 21.5v532h-123q-20 24 -20 61h138q-87 71 -87 158q0 61 43 101.5t107 40.5q93 0 124 -87l-19 -14q-15 14 -22.5 20t-26.5 13.5t-42 7.5
q-47 0 -72 -28t-25 -72q0 -72 73 -140h143q20 -25 20 -61z" />
    <glyph glyph-name="uni0930094D.aMatraI" horiz-adv-x="0" 
d="M-64 652.5q-34 58.5 -34 118.5t28.5 93t79.5 33t79 -37.5t31 -80.5l-32 -12q-6 28 -23.5 48.5t-46.5 20.5q-58 0 -58 -87q0 -75 53 -147l-13 -26q-30 18 -64 76.5z" />
    <glyph glyph-name="uni0902.aMatraI" horiz-adv-x="0" 
d="M-29 906q2 0 35 -33.5t33 -36t-33 -34t-35.5 -31.5t-35.5 33t-33 35.5t33.5 34.5t35.5 32z" />
    <glyph glyph-name="uni0930094D0902.aMatraI" horiz-adv-x="0" 
d="M-64 652.5q-34 58.5 -34 118.5t28.5 93t79.5 33t79 -37.5t31 -80.5l-32 -12q-6 28 -23.5 48.5t-46.5 20.5q-58 0 -58 -87q0 -75 53 -147l-13 -26q-30 18 -64 76.5zM71.5 684.5q-23.5 -20.5 -33 -20.5t-30.5 24t-21 33.5t24 30t33 20.5t30 -24.5t21 -33.5t-23.5 -29.5z
" />
    <glyph glyph-name="uni09400930094D" horiz-adv-x="294" 
d="M324 544h-144v-564q-25 0 -46 10.5t-21 21.5v532h-123q-20 24 -20 61h145q-26 70 -69 133q-25 35 -58.5 56.5t-69.5 21.5q-73 0 -73 -78q0 -53 21 -89q-15 -10 -30 -15q-16 15 -33.5 51.5t-17.5 83t31 78t85 31.5q91 0 169 -96q9 52 49 85t93 33t84.5 -25.5t44.5 -61.5
l-20 -15q-40 42 -90 42t-75 -28t-25 -72.5t37 -134.5h136q20 -25 20 -61z" />
    <glyph glyph-name="uni09400902" horiz-adv-x="294" 
d="M323 544h-143v-564q-25 0 -46 10.5t-21 21.5v532h-123q-20 24 -20 61h147q-20 65 -67 135q-24 36 -58 58.5t-71 22.5q-74 0 -74 -83q0 -38 23 -84q-19 -14 -32 -15q-16 12 -33.5 49t-17.5 84.5t31.5 79t85 31.5t102.5 -33t81 -82q58 -91 81 -163h135q20 -23 20 -61z
M229.5 748.5q-23.5 -20.5 -33.5 -20.5t-30.5 23.5t-20.5 33.5t23.5 30t33 20t30.5 -24t21 -33t-23.5 -29.5z" />
    <glyph glyph-name="uni09400930094D0902" 
d="M193 707q-21 24 -21 33.5t24 30t33 20.5t30 -24.5t21 -33.5t-23.5 -29.5t-33 -20.5t-30.5 24zM324 544h-144v-564q-25 0 -46 10.5t-21 21.5v532h-123q-20 24 -20 61h144q-25 69 -70 133q-24 36 -57.5 57.5t-69.5 21.5q-73 0 -73 -79q0 -51 21 -89q-1 -1 -14.5 -8
t-15.5 -7q-16 15 -33.5 52t-17.5 83t31 77.5t85 31.5q92 0 169 -95q8 51 48.5 84t93.5 33t84 -25.5t44 -60.5l-19 -15q-41 41 -90.5 41t-74.5 -27.5t-25 -71.5t38 -136h136q20 -25 20 -61z" />
    <glyph glyph-name="uni0940.aLong" 
d="M323 544h-143v-564q-25 0 -46 10.5t-21 21.5v532h-123q-20 24 -20 61h144q-33 67 -109 135q-39 36 -92.5 58.5t-110.5 22.5q-134 0 -134 -87q0 -39 29 -74q-13 -15 -33 -17q-17 13 -36.5 47t-19.5 73q0 55 47 87.5t118 32.5t131.5 -22.5t101.5 -54.5t76 -74
q54 -62 84 -127h137q20 -23 20 -61z" />
    <glyph glyph-name="uni09400930094D.aLong" 
d="M175 836q-58 0 -58 -80.5t56 -150.5h130q20 -23 20 -61h-143v-564q-25 0 -46 10.5t-21 21.5v532h-123q-20 24 -20 61h144q-33 67 -109 135q-39 36 -92.5 58.5t-110.5 22.5q-134 0 -134 -87q0 -39 29 -74q-13 -15 -33 -17q-17 13 -36.5 47t-19.5 73q0 55 47 87.5t124 32.5
q158 0 281 -125q-1 6 -1 19q0 54 29 87t79.5 33t78.5 -37.5t31 -80.5l-32 -12q-5 27 -23 48t-47 21z" />
    <glyph glyph-name="uni09400902.aLong" 
d="M323 544h-143v-564q-25 0 -46 10.5t-21 21.5v532h-123q-20 24 -20 61h144q-33 67 -109 135q-39 36 -92.5 58.5t-110.5 22.5q-134 0 -134 -87q0 -39 29 -74q-13 -15 -33 -17q-17 13 -36.5 47t-19.5 73q0 55 47 87.5t118 32.5t131.5 -22.5t101.5 -54.5t76 -74
q54 -62 84 -127h137q20 -23 20 -61zM239.5 710.5q-23.5 -20.5 -33 -20.5t-30.5 23.5t-21 33.5t24 30t33 20t30 -24t21 -33t-23.5 -29.5z" />
    <glyph glyph-name="uni09400930094D0902.aLong" 
d="M166.5 752q23.5 20 33 20t30.5 -24t21 -33t-23.5 -29.5t-33.5 -20.5t-30.5 23.5t-20.5 33.5t23.5 30zM175 836q-58 0 -58 -80.5t56 -150.5h130q20 -23 20 -61h-143v-564q-25 0 -46 10.5t-21 21.5v532h-123q-20 24 -20 61h144q-33 67 -109 135q-39 36 -92.5 58.5
t-110.5 22.5q-134 0 -134 -87q0 -39 29 -74q-13 -15 -33 -17q-17 13 -36.5 47t-19.5 73q0 55 47 87.5t124 32.5q158 0 281 -125q-1 6 -1 19q0 54 29 87t79.5 33t78.5 -37.5t31 -80.5l-32 -12q-5 27 -23 48t-47 21z" />
    <glyph glyph-name="uni09470930094D" horiz-adv-x="0" 
d="M-402 820q-49 0 -121 -28q-17 32 -22 68q19 8 57.5 16t67.5 8q95 0 181 -99q8 52 48.5 86t98.5 34q93 0 124 -87l-17 -14q-41 41 -90.5 41t-74.5 -27.5t-25 -69.5q0 -61 51 -149l-47 -13q-110 234 -231 234z" />
    <glyph glyph-name="uni09470902" horiz-adv-x="0" 
d="M-71 738.5q-23 -20.5 -33 -20.5t-30.5 24t-20.5 33.5t23.5 30t32.5 20.5t30 -24.5t21 -33.5t-23 -29.5zM-410 820q-49 0 -114 -28q-18 35 -22 69q18 8 57.5 16t76.5 8t81.5 -24t75.5 -57t60 -76q45 -69 70 -129l-47 -12q-24 55 -78 133q-70 100 -160 100z" />
    <glyph glyph-name="uni09470930094D0902" horiz-adv-x="0" 
d="M-37 707.5q-23 -20.5 -33 -20.5t-30.5 23.5t-20.5 33.5t23.5 30t32.5 20t30 -24t21 -33t-23 -29.5zM-406 820q-48 0 -120 -28q-17 32 -22 68q19 8 57.5 16t67.5 8q95 0 181 -99q8 52 48.5 86t98.5 34q93 0 124 -87l-17 -14q-41 41 -90.5 41t-74.5 -27.5t-25 -69.5
q0 -63 52 -152l-48 -10q-110 234 -232 234z" />
    <glyph glyph-name="uni09480930094D" horiz-adv-x="0" 
d="M-255 669.5q-48 38.5 -99 38.5t-111 -49q-23 25 -36 64q20 18 56 32t68 14q80 0 178 -100q-87 174 -168 174q-49 0 -108 -44q-6 5 -18 26.5t-18 40.5q57 38 117 38t100.5 -31t79.5 -93q7 54 48 89.5t96 35.5t85 -25.5t42 -61.5l-19 -14q-39 41 -91.5 41t-78.5 -33
t-26 -90q0 -51 22 -92q14 -25 17 -34l-64 -6q-24 41 -72 79.5z" />
    <glyph glyph-name="uni09480902" horiz-adv-x="0" 
d="M-42.5 706.5q-23.5 -20.5 -33.5 -20.5t-30.5 23.5t-20.5 33.5t23.5 30.5t33 20.5t30.5 -24.5t21 -33.5t-23.5 -29.5zM-372 904q46 0 89.5 -32t74.5 -82q65 -103 87 -196l-52 -4q-25 42 -73 80t-94 38q-28 0 -61 -16t-53 -33q-21 21 -37 64q22 19 57 32.5t70 13.5
q76 0 176 -100q-86 174 -168 174q-55 0 -108 -44q-6 5 -18.5 26.5t-18.5 40.5q59 38 129 38z" />
    <glyph glyph-name="uni09480930094D0902" horiz-adv-x="0" 
d="M-14.5 705.5q-23.5 -20.5 -33 -20.5t-30.5 24t-21 33.5t24 30t33 20.5t30 -24.5t21 -33.5t-23.5 -29.5zM-253.5 669.5q-48.5 38.5 -99 38.5t-110.5 -49q-21 21 -37 64q21 18 57 32t68 14q78 0 178 -100q-87 174 -168 174q-49 0 -108 -44q-6 5 -18 26.5t-18 40.5
q55 38 116 38t101 -31t79 -93q8 55 49 90t100 35q92 0 123 -87l-19 -14q-13 13 -22 20q-27 21 -75 21t-74 -33t-26 -90q0 -32 6 -49t8 -22.5t6.5 -15.5t6.5 -13.5t13 -25.5l-64 -6q-24 41 -72.5 79.5z" />
    <glyph glyph-name="uni094B0930094D" horiz-adv-x="294" 
d="M324 544h-144v-564q-25 0 -46 10.5t-21 21.5v532h-123q-20 24 -20 61h149q-104 215 -222 215q-49 0 -121 -28q-17 32 -22 68q20 9 58 17t67 8q95 0 181 -100q8 52 48.5 86.5t98.5 34.5q92 0 124 -87l-17 -14q-42 40 -91 40t-74 -27t-25 -70q0 -62 48 -143h132
q20 -25 20 -61z" />
    <glyph glyph-name="uni094B0902" horiz-adv-x="294" 
d="M324 544h-144v-564q-25 0 -46 10.5t-21 21.5v532h-123q-20 24 -20 61h148q-34 68 -82 131q-29 38 -66 61t-80.5 23t-115.5 -28q-17 32 -22 68q18 8 58 16t68 8q55 0 106 -32t88 -82q64 -86 98 -165h134q20 -25 20 -61zM221.5 738.5q-23.5 -20.5 -33.5 -20.5t-30.5 23.5
t-20.5 33t23.5 30t33 20.5t30.5 -24t21 -33t-23.5 -29.5z" />
    <glyph glyph-name="uni094B0930094D0902" horiz-adv-x="294" 
d="M230 716.5q-21 23.5 -21 33.5t24 30t33 20t30 -24t21 -33t-23.5 -29.5t-33 -20.5t-30.5 23.5zM250 845q-49 0 -74 -27.5t-25 -73t48 -139.5h105q20 -25 20 -61h-144v-564q-25 0 -46 10.5t-21 21.5v532h-123q-20 24 -20 61h173q-31 62 -70 116q-71 99 -129 99
q-68 0 -140 -28q-18 29 -23 68q57 25 131 25q89 0 176 -100q7 53 48 87t94 34t84 -26t44 -61l-17 -14q-14 13 -22 19.5t-27 13.5t-42 7z" />
    <glyph glyph-name="uni094C0930094D" horiz-adv-x="294" 
d="M166 812q-26 -33 -26 -84t36 -123h128q20 -25 20 -62h-144v-563q-25 0 -46 10.5t-21 20.5v532h-123q-20 25 -20 62h136q-28 39 -71.5 71t-92 32t-108.5 -49q-22 22 -36 64q20 18 56 32t68 14q80 0 178 -100q-87 174 -168 174q-49 0 -108 -44q-6 5 -18 26.5t-18 40.5
q55 38 116 38t101 -31t79 -93q8 55 49 90t100 35q92 0 123 -87l-19 -14q-13 13 -22 20q-27 21 -75 21t-74 -33z" />
    <glyph glyph-name="uni094C0902" horiz-adv-x="294" 
d="M324 544h-144v-564q-25 0 -46 10.5t-21 21.5v532h-123q-20 24 -20 61h140q-29 40 -72.5 71.5t-78.5 31.5t-68 -16t-53 -33q-23 25 -36 64q54 46 129 46t173 -100q-86 174 -168 174q-51 0 -108 -44q-6 5 -18 26.5t-18 40.5q57 38 128 38q45 0 87 -30t73 -78
q61 -93 88 -191h136q20 -25 20 -61zM239 720.5q-23 -20.5 -33 -20.5t-30.5 23.5t-20.5 33t23.5 30t33 20.5t30 -24t20.5 -33t-23 -29.5z" />
    <glyph glyph-name="uni094C0930094D0902" horiz-adv-x="294" 
d="M215.5 701q-20.5 24 -20.5 33.5t23.5 30t33 20.5t30 -24t20.5 -33.5t-23 -30t-33 -20.5t-30.5 24zM167 811q-26 -33 -26 -85.5t35 -120.5h128q20 -25 20 -62h-144v-563q-25 0 -46 10.5t-21 20.5v532h-123q-20 25 -20 62h136q-28 39 -71 70.5t-91.5 31.5t-108.5 -49
q-21 21 -37 64q21 18 57 32t68 14q78 0 178 -100q-86 175 -168 175q-48 0 -108 -45q-6 6 -18 27t-18 41q58 38 117.5 38t99.5 -31t79 -94q8 55 49 90t100 35q92 0 123 -86l-19 -15q-13 13 -22 20q-27 21 -75 21t-74 -33z" />
    <glyph glyph-name="uni0915094D0937" horiz-adv-x="650" 
d="M680 544h-143v-564q-25 0 -46.5 10.5t-21.5 21.5v280q-47 -14 -99 -14q-86 0 -172 40q-67 -41 -95 -64.5t-38 -43t-10 -42.5q0 -41 33 -67t81.5 -26t78.5 15q-15 22 -15 46.5t26 42.5t44.5 18t31 -16.5t12.5 -42.5q0 -42 -32 -71q70 -67 100 -119q-6 -10 -24 -24t-33 -20
q-52 106 -74 138q-46 -26 -104 -26q-84 0 -133.5 50.5t-49.5 120.5q0 51 30.5 88t106.5 84q-35 24 -62.5 61t-27.5 83t39.5 81t102 35t104 -37t41.5 -100q0 -77 -87 -135q46 -13 92 -13q74 0 133 32v178h-71q-20 24 -20 61h282q20 -25 20 -61zM250.5 545.5
q-20.5 18.5 -58 18.5t-60 -21t-22.5 -53t21 -60.5t46 -44.5q47 28 70.5 52.5t23.5 57t-20.5 51z" />
    <glyph glyph-name="uni0915094D0937094D" horiz-adv-x="411" 
d="M485 298q-52 -20 -126.5 -20t-160.5 40q-67 -41 -95 -64.5t-38 -43t-10 -42.5q0 -41 33 -67t81.5 -26t78.5 15q-15 22 -15 46.5t26 42.5t44.5 18t31 -16.5t12.5 -42.5q0 -42 -32 -71q70 -67 100 -119q-6 -10 -24 -24t-33 -20q-52 106 -74 138q-46 -26 -104 -26
q-84 0 -133.5 50.5t-49.5 120.5q0 51 30.5 88t106.5 84q-35 24 -62.5 61t-27.5 83t39.5 81t102 35t104 -37t41.5 -100q0 -77 -87 -135q46 -13 92 -13q86 0 147 41zM250.5 545.5q-20.5 18.5 -58 18.5t-60 -21t-22.5 -53t21 -60.5t46 -44.5q47 28 70.5 52.5t23.5 57t-20.5 51z
M441 544h-43q-20 24 -20 61h43q20 -25 20 -61z" />
    <glyph glyph-name="uni0915094D0937094D092E" horiz-adv-x="964" 
d="M994 544h-143v-564q-25 0 -46 10.5t-21 21.5v224q-105 7 -223 7q0 -51 -19 -80q-8 -14 -32 -14t-60 38t-36 67q0 16 5 24v1q-26 -2 -40 -2q-105 0 -182 40q-67 -41 -95 -64t-37.5 -42.5t-9.5 -42.5q0 -41 33 -67t81.5 -26t78.5 15q-15 24 -15 47t26 41.5t44.5 18.5
t31 -16.5t12.5 -42.5q0 -42 -32 -71q70 -67 100 -119q-6 -10 -24 -24t-33 -20q-52 106 -74 138q-46 -26 -104 -26q-84 0 -133.5 50.5t-49.5 120.5q0 51 30.5 88t106.5 84q-35 24 -62.5 61t-27.5 83t39.5 81t102 35t104 -37t41.5 -100q0 -77 -86 -135q54 -14 130 -14t118 18
v193h-118q-20 26 -20 61h619q20 -23 20 -61zM250.5 545.5q-20.5 18.5 -58 18.5t-60 -21t-22.5 -53t21 -60.5t46 -44.5q47 28 70.5 52.5t23.5 57t-20.5 51zM560 302q140 0 224 -6v248h-224v-242z" />
    </font>
</defs>
</svg>
